<svg width="24" height="24" fill="none" xmlns="http://www.w3.org/2000/svg"><path d="M12 22a33.549 33.549 0 01-4-3.923c-1.829-2.123-4-5.284-4-8.297 0-1.538.468-3.043 1.347-4.322a7.955 7.955 0 013.591-2.866 8.214 8.214 0 014.624-.442 8.074 8.074 0 014.097 2.13 7.716 7.716 0 011.737 2.522c.402.944.607 1.957.604 2.978 0 3.013-2.172 6.175-4 8.297A33.549 33.549 0 0112 22zm0-15.553a3.48 3.48 0 00-2.424.977A3.286 3.286 0 008.57 9.78c0 .884.362 1.732 1.005 2.357a3.48 3.48 0 002.424.976c.91 0 1.781-.351 2.424-.976A3.286 3.286 0 0015.43 9.78c0-.884-.362-1.731-1.005-2.356A3.479 3.479 0 0012 6.447z" fill="#DC405C"/></svg>