<svg width="60" height="60" fill="none" xmlns="http://www.w3.org/2000/svg"><path d="M10.382 56.759H.879A.88.88 0 11.88 55h9.503c5.77 0 10.143-.682 13.368-2.085 2.717-1.182 4.693-2.872 6.127-5.26H19.42c-3.363 0-5.987-2.858-6.333-6.76H.88a.88.88 0 110-1.759h13.048c4.265 0 8.001-1.502 10.803-4.345l6.487-6.595-3.826-3.852a.88.88 0 01.274-1.427c.821-.355 1.6-.689 2.34-1.007 3.394-1.456 6.075-2.606 8.546-4.001a.88.88 0 01.864 1.531c-2.554 1.443-5.273 2.61-8.716 4.086l-1.151.494 9.63 9.695c4.118-9.466 6.37-13.904 13.86-21.394l4.764-4.763a1.506 1.506 0 00-.128-2.24c-.585-.471-1.483-.4-2.045.162l-4.764 4.764c-3.249 3.248-5.821 5.482-8.342 7.242a.879.879 0 11-1.007-1.442C43.95 14.345 46.45 12.173 49.622 9l4.764-4.764c1.208-1.207 3.095-1.331 4.39-.289a3.275 3.275 0 011.22 2.37 3.267 3.267 0 01-.95 2.484l-4.764 4.764c-7.57 7.569-9.642 11.96-14.006 22.04a.88.88 0 01-1.431.27l-3.91-3.936a1461.991 1461.991 0 01-6.502 6.545l-.652.652h6.945c1.106 0 2.006.899 2.006 2.003 0 1.63-.432 3.164-1.218 4.319-.872 1.28-2.112 2.024-3.61 2.17-3.3 6.393-9.78 9.13-21.521 9.13zm4.472-15.887c.29 2.555 1.881 5.024 4.565 5.024h11.944c1.148-.005 2.054-.486 2.696-1.428.581-.853.914-2.067.914-3.329a.247.247 0 00-.247-.245H26.02c-2.208 2.205-3.24 3.23-3.253 3.244a.879.879 0 11-1.24-1.247c.017-.016 1.597-1.587 5.04-5.03l-1.224-1.223c-2.817 2.556-6.484 4.036-10.489 4.234zm11.741-5.47l1.215 1.216a1458.23 1458.23 0 005.885-5.927l-1.239-1.247-5.861 5.959zM16.374 13.44l-3.125-1.709-1.71-3.125c-.44-.805-1.655-.811-2.099 0L7.731 11.73l-3.125 1.71c-.805.44-.811 1.655 0 2.099l3.125 1.71 1.71 3.124c.44.805 1.655.811 2.099 0l1.71-3.125 3.124-1.71c.805-.44.811-1.655 0-2.099zm-3.067 1.05l-1.821.996-.996 1.82-.996-1.82-1.82-.996 1.82-.996.996-1.82.996 1.82 1.82.996zm40.067 34.95l-3.125-1.709-1.71-3.125c-.44-.805-1.655-.811-2.099 0l-1.709 3.125-3.125 1.71c-.805.44-.811 1.655 0 2.099l3.125 1.71 1.71 3.124c.44.805 1.655.811 2.099 0l1.71-3.125 3.124-1.71c.805-.44.811-1.655 0-2.099zm-3.067 1.05l-1.821.996-.996 1.82-.995-1.82-1.821-.996 1.82-.996.996-1.82.996 1.82 1.82.996z" fill="#000"/></svg>