<svg width="60" height="60" fill="none" xmlns="http://www.w3.org/2000/svg"><g clip-path="url(#clip0_9_230)" fill="#000"><path d="M46.595 48.626c-.593.085-1.019.62-1.019 1.22v9c0 1.537 2.393 1.54 2.393 0V49.81c0-.719-.634-1.29-1.374-1.183zM43.41 13.908a7.82 7.82 0 00-2.161-5.836 7.82 7.82 0 00-5.72-2.454h-7.607a7.82 7.82 0 00-5.72 2.454c-2.126 2.237-2.208 4.92-2.062 7.8a16.573 16.573 0 00-5.282 12.123v30.852c0 1.536 2.393 1.539 2.393 0V27.995c0-3.21 1.095-6.303 3.058-8.787l.514 10.138c.017 5.998 4.901 10.872 10.903 10.872 6.002 0 10.886-4.874 10.903-10.872l.474-9.354a14.053 14.053 0 012.473 8.003v12.028c0 1.536 2.393 1.538 2.393 0V27.995c0-4.349-1.663-8.434-4.687-11.542l.129-2.545zm-2.39-.12l-.783 15.466-.001.06c0 4.693-3.818 8.51-8.51 8.51-4.693 0-8.51-3.817-8.51-8.51 0-.02 0-.04-.002-.06l-.783-15.467a5.453 5.453 0 011.617-4.18c1.048-1.043 2.488-1.596 3.966-1.596h7.423c1.478 0 2.918.553 3.966 1.596a5.452 5.452 0 011.618 4.18zm18.156-1.955l-3.125-1.709L54.342 7c-.44-.805-1.656-.811-2.1 0l-1.709 3.125-3.125 1.71c-.805.44-.811 1.655 0 2.099l3.125 1.71 1.71 3.124c.44.805 1.655.811 2.099 0l1.71-3.125 3.124-1.709c.805-.44.811-1.656 0-2.1zm-3.067 1.05l-1.821.996-.996 1.82-.995-1.82-1.821-.996 1.82-.996.996-1.82.996 1.82 1.82.996zM4.86 7.072l2.824 1.544 1.543 2.823c.44.804 1.656.81 2.1 0l1.544-2.823 2.822-1.544c.805-.44.812-1.656 0-2.1L12.872 3.43 11.327.606c-.44-.805-1.656-.811-2.1 0L7.684 3.429 4.86 4.973c-.805.44-.811 1.655 0 2.099zm3.069-1.05l1.518-.83.83-1.518.83 1.518 1.519.83-1.518.83-.83 1.519-.83-1.518-1.52-.83zm4.334 27.805l-3.019-1.651-1.65-3.019c-.44-.805-1.657-.81-2.1 0l-1.651 3.019-3.02 1.651c-.804.44-.81 1.656 0 2.1l3.02 1.65 1.65 3.02c.44.804 1.657.81 2.1 0l1.651-3.02 3.02-1.65c.804-.44.81-1.656 0-2.1zm-4.782 1.988l-.938 1.714-.937-1.714-1.715-.938 1.715-.938.937-1.714.938 1.715 1.714.937-1.714.938zm38.187 9.53c.403.966 1.819.97 2.215-.014.125-.31.114-.666-.034-.966a1.201 1.201 0 00-1.666-.518 1.206 1.206 0 00-.515 1.498z"/><path d="M35 48.913c1.537 0 1.539-2.393 0-2.393h-6.666c-1.536 0-1.538 2.393 0 2.393H35zm1.871 2.491h-10.29c-1.537 0-1.54 2.393 0 2.393h10.29c1.537 0 1.539-2.393 0-2.393z"/></g><defs><clipPath id="clip0_9_230"><path fill="#fff" d="M0 0h60v60H0z"/></clipPath></defs></svg>