<svg width="60" height="60" fill="none" xmlns="http://www.w3.org/2000/svg"><path d="M26.638 25.474a5.853 5.853 0 01-8.276 0l-.824-.824-1.326 1.325.824.824a7.725 7.725 0 0010.928 0l.824-.824-1.326-1.325-.824.824zm-8.825-6.336l1.212 1.212 1.325-1.325-1.212-1.212a3.281 3.281 0 00-4.526 0L13.4 19.024l1.325 1.325 1.213-1.212a1.373 1.373 0 011.874 0zm8.049-1.325l-1.212 1.212 1.325 1.325 1.212-1.212a1.373 1.373 0 011.875 0l1.213 1.212 1.325-1.325-1.212-1.212a3.281 3.281 0 00-4.526 0zM58.353 6.59a6.64 6.64 0 01-4.54-3.965l-.44-1.099a.938.938 0 00-1.741 0l-.444 1.099a6.64 6.64 0 01-4.544 3.966.938.938 0 000 1.818 6.64 6.64 0 014.544 3.966l.438 1.099a.937.937 0 001.742 0l.444-1.099a6.64 6.64 0 014.544-3.966.938.938 0 000-1.818h-.003zM52.5 10.764A8.537 8.537 0 0049.33 7.5a8.537 8.537 0 003.17-3.263A8.537 8.537 0 0055.67 7.5a8.537 8.537 0 00-3.17 3.263zm0 8.924a.937.937 0 00-.519-.84l-1.097-.548a6.176 6.176 0 01-3.12-3.596.937.937 0 00-1.78 0 6.177 6.177 0 01-3.12 3.596l-1.097.548a.939.939 0 000 1.678l1.097.549a6.177 6.177 0 013.12 3.596.937.937 0 001.78 0 6.178 6.178 0 013.12-3.596l1.097-.549a.937.937 0 00.519-.838zm-5.625 2.537a8.023 8.023 0 00-2.64-2.538 8.024 8.024 0 002.64-2.537 8.026 8.026 0 002.64 2.538 8.025 8.025 0 00-2.64 2.537z" fill="#000"/><path d="M1.875 59.062h41.25a.938.938 0 00.938-.937V45.937a8.438 8.438 0 00-4.688-7.546V9.375A8.448 8.448 0 0030.937.937H14.063a8.448 8.448 0 00-8.437 8.438V38.39a8.437 8.437 0 00-4.688 7.546v12.188a.937.937 0 00.938.937zM9.375 45v-5.625h1.875v2.812a.938.938 0 00.938.938h.937v14.062H7.5v-9.093l1.717-2.577A.943.943 0 009.375 45zm25.313-25.313h.937a1.875 1.875 0 110 3.75h-.938a.937.937 0 00-.87.59l-.604 1.508a10.085 10.085 0 01-9.363 6.34h-2.7a10.086 10.086 0 01-9.364-6.34l-.604-1.509a.937.937 0 00-.87-.589h-.937a1.875 1.875 0 010-3.75h.938a.938.938 0 00.937-.937V15h1.933a11.462 11.462 0 0010.255-6.336l.366-.733 9.946 6.633v4.186a.938.938 0 00.938.937zM21.15 33.75h2.7a11.913 11.913 0 001.522-.103 6.568 6.568 0 006.503 5.728v1.875h-18.75v-1.875a6.568 6.568 0 006.503-5.728c.505.067 1.013.101 1.522.103zm14.633 11.77l1.717 2.574v9.093h-5.625V43.125h.938a.938.938 0 00.937-.938v-2.812h1.875V45c0 .185.055.366.157.52zm-15.514 8.093a3.676 3.676 0 004.482 0l.447 3.574h-5.376l.447-3.574zm.368-2.907l.767-3.831h2.213l.766 3.833a1.875 1.875 0 11-3.75 0l.004-.002zm5.613-.197c0-.024 0-.046-.007-.069l-.937-4.687a.937.937 0 00-.919-.75h-3.75a.938.938 0 00-.92.75l-.937 4.687c-.005.023 0 .045-.007.069l-.84 6.678H15V43.125h15v14.062h-2.913l-.837-6.678zm15.938-4.572v11.25h-2.813v-9.375a.943.943 0 00-.157-.52L37.5 44.72v-5.063a6.57 6.57 0 014.688 6.281zM35.624 37.5h-3.75a4.678 4.678 0 01-4.642-4.24 11.95 11.95 0 007.72-7.03l.37-.918h.302a3.711 3.711 0 001.875-.52v12.925a8.406 8.406 0 00-1.875-.217zM14.062 2.812h16.876A6.57 6.57 0 0137.5 9.375v8.959a3.712 3.712 0 00-1.875-.522v-3.75a.937.937 0 00-.417-.78l-11.25-7.5a.937.937 0 00-1.36.361l-.843 1.688a9.588 9.588 0 01-8.572 5.294h-2.87a.937.937 0 00-.938.937v3.75a3.712 3.712 0 00-1.875.522v-8.96a6.57 6.57 0 016.563-6.562zM7.5 24.792a3.711 3.711 0 001.875.52h.303l.368.92a11.95 11.95 0 007.721 7.031 4.678 4.678 0 01-4.642 4.237h-3.75a8.405 8.405 0 00-1.875.217V24.791zM2.812 45.936a6.57 6.57 0 014.688-6.28v5.062l-1.718 2.573a.943.943 0 00-.157.52v9.375H2.812v-11.25z" fill="#000"/></svg>