<svg width="60" height="64" fill="none" xmlns="http://www.w3.org/2000/svg"><g clip-path="url(#clip0_9_107)"><path d="M43.086 56.6c-.436 0-.856-.065-1.238-.194a2.877 2.877 0 01-1.72-1.517c-2.505-.815-4.775-4.32-6.283-9.75l-1.993-7.17-4.39-5.616 4.181 15.046.002.007.002.007 2.01 7.23a1.447 1.447 0 01-1.004 1.78c-.874.242-1.766.236-2.514-.017a2.876 2.876 0 01-1.72-1.517c-2.505-.815-4.775-4.322-6.284-9.75l-.626-2.252a.88.88 0 011.694-.47l.626 2.252c1.148 4.132 2.577 6.555 3.854 7.738l-.103-.371a4.223 4.223 0 01.386-3.219 4.228 4.228 0 011.774-1.703l-4.398-15.827a1.427 1.427 0 01.739-1.672 1.427 1.427 0 011.784.399l5.48 7.01a.866.866 0 01.154.306l2.04 7.339c.725 2.61 1.654 4.798 2.685 6.327.38.563.773 1.033 1.166 1.4l-.1-.36a4.264 4.264 0 012.159-4.925l-.975-3.509-.006-.02v-.002l-2.425-8.724-7.036-9.011a.879.879 0 111.385-1.082l7.144 9.148a.9.9 0 01.154.306l2.477 8.913c.724 2.6 1.65 4.78 2.678 6.304.38.565.774 1.037 1.168 1.405l-.1-.36a4.264 4.264 0 012.154-4.922 2.913 2.913 0 01-.105-.398L44.23 31.74l-5.908-7.567a11.484 11.484 0 01-2.403-6.445l-1.649-.725a.879.879 0 01.708-1.61l15.529 6.834a4.28 4.28 0 012.555 3.916V46.26c0 .797-.648 1.445-1.444 1.445h-.002a4.81 4.81 0 01-1.162-.14l1.535 5.52a1.447 1.447 0 01-1.005 1.78c-.873.243-1.765.237-2.513-.016a2.876 2.876 0 01-1.72-1.518c-.738-.24-1.456-.713-2.14-1.4l.755 2.712a1.447 1.447 0 01-1.005 1.779 4.77 4.77 0 01-1.276.178zm-12.859-7.73a2.475 2.475 0 00-.954 2.696l.653 2.35c.118.424.365.686.777.826.331.112.746.13 1.172.057l-1.648-5.93zm11.71-.003a2.502 2.502 0 00-.954 2.7l.653 2.35c.118.423.364.685.776.825.332.112.747.131 1.173.057l-1.649-5.932zm6.622-1.557a2.502 2.502 0 00-.953 2.699l.653 2.35c.118.424.365.686.777.826.331.112.746.13 1.172.056l-1.649-5.931zm2.745-7.533a2.502 2.502 0 00-1.64 2.345v2.44c0 .439.167.758.526 1.003.29.197.684.326 1.114.368v-6.156zM37.764 18.54a9.718 9.718 0 001.944 4.551l6.015 7.704a.866.866 0 01.154.306l2.516 9.048a4.268 4.268 0 012.911-2.194V26.141a2.52 2.52 0 00-1.505-2.306l-12.035-5.296zM12.586 44.914a2.64 2.64 0 01-2.636-2.636 2.64 2.64 0 012.636-2.637 2.64 2.64 0 012.637 2.637 2.64 2.64 0 01-2.637 2.636zm0-3.515a.88.88 0 000 1.757.88.88 0 000-1.757zm-9.363 1.744a.879.879 0 01-.88-.879v-2.636H.88a.879.879 0 110-1.758h1.465v-2.637a.879.879 0 111.758 0v2.637h1.464a.879.879 0 110 1.758H4.102v2.636a.879.879 0 01-.88.88zm18.176-3.056a.88.88 0 01-.847-.644l-1.838-6.614-12.099-5.324A11.08 11.08 0 010 17.367a.879.879 0 111.758 0 9.321 9.321 0 005.565 8.529l12.48 5.491a.878.878 0 01.493.57l1.95 7.016a.879.879 0 01-.847 1.114zm-7.055-12.8a.879.879 0 01-.879-.88v-2.636h-1.464a.879.879 0 110-1.758h1.464v-2.637a.879.879 0 111.758 0v2.637h1.465a.879.879 0 110 1.758h-1.465v2.636a.879.879 0 01-.879.88zm16.777-11.752a.877.877 0 01-.354-.075L10.03 6.334a13.107 13.107 0 00-5.31-1.116H.879a.879.879 0 110-1.758h3.84c2.085 0 4.11.426 6.019 1.266l20.738 9.125a.879.879 0 01-.355 1.684zm12.446-2.727a2.64 2.64 0 01-2.636-2.637 2.64 2.64 0 012.636-2.637 2.64 2.64 0 012.637 2.637 2.64 2.64 0 01-2.637 2.637zm0-3.516a.88.88 0 000 1.758.88.88 0 000-1.758zm13.21 2.897a.879.879 0 01-.879-.879V8.673h-1.464a.879.879 0 110-1.758h1.464V4.28a.879.879 0 111.758 0v2.636h1.465a.879.879 0 110 1.758h-1.465v2.637a.879.879 0 01-.879.879z" fill="#000"/></g><defs><clipPath id="clip0_9_107"><path fill="#fff" d="M0 0h60v64H0z"/></clipPath></defs></svg>