<svg width="60" height="60" fill="none" xmlns="http://www.w3.org/2000/svg"><g clip-path="url(#clip0_9_173)"><path d="M49.508 57.862a3.088 3.088 0 01-2.578-1.369 3.088 3.088 0 01-2.36.535 3.1 3.1 0 01-2.028-1.32l-.038.026a3.085 3.085 0 01-2.323.51 3.088 3.088 0 01-2.004-1.283l-.026-.039a3.1 3.1 0 01-2.36.537 3.114 3.114 0 01-2.56-2.967l-11.345-6.61a.879.879 0 01.885-1.52l11.816 6.885a.878.878 0 01.422.914 1.352 1.352 0 001.092 1.567 1.352 1.352 0 001.567-1.091 4.003 4.003 0 00-.66-3.013.88.88 0 011.442-1.005 5.75 5.75 0 01.948 4.327v.003c-.063.354.016.712.222 1.007a1.346 1.346 0 001.88.336c.295-.206.494-.515.557-.87a6.048 6.048 0 00-.594-3.895.879.879 0 011.559-.812 7.79 7.79 0 01.766 5.014v.002a1.352 1.352 0 002.1 1.346c.297-.206.495-.515.558-.87a7.893 7.893 0 00-.602-4.718.879.879 0 111.596-.736 9.642 9.642 0 01.736 5.764v.002c-.063.354.016.712.222 1.007a1.352 1.352 0 002.438-.534 9.831 9.831 0 00-.604-5.532.879.879 0 111.622-.678 11.58 11.58 0 01.895 4.543l.88.508a3.21 3.21 0 002.51.308 3.211 3.211 0 001.954-1.572c.328-.749.089-1.723-.528-2.156l-.708-.409A41.366 41.366 0 0143.55 37.711a.88.88 0 011.448-.997 39.598 39.598 0 0012.74 11.768l.736.425c.018.01.035.02.051.032 1.355.91 1.864 2.836 1.158 4.383a4.956 4.956 0 01-3.058 2.509 4.952 4.952 0 01-3.874-.476l-.176-.1-.008.047a3.114 3.114 0 01-3.058 2.56zM3.223 52.586a.879.879 0 01-.88-.88V49.07H.88a.879.879 0 110-1.758h1.465v-2.636a.879.879 0 111.758 0v2.636h1.465a.879.879 0 110 1.758H4.102v2.637a.879.879 0 01-.88.879zm10.934-3.39a2.64 2.64 0 01-2.637-2.637 2.64 2.64 0 012.637-2.637 2.64 2.64 0 012.637 2.637 2.64 2.64 0 01-2.637 2.636zm0-3.516a.88.88 0 000 1.758.88.88 0 000-1.758zm5.306-1.349a.875.875 0 01-.441-.12l-10.45-6.089a8.903 8.903 0 01-4.234-5.895 8.903 8.903 0 011.57-7.087l3.784-5.1L.118 3.455a.879.879 0 011.522-.879l9.863 17.083a.879.879 0 01-.055.963l-4.129 5.564a7.144 7.144 0 00-1.26 5.686 7.143 7.143 0 003.398 4.73l10.45 6.09a.879.879 0 01-.444 1.638zm16.44-2.618a.879.879 0 01-.88-.879v-2.637h-1.465a.879.879 0 110-1.757h1.465v-2.637a.879.879 0 111.758 0v2.637h1.465a.879.879 0 110 1.758H36.78v2.636a.879.879 0 01-.879.88zm6.67-6.317a.879.879 0 01-.763-.44l-18.187-31.5a.879.879 0 011.523-.879l18.187 31.5a.879.879 0 01-.76 1.32zm14.204-1.92a.879.879 0 01-.879-.88V29.96h-1.464a.879.879 0 110-1.758h1.464v-2.637a.879.879 0 111.758 0v2.637h1.465a.879.879 0 110 1.758h-1.465v2.637a.879.879 0 01-.879.878zm-39.6-4.883a.875.875 0 01-.442-.12 5.862 5.862 0 01-2.788-3.881 5.862 5.862 0 011.034-4.666.88.88 0 011.411 1.047 4.102 4.102 0 00-.723 3.265 4.101 4.101 0 001.95 2.717.879.879 0 01-.442 1.638zm21.434-10.5a2.64 2.64 0 01-2.637-2.636 2.64 2.64 0 012.637-2.637 2.64 2.64 0 012.637 2.637 2.64 2.64 0 01-2.637 2.636zm0-3.515a.88.88 0 000 1.758.88.88 0 000-1.758z" fill="#000"/></g><defs><clipPath id="clip0_9_173"><path fill="#fff" d="M0 0h60v60H0z"/></clipPath></defs></svg>