<svg width="60" height="60" fill="none" xmlns="http://www.w3.org/2000/svg"><path d="M24.28 20.828c.845.32 1.433.927 1.797 1.858.178.457.61.754 1.1.756h.007c.49 0 .925-.293 1.109-.749.367-.91.975-1.518 1.86-1.859a1.192 1.192 0 00.049-2.207c-.918-.4-1.54-1.001-1.904-1.838a1.184 1.184 0 00-1.111-.715 1.185 1.185 0 00-1.087.75c-.324.813-.931 1.4-1.857 1.791a1.192 1.192 0 00.036 2.213zm2.939-2.397c.352.496.79.921 1.31 1.273-.53.35-.976.793-1.334 1.327a4.603 4.603 0 00-1.287-1.324 4.8 4.8 0 001.31-1.276zm12.7 20.852c-.918-.4-1.54-1-1.904-1.837a1.188 1.188 0 00-1.111-.715 1.185 1.185 0 00-1.087.748c-.323.814-.931 1.4-1.857 1.792a1.192 1.192 0 00.036 2.214c.846.319 1.434.926 1.798 1.857.178.457.61.754 1.1.756h.007c.49 0 .925-.293 1.108-.749.368-.91.976-1.517 1.86-1.859a1.192 1.192 0 00.05-2.207zm-3.008 2.404a4.604 4.604 0 00-1.286-1.324 4.8 4.8 0 001.31-1.276c.353.496.79.921 1.311 1.273-.53.35-.976.793-1.335 1.327zm-20.074-8.883a1.16 1.16 0 00-1.087-.7 1.16 1.16 0 00-1.062.733c-.29.727-.834 1.252-1.665 1.603a1.166 1.166 0 00.036 2.165c.756.285 1.281.829 1.607 1.663.174.446.597.737 1.076.74h.007c.48 0 .905-.288 1.085-.733.328-.815.873-1.36 1.664-1.665a1.166 1.166 0 00.048-2.159c-.824-.359-1.383-.898-1.709-1.647zm-1.077 3.79a4.28 4.28 0 00-1.053-1.085 4.473 4.473 0 001.075-1.046c.296.399.654.747 1.072 1.042a4.392 4.392 0 00-1.094 1.088zm16.762 6.638c-.826.612-1.681 1.2-2.54 1.748l-1.459.93a3.588 3.588 0 00-1.66 2.938l-.05 1.993a4.624 4.624 0 01-1.49 3.298 4.621 4.621 0 01-3.402 1.237l-5.827-.292a15.102 15.102 0 00-4.227.385l-3.693.872a.596.596 0 01-.672-.315.596.596 0 01.248-.793l7.075-3.869a.877.877 0 00-.841-1.539l-7.076 3.87a2.344 2.344 0 00-.975 3.115 2.342 2.342 0 002.644 1.238l3.693-.872a13.345 13.345 0 013.736-.34l5.827.292a6.363 6.363 0 004.682-1.703 6.364 6.364 0 002.05-4.54l.051-1.993a1.836 1.836 0 01.85-1.504l1.458-.93a46.08 46.08 0 002.642-1.817.877.877 0 00-1.044-1.41z" fill="#000"/><path d="M59.697 26.92l-9.433-8.171a7.046 7.046 0 00-5.361-1.674 7.047 7.047 0 00-4.874 2.79l-2.626 3.53-4.572-1.855a.877.877 0 10-.66 1.625l4.15 1.684-4.544 6.107-2.479-.669a32.361 32.361 0 01-8.718-3.8.877.877 0 10-.93 1.489 34.12 34.12 0 009.191 4.005l1.81.488-9.654 12.978a5.178 5.178 0 01-1.682 1.463l-1.982 1.083a.877.877 0 10.842 1.54l1.982-1.084a6.923 6.923 0 002.247-1.955l19.032-25.582a5.216 5.216 0 013.657-2.093 5.216 5.216 0 014.023 1.256l9.433 8.171a.877.877 0 101.148-1.326zm-.799 17.99l-2.282-1.59a35.763 35.763 0 01-2.648-2.039.877.877 0 10-1.133 1.338 37.54 37.54 0 002.778 2.14l2.282 1.59a.873.873 0 001.22-.218.877.877 0 00-.217-1.22zM6.938 21.52l4.517-.595a.158.158 0 01.142.055 34.079 34.079 0 004.725 4.63.873.873 0 001.233-.133.877.877 0 00-.133-1.233 32.32 32.32 0 01-4.481-4.391 1.903 1.903 0 00-1.715-.667l-4.518.595a1.91 1.91 0 01-1.463-.412 1.908 1.908 0 01-.707-1.345l-.41-5.207A15.398 15.398 0 003.18 8.58L1.82 4.985a.984.984 0 01.376-1.171.984.984 0 011.354.248l6.932 9.744c.367.515.87.913 1.456 1.15l9.104 3.694a.877.877 0 10.66-1.625l-9.105-3.694a1.562 1.562 0 01-.686-.542L4.98 3.046a2.73 2.73 0 00-3.758-.691A2.73 2.73 0 00.18 5.605L1.54 9.2c.455 1.206.738 2.47.84 3.754l.41 5.207c.08 1.016.56 1.93 1.352 2.57a3.645 3.645 0 002.796.789z" fill="#000"/><path d="M44.563 28.842a.877.877 0 00-1.597.726c.236.518.484 1.03.742 1.536a44.271 44.271 0 01-3.674 5.062.877.877 0 001.343 1.129 46.059 46.059 0 003.29-4.433 37.287 37.287 0 005.37 7.13.874.874 0 001.24.025.877.877 0 00.026-1.24 35.532 35.532 0 01-6.74-9.935z" fill="#000"/></svg>