<svg width="329" height="32" fill="none" xmlns="http://www.w3.org/2000/svg"><g clip-path="url(#clip0_46_2)"><path d="M0 31.686V9.533h4.151v22.153H0zm3.669-5.222l-.187-4.856 11.68-12.075h4.67L10.12 19.787l-2.299 2.5-4.151 4.177zm11.898 5.222L6.99 21.608l2.776-3.01L20.46 31.686h-4.894zM37.725 32a13.183 13.183 0 01-4.8-.854 11.525 11.525 0 01-3.866-2.403 10.952 10.952 0 01-2.522-3.6 11.31 11.31 0 01-.892-4.508 11.433 11.433 0 01.892-4.542 10.805 10.805 0 012.522-3.602 11.601 11.601 0 013.835-2.387 13.15 13.15 0 014.815-.854 13.325 13.325 0 014.79.839 11.212 11.212 0 013.814 2.371 10.884 10.884 0 012.506 3.602 11.54 11.54 0 01.893 4.558 11.434 11.434 0 01-.893 4.543 11.098 11.098 0 01-6.32 5.988 13.32 13.32 0 01-4.774.849zm0-3.601a8.272 8.272 0 003.113-.571c.925-.36 1.767-.9 2.475-1.59a7.469 7.469 0 001.64-2.47 8.11 8.11 0 00.592-3.133 8.295 8.295 0 00-.576-3.143 7.166 7.166 0 00-1.64-2.47 7.555 7.555 0 00-2.49-1.646 8.272 8.272 0 00-3.114-.57 8.533 8.533 0 00-3.145.57c-.94.36-1.792.915-2.5 1.626a7.97 7.97 0 00-2.293 5.587 7.97 7.97 0 002.292 5.587 7.136 7.136 0 002.501 1.626 8.562 8.562 0 003.145.592v.005zm21.192 3.287V9.533h9.195a12.6 12.6 0 015.09.937 7.25 7.25 0 013.27 2.706 7.595 7.595 0 011.152 4.239 7.043 7.043 0 01-1.118 4.123 7.135 7.135 0 01-3.303 2.74 12.417 12.417 0 01-5.09.931H61.23l1.822-1.837v8.314h-4.136zm4.151-7.85l-1.837-1.992h6.674c1.826 0 3.207-.39 4.151-1.173a4.034 4.034 0 001.075-1.469c.24-.564.349-1.175.316-1.787a3.967 3.967 0 00-.315-1.784 4 4 0 00-1.076-1.463c-.924-.766-2.304-1.152-4.151-1.152H61.23l1.822-2.027.016 12.846zm10.467 7.85l-5.646-8.02h4.437l5.677 8.04-4.468-.02zm13.502 0V9.533h3.414l14.011 17.09h-1.692V9.534h4.089v22.153h-3.419l-13.98-17.09h1.692v17.09h-4.115zm34.788-3.483h12.609v3.483h-16.755V9.533h16.309v3.483h-12.163v15.187zm-.317-9.46h11.105v3.38h-11.105v-3.38zm26.491 9.46h12.604v3.483h-16.756V9.533h16.31v3.483h-12.158v15.187zm-.322-9.46h11.11v3.38h-11.11v-3.38zm28.633 12.943l-9.74-22.153h4.499l8.713 20.034h-2.595l8.869-20.034h4.12l-9.782 22.153h-4.084zm17.109 0L203.47 9.533h4.094l10.088 22.153h-4.38l-8.614-19.966h1.656l-8.65 19.966h-4.245zm4.623-5.145l1.152-3.225h12.034l1.116 3.226h-14.302z" fill="#BF3C52"/><path d="M238.865 31.686V9.533h3.415l14.01 17.09h-1.691V9.534h4.089v22.153h-3.415l-13.979-17.09h1.686v17.09h-4.115zm27.482 0l10.051-22.153h4.089l10.103 22.153h-4.369l-8.64-19.966h1.661l-8.651 19.966h-4.244zm4.628-5.145l1.147-3.225h12.034l1.115 3.226h-14.296zm27.222 5.145V14.678h4.152v17.008h-4.152zm14.971 0V9.533h4.151v18.67h11.671v3.483h-15.822z" fill="#201600"/><path d="M302.349 9.533h-4.152v4.116h4.152V9.533z" fill="#BF3C52"/><path d="M126.542 6.688h-4.671L128.098 0h4.671l-6.227 6.688z" fill="#201600"/></g><defs><clipPath id="clip0_46_2"><path fill="#fff" d="M0 0h329v32H0z"/></clipPath></defs></svg>