<svg width="186" height="86" fill="none" xmlns="http://www.w3.org/2000/svg"><path d="M13.79 54.301h-2.507l-8.357 8.395V54.3h-2.2v15.01h2.2v-3.886l2.825-2.791 5.884 6.676h2.573L7.22 61.062l6.57-6.76zM28.448 64.1c-.3.7-.719 1.311-1.253 1.834a5.638 5.638 0 01-1.892 1.21 6.395 6.395 0 01-2.364.43c-.865 0-1.66-.144-2.386-.43a5.754 5.754 0 01-1.903-1.21 5.57 5.57 0 01-1.265-1.834c-.3-.7-.45-1.465-.45-2.295 0-.828.15-1.593.45-2.293a5.571 5.571 0 011.265-1.834 5.769 5.769 0 011.903-1.21 6.456 6.456 0 012.386-.43c.85 0 1.638.143 2.364.43a5.638 5.638 0 011.892 1.21 5.655 5.655 0 011.253 1.834c.3.7.451 1.465.451 2.293 0 .83-.151 1.594-.451 2.295zm.33-7.794a7.86 7.86 0 00-2.595-1.608c-.99-.38-2.071-.569-3.244-.569-1.187 0-2.28.194-3.277.58a7.852 7.852 0 00-2.595 1.618 7.453 7.453 0 00-1.715 2.434c-.411.93-.617 1.944-.617 3.044 0 1.102.206 2.116.617 3.045.41.93.981 1.74 1.715 2.434a7.823 7.823 0 002.607 1.619c1.003.386 2.092.578 3.265.578s2.254-.188 3.244-.568a7.844 7.844 0 002.595-1.608 7.27 7.27 0 001.715-2.433c.404-.93.605-1.951.605-3.067 0-1.114-.201-2.136-.605-3.065a7.269 7.269 0 00-1.715-2.434zM40.4 62.92h-3.738v-6.754h3.739c1.408 0 2.474.294 3.2.88.726.586 1.088 1.415 1.088 2.487s-.362 1.905-1.088 2.498c-.726.593-1.792.89-3.2.89zm3.52 1.201c.953-.414 1.686-1.01 2.2-1.79.512-.78.768-1.711.768-2.798 0-1.086-.256-2.023-.769-2.81-.513-.785-1.246-1.385-2.2-1.8-.953-.414-2.103-.622-3.452-.622h-6.004v15.01h2.2v-4.568h3.804c.338 0 .664-.013.977-.039l3.312 4.606h2.396l-3.659-5.034c.143-.051.292-.096.426-.155m17.573 1.364l-9.237-11.184H50.45V69.31h2.2V58.127l9.237 11.183h1.803V54.3h-2.2v11.184zm9.017-2.886h7.72v-1.823h-7.72v-4.61h8.664v-1.864H68.31V69.31h11.173v-1.867H70.51V62.6zm7.279-12.307h-2.683l-2.991 2.788h1.98l3.694-2.788zm7.456 12.307h7.72v-1.823h-7.72v-4.61h8.664v-1.864H83.044V69.31h11.173v-1.867h-8.973V62.6zm23.487-8.298l-5.584 12.34-5.544-12.34h-2.375l6.774 15.01h2.177l6.752-15.01h-2.2zm6.071 9.542l3.32-7.365 3.319 7.365h-6.639zm2.243-9.541l-6.972 15.008h2.264l1.692-3.752h8.185l1.692 3.752h2.309l-6.993-15.008h-2.177zm28.413 11.183l-9.237-11.183h-1.803V69.31h2.199V58.126l9.237 11.185h1.804V54.3h-2.2v11.184zm9.216-1.642l3.32-7.366 3.32 7.366h-6.64zm2.242-9.541l-6.972 15.008h2.266l1.691-3.752h8.186l1.691 3.752h2.309l-6.994-15.008h-2.177zm11.458 15.008h2.2V54.301h-2.2v15.01zm9.017-1.865V54.302h-2.2V69.31h10.535v-1.865h-8.335zM29.177 83.652c-.508 0-.963-.11-1.363-.328a2.427 2.427 0 01-.944-.906 2.539 2.539 0 01-.342-1.32c0-.502.114-.943.342-1.325.228-.38.543-.679.944-.895.4-.216.855-.324 1.363-.324.437 0 .83.083 1.182.248.352.165.63.412.832.743l-.519.343a1.598 1.598 0 00-.655-.562 1.987 1.987 0 00-.85-.181c-.365 0-.694.082-.987.243a1.773 1.773 0 00-.694.68 2.01 2.01 0 00-.254 1.03c0 .394.084.738.254 1.03.17.292.4.519.694.68.294.163.622.244.988.244.305 0 .59-.06.85-.181.26-.12.479-.305.654-.553l.519.343c-.203.323-.48.57-.832.74a2.698 2.698 0 01-1.182.25zm4.271-.047v-4.593l.176.181h-2.121v-.591h4.584v.591h-2.121l.176-.181v4.593h-.694zm5.102.142l-2.365-5.145h.723l2.091 4.593-.449.552zM37.182 85.5c-.241 0-.47-.038-.69-.114a1.497 1.497 0 01-.561-.343l.323-.504c.13.12.271.214.425.281.152.067.324.1.513.1a.962.962 0 00.591-.186c.166-.124.324-.342.474-.653l.332-.734.079-.104 2.11-4.641h.685l-2.571 5.602a2.856 2.856 0 01-.474.773c-.173.19-.36.325-.562.405-.202.08-.426.118-.674.118zm8.66-2.22v-4.087h-2.473l-.06 1.114a20.58 20.58 0 01-.062.992c-.03.324-.079.62-.147.89a1.87 1.87 0 01-.288.658.69.69 0 01-.48.29l-.693-.123a.611.611 0 00.498-.214c.13-.15.232-.355.303-.615a5.44 5.44 0 00.157-.891c.032-.334.059-.675.078-1.025l.068-1.668h3.793v4.68h-.694zm-4.419 1.535v-1.801h5.914v1.801h-.655v-1.21h-4.604v1.21h-.655zm7.263-1.21v-5.003h.694v3.973l3.431-3.973h.616v5.003h-.694v-3.983l-3.421 3.983h-.626zm10.038-2.001v-2.611l.128.2h-1.633c-.475 0-.845.088-1.11.266-.263.178-.395.468-.395.867 0 .744.485 1.116 1.456 1.116h1.682l-.128.162zm0 2v-1.8l.128.142h-1.74c-.659 0-1.173-.139-1.544-.42-.372-.279-.558-.685-.558-1.219 0-.571.199-.999.596-1.281.398-.283.929-.424 1.594-.424h2.16v5.003h-.636zm-3.753 0l1.407-1.924h.724l-1.378 1.925h-.753zm8.924.001v-5.003h.694v2.21h3.236v-2.21h.694v5.003h-.694v-2.212h-3.236v2.212h-.694zm8.71-.553c.37 0 .7-.08.987-.243.287-.162.513-.391.679-.687a2.05 2.05 0 00.249-1.023c0-.395-.083-.737-.25-1.03a1.764 1.764 0 00-.678-.68 1.952 1.952 0 00-.978-.244c-.365 0-.691.081-.977.243a1.792 1.792 0 00-.684.681 2.01 2.01 0 00-.255 1.03c0 .387.085.728.255 1.023.169.296.397.525.684.687.286.162.609.243.968.243zm0 .6c-.496 0-.94-.11-1.334-.328a2.443 2.443 0 01-.935-.906 2.534 2.534 0 01-.341-1.32c0-.502.114-.943.341-1.325.228-.38.539-.678.93-.895.39-.216.836-.324 1.339-.324.507 0 .959.108 1.353.324a2.4 2.4 0 01.929.895c.224.382.337.823.337 1.326 0 .495-.113.935-.337 1.319a2.408 2.408 0 01-.933.906 2.756 2.756 0 01-1.35.328zm4.105-.047v-5.003h3.636v.591h-3.118l.175-.172v4.584h-.694zm5.737 0v-4.593l.176.181h-2.121v-.591h4.584v.591h-2.121l.176-.181v4.593h-.694zm5.611.047c-.535 0-1.004-.11-1.408-.328a2.428 2.428 0 01-.948-.906 2.53 2.53 0 01-.342-1.32c0-.495.109-.934.327-1.314a2.4 2.4 0 01.9-.902 2.54 2.54 0 011.285-.328c.482 0 .91.107 1.285.319.375.214.67.512.885.896a2.683 2.683 0 01.312 1.54h-4.467v-.506h4.096l-.273.2c0-.362-.08-.684-.24-.968a1.745 1.745 0 00-.65-.661 1.85 1.85 0 00-.948-.24c-.352 0-.668.08-.948.24a1.672 1.672 0 00-.655.666 2.012 2.012 0 00-.235.982v.105c0 .381.087.716.26 1.006.172.288.413.514.722.676.31.162.664.243 1.062.243.312 0 .603-.054.874-.163.27-.107.503-.272.699-.495l.391.439c-.228.266-.514.47-.855.61a2.96 2.96 0 01-1.13.209zm4.516-.581h1.632c.436 0 .767-.069.992-.204.225-.138.337-.358.337-.663 0-.306-.1-.527-.303-.667-.201-.14-.521-.21-.958-.21h-1.7v1.744zm0-2.25h1.544c.397 0 .702-.071.914-.219.211-.145.318-.358.318-.637 0-.28-.107-.49-.318-.63-.212-.14-.517-.209-.914-.209h-1.544v1.696zm-.674 2.783v-5.002h2.267c.58 0 1.037.108 1.373.324.336.216.504.533.504.953 0 .407-.16.719-.48.938-.319.22-.74.33-1.26.33l.136-.201c.614 0 1.063.11 1.35.334.286.222.43.542.43.962 0 .432-.162.767-.485 1.005-.322.238-.822.357-1.5.357H91.9zm8.053-.552c.371 0 .7-.08.988-.243.286-.162.512-.391.679-.687a2.05 2.05 0 00.248-1.023c0-.395-.082-.737-.248-1.03a1.775 1.775 0 00-.679-.68 1.958 1.958 0 00-.978-.244c-.365 0-.691.081-.978.243a1.795 1.795 0 00-.684.681 2.01 2.01 0 00-.254 1.03c0 .387.084.728.254 1.023.17.296.397.525.684.687.287.162.61.243.968.243zm0 .6c-.495 0-.94-.11-1.335-.328a2.446 2.446 0 01-.933-.906 2.533 2.533 0 01-.342-1.32c0-.502.114-.943.342-1.325a2.45 2.45 0 01.929-.895 2.727 2.727 0 011.34-.324c.507 0 .958.108 1.352.324.395.217.705.515.93.895.224.382.337.823.337 1.326 0 .495-.113.935-.337 1.319a2.409 2.409 0 01-.934.906 2.751 2.751 0 01-1.349.328zm4.105-.047v-5.003h3.636v.591h-3.118l.176-.172v4.584h-.694zm6.519-.553c.372 0 .701-.08.988-.243.286-.162.512-.391.679-.687a2.05 2.05 0 00.248-1.023c0-.395-.082-.737-.248-1.03a1.775 1.775 0 00-.679-.68 1.955 1.955 0 00-.978-.244c-.366 0-.69.081-.977.243a1.797 1.797 0 00-.685.681c-.17.293-.253.635-.253 1.03 0 .387.083.728.253 1.023a1.8 1.8 0 00.685.687c.287.162.608.243.967.243zm0 .6c-.495 0-.94-.11-1.334-.328a2.45 2.45 0 01-.934-.906 2.532 2.532 0 01-.342-1.32c0-.502.114-.943.342-1.325a2.46 2.46 0 01.93-.895c.39-.216.836-.324 1.338-.324.508 0 .959.108 1.354.324.394.217.704.515.929.895.225.382.337.823.337 1.326 0 .495-.112.935-.337 1.319a2.409 2.409 0 01-.934.906 2.75 2.75 0 01-1.349.328zm8.817 0c-.508 0-.964-.11-1.363-.328a2.436 2.436 0 01-.944-.906 2.538 2.538 0 01-.342-1.32c0-.502.114-.943.342-1.325.228-.38.543-.679.944-.895a2.826 2.826 0 011.363-.324c.436 0 .831.083 1.183.248.351.165.629.412.831.743l-.519.343a1.595 1.595 0 00-.655-.562 1.987 1.987 0 00-.85-.181c-.365 0-.693.082-.988.243a1.78 1.78 0 00-.693.68 2.01 2.01 0 00-.254 1.03c0 .394.084.738.254 1.03.169.292.401.519.693.68.295.163.623.244.988.244.306 0 .59-.06.85-.181.261-.12.48-.305.655-.553l.519.343c-.202.323-.48.57-.831.74a2.707 2.707 0 01-1.183.25zm5.464 0c-.534 0-1.003-.11-1.408-.328a2.426 2.426 0 01-.948-.906 2.538 2.538 0 01-.342-1.32c0-.495.109-.934.327-1.314.219-.382.519-.683.899-.902.382-.218.81-.328 1.286-.328.482 0 .91.107 1.286.319.374.214.669.512.884.896.215.385.323.827.323 1.33 0 .03-.003.064-.006.1a1.29 1.29 0 00-.004.11h-4.467v-.506h4.096l-.275.2a1.93 1.93 0 00-.239-.968 1.736 1.736 0 00-.65-.661 1.85 1.85 0 00-.948-.24c-.351 0-.668.08-.948.24a1.674 1.674 0 00-.655.666 2.019 2.019 0 00-.234.982v.105c0 .381.086.716.259 1.006.173.288.413.514.723.676.309.162.662.243 1.06.243.312 0 .605-.054.875-.163a1.79 1.79 0 00.699-.495l.391.439a2.21 2.21 0 01-.855.61 2.96 2.96 0 01-1.129.209zm6.442-.6c.364 0 .69-.08.977-.243.285-.162.515-.391.683-.687.171-.295.255-.636.255-1.023a1.98 1.98 0 00-.255-1.02 1.85 1.85 0 00-.683-.686 1.929 1.929 0 00-.977-.248c-.366 0-.694.083-.984.248a1.81 1.81 0 00-.684.686 2.03 2.03 0 00-.248 1.02c0 .386.082.728.248 1.023.167.296.394.525.684.687.29.162.618.243.984.243zm.047.6c-.442 0-.843-.1-1.202-.3a2.193 2.193 0 01-.854-.867c-.212-.377-.318-.84-.318-1.386 0-.547.104-1.01.313-1.388.208-.377.492-.665.85-.862a2.474 2.474 0 011.211-.295c.49 0 .928.107 1.316.32.386.212.692.511.913.895.222.385.333.827.333 1.33 0 .508-.111.952-.333 1.333-.221.382-.527.68-.913.896a2.66 2.66 0 01-1.316.323zm-2.648 1.802v-6.852h.665v1.505l-.069 1 .098 1.01v3.337h-.694zm7.38-2.383h1.632c.436 0 .768-.069.992-.204.225-.138.337-.358.337-.663 0-.306-.101-.527-.303-.667-.202-.14-.521-.21-.958-.21h-1.7v1.744zm0-2.25h1.543c.398 0 .703-.071.915-.219.212-.145.318-.358.318-.637 0-.28-.106-.49-.318-.63-.212-.14-.517-.209-.915-.209h-1.543v1.696zm-.674 2.783v-5.002h2.267c.58 0 1.038.108 1.373.324.336.216.504.533.504.953 0 .407-.161.719-.48.938-.319.22-.739.33-1.26.33l.136-.201c.614 0 1.063.11 1.349.334.287.222.43.542.43.962 0 .432-.16.767-.484 1.005-.322.238-.822.357-1.5.357h-2.335zm5.942.001v-5.003h.694v3.973l3.431-3.973h.615v5.003h-.694v-3.983l-3.42 3.983h-.626zm8.875.047a2.81 2.81 0 01-1.364-.328 2.44 2.44 0 01-.943-.906 2.547 2.547 0 01-.342-1.32c0-.502.115-.943.342-1.325.228-.38.543-.679.943-.895a2.836 2.836 0 011.364-.324c.437 0 .831.083 1.183.248.352.165.629.412.831.743l-.518.343a1.614 1.614 0 00-.655-.562 1.992 1.992 0 00-.851-.181c-.365 0-.694.082-.987.243a1.773 1.773 0 00-.693.68 2.01 2.01 0 00-.255 1.03c0 .394.085.738.255 1.03.169.292.4.519.693.68.293.163.622.244.987.244.307 0 .59-.06.851-.181.26-.12.478-.305.655-.553l.518.343a1.951 1.951 0 01-.831.74 2.704 2.704 0 01-1.183.25zm6.539-.047v-1.106l-.029-.181v-1.849c0-.424-.122-.753-.367-.98-.244-.23-.607-.344-1.09-.344a2.77 2.77 0 00-.948.162c-.3.108-.554.25-.762.428l-.313-.504c.26-.217.574-.383.938-.5a3.742 3.742 0 011.154-.177c.664 0 1.178.16 1.54.482.36.32.542.808.542 1.462v3.107h-.665zm-1.769.047c-.385 0-.718-.061-1.002-.185a1.483 1.483 0 01-.65-.515 1.31 1.31 0 01-.225-.758c0-.26.063-.497.19-.71.128-.212.336-.384.627-.515.289-.13.679-.195 1.168-.195h1.768v.505h-1.748c-.496 0-.84.086-1.032.258a.82.82 0 00-.288.638c0 .285.114.514.342.686.228.172.547.258.958.258.391 0 .727-.087 1.011-.263a1.5 1.5 0 00.621-.757l.156.467c-.13.33-.357.594-.678.791-.324.198-.73.295-1.218.295zm-42.73-72.255h-4.322v2.419l4.322 2.618v-5.037zM84.666 38.202h4.323v-8.507l-4.323-2.612v11.12z" fill="#fff"/><path d="M104.02.5h-6.203l-12.925 9.882 23.049 13.95v6.29l-29.43-17.768V.5h-4.32v37.703h4.32V17.076l33.752 20.395V22.718L91.446 10.112 104.02.5z" fill="#fff"/></svg>