<svg width="60" height="60" viewBox="0 0 60 60" fill="none" xmlns="http://www.w3.org/2000/svg">
<path d="M10.3816 56.7589H0.879258C0.393556 56.7589 0 56.3654 0 55.8797C0 55.394 0.393556 55.0004 0.879258 55.0004H10.3816C16.1521 55.0004 20.5251 54.3184 23.7503 52.9153C26.4673 51.7332 28.4431 50.0434 29.8773 47.6544H19.4194C16.0557 47.6544 13.4325 44.7974 13.0863 40.8945H0.879258C0.393556 40.8945 0 40.501 0 40.0153C0 39.5296 0.393556 39.136 0.879258 39.136H13.9267C18.1923 39.136 21.9282 37.6336 24.7305 34.7909L31.2171 28.1961L27.3907 24.3437C27.1858 24.1375 27.0962 23.8434 27.151 23.558C27.206 23.2726 27.3984 23.0328 27.6651 22.9172C28.4863 22.5617 29.2643 22.228 30.0052 21.9101C33.3989 20.4544 36.0795 19.3044 38.5509 17.909C38.9738 17.6706 39.5102 17.8195 39.7489 18.2424C39.9876 18.6653 39.8385 19.2016 39.4155 19.4404C36.8609 20.8829 34.1415 22.0493 30.6987 23.5263C30.3248 23.6866 29.9414 23.8511 29.548 24.0203L39.1776 33.7152C43.2964 24.2488 45.5477 19.8115 53.0376 12.3215L57.8016 7.55753C58.1029 7.25612 58.2627 6.839 58.2396 6.41297C58.2163 5.98131 58.0153 5.59233 57.6738 5.31753C57.0886 4.84695 56.1905 4.91823 55.6289 5.4799L50.865 10.2438C47.6164 13.4923 45.0436 15.7258 42.5226 17.486C42.1242 17.7642 41.5761 17.6667 41.2983 17.2685C41.0203 16.8704 41.1178 16.3222 41.5158 16.0442C43.9491 14.3454 46.4489 12.173 49.6213 9.00045L54.3851 4.23616C55.5925 3.02911 57.4799 2.90496 58.7756 3.94718C59.5008 4.53042 59.9454 5.39455 59.9952 6.31789C60.0451 7.24182 59.6988 8.14687 59.0449 8.8008L54.2807 13.5649C46.7118 21.1339 44.639 25.5256 40.2745 35.6043C40.1585 35.872 39.9174 36.0648 39.6307 36.119C39.3445 36.1727 39.0493 36.0816 38.8438 35.8746L34.9346 31.9389C33.8995 32.9877 31.3925 35.5232 28.432 38.4837C28.2074 38.7082 27.99 38.9257 27.7795 39.136H34.7255C35.8313 39.136 36.731 40.0346 36.7314 41.1391C36.7319 42.7692 36.2991 44.3029 35.5129 45.4578C34.6405 46.7389 33.4006 47.4816 31.9035 47.6277C28.6033 54.0212 22.123 56.7589 10.3816 56.7589ZM14.8542 40.8717C15.1442 43.4274 16.7352 45.8958 19.4193 45.8958H31.3277C31.3396 45.8955 31.3513 45.8955 31.3631 45.8958C32.5105 45.891 33.4174 45.4105 34.0594 44.4679C34.6404 43.6146 34.9734 42.4015 34.973 41.1395C34.973 41.0044 34.862 40.8943 34.7257 40.8943H26.0198C23.8124 43.0991 22.7808 44.1249 22.7675 44.1381C22.4232 44.4806 21.8664 44.479 21.5241 44.1346C21.1817 43.7901 21.1833 43.2334 21.5276 42.8912C21.5442 42.8748 23.1237 41.3042 26.5668 37.8618L25.3435 36.6384C22.5264 39.1937 18.859 40.6738 14.8542 40.8717ZM26.595 35.4029L27.8102 36.6182C30.5053 33.9195 32.7424 31.6567 33.6954 30.691L32.4565 29.4436L26.595 35.4029Z" fill="black"/>
<path d="M16.3742 13.4404L13.2492 11.7311L11.5399 8.60592C11.0998 7.80126 9.88405 7.7948 9.44037 8.60592L7.73113 11.7311L4.60592 13.4404C3.80126 13.8805 3.7948 15.0962 4.60592 15.5399L7.73113 17.2492L9.44037 20.3743C9.88046 21.1789 11.0962 21.1854 11.5399 20.3743L13.2492 17.2492L16.3742 15.5399C17.1788 15.0998 17.1854 13.8839 16.3742 13.4404ZM13.3066 14.4901L11.486 15.4858L10.4902 17.3065L9.49446 15.4858L7.67382 14.49L9.49446 13.4942L10.4902 11.6736L11.4861 13.4942L13.3066 14.4901Z" fill="black"/>
<path d="M53.3742 49.4404L50.2492 47.7311L48.5399 44.6059C48.0998 43.8013 46.884 43.7948 46.4404 44.6059L44.7311 47.7311L41.6059 49.4404C40.8013 49.8805 40.7948 51.0962 41.6059 51.5399L44.7311 53.2492L46.4404 56.3743C46.8805 57.1789 48.0962 57.1854 48.5399 56.3743L50.2492 53.2492L53.3742 51.5399C54.1788 51.0998 54.1854 49.8839 53.3742 49.4404ZM50.3066 50.4901L48.486 51.4858L47.4902 53.3065L46.4945 51.4858L44.6738 50.49L46.4945 49.4942L47.4902 47.6736L48.4861 49.4942L50.3066 50.4901Z" fill="black"/>
</svg>
