<svg width="60" height="60" viewBox="0 0 60 60" fill="none" xmlns="http://www.w3.org/2000/svg">
<g clip-path="url(#clip0_9_230)">
<path d="M46.5953 48.6256C46.0016 48.7109 45.5762 49.2469 45.5762 49.8466V58.8468C45.5762 60.3831 47.9693 60.3854 47.9693 58.8468V49.8093C47.9693 49.0903 47.3349 48.5193 46.5953 48.6256Z" fill="black"/>
<path d="M43.4106 13.9083C43.5211 11.7275 42.7534 9.65489 41.2489 8.07224C39.7445 6.48959 37.7134 5.61804 35.5297 5.61804H27.9218C25.7382 5.61804 23.7071 6.48959 22.2027 8.07224C20.0764 10.3087 19.9945 12.9919 20.1403 15.8717C16.7789 18.9996 14.8585 23.395 14.8585 27.9948V58.847C14.8585 60.3834 17.2515 60.3856 17.2515 58.847V27.9947C17.2515 24.7849 18.3455 21.6918 20.3093 19.2081L20.8228 29.3459C20.8395 35.3437 25.724 40.2177 31.7258 40.2177C37.7276 40.2177 42.6121 35.3437 42.6288 29.3459L43.1025 19.992C44.7107 22.3296 45.5762 25.0938 45.5762 27.9947V40.0226C45.5762 41.559 47.9693 41.5613 47.9693 40.0226V27.9947C47.9693 23.6465 46.3065 19.5606 43.2818 16.4532L43.4106 13.9083ZM41.0206 13.7872L40.2372 29.2541C40.2362 29.2742 40.2356 29.2945 40.2356 29.3147C40.2356 34.0071 36.4181 37.8246 31.7256 37.8246C27.0332 37.8246 23.2156 34.0071 23.2156 29.3147C23.2156 29.2945 23.2152 29.2744 23.2141 29.2541L22.4307 13.7872C22.3511 12.2149 22.9267 10.7231 24.0483 9.60703C25.0963 8.56413 26.5359 8.0111 28.0143 8.0111H35.4367C36.9152 8.0111 38.3547 8.56413 39.4027 9.60703C40.5246 10.7231 41.1001 12.2149 41.0206 13.7872Z" fill="black"/>
<path d="M59.1763 11.8334L56.0512 10.1242L54.342 6.99899C53.9019 6.19433 52.6861 6.18786 52.2424 6.99899L50.5332 10.1242L47.408 11.8334C46.6033 12.2735 46.5969 13.4893 47.408 13.933L50.5332 15.6422L52.2424 18.7673C52.6825 19.572 53.8983 19.5784 54.342 18.7673L56.0512 15.6422L59.1763 13.933C59.9809 13.4929 59.9874 12.277 59.1763 11.8334ZM56.1087 12.8832L54.288 13.8789L53.2923 15.6995L52.2965 13.8789L50.4759 12.883L52.2965 11.8873L53.2923 10.0666L54.2881 11.8873L56.1087 12.8832Z" fill="black"/>
<path d="M4.8609 7.07196L7.68363 8.61584L9.22739 11.4386C9.66747 12.2432 10.8833 12.2497 11.3269 11.4386L12.8708 8.61584L15.6935 7.07196C16.4982 6.63188 16.5047 5.41608 15.6935 4.97241L12.8708 3.42865L11.3269 0.605924C10.8869 -0.198741 9.67106 -0.205202 9.22739 0.605924L7.68363 3.42865L4.8609 4.97253C4.05623 5.4125 4.04977 6.62841 4.8609 7.07196ZM7.92868 6.02225L9.44695 5.19186L10.2773 3.67358L11.1077 5.19186L12.626 6.02213L11.1077 6.85252L10.2773 8.37079L9.44707 6.85252L7.92868 6.02225Z" fill="black"/>
<path d="M12.2632 33.8272L9.24438 32.176L7.59329 29.1572C7.15321 28.3525 5.93742 28.3461 5.49375 29.1572L3.84266 32.176L0.82382 33.8272C0.0191547 34.2673 0.0126934 35.4831 0.82382 35.9268L3.84266 37.5779L5.49375 40.5967C5.93371 41.4013 7.14974 41.4078 7.59329 40.5967L9.24438 37.5779L12.2632 35.9268C13.0678 35.4868 13.0743 34.2709 12.2632 33.8272ZM7.48106 35.8147L6.54334 37.5291L5.60586 35.8148L3.89148 34.8772L5.60598 33.9394L6.54346 32.2251L7.48106 33.9395L9.19544 34.8772L7.48106 35.8147Z" fill="black"/>
<path d="M45.6679 45.345C46.0705 46.3107 47.4867 46.3151 47.8834 45.3305C48.0082 45.0206 47.9967 44.6654 47.8495 44.3654C47.5321 43.7184 46.7565 43.5244 46.1833 43.8468C45.6644 44.1388 45.4391 44.7954 45.6679 45.345Z" fill="black"/>
<path d="M35.0002 48.9132C36.5366 48.9132 36.5389 46.5201 35.0002 46.5201H28.3344C26.798 46.5201 26.7958 48.9132 28.3344 48.9132H35.0002Z" fill="black"/>
<path d="M36.8714 51.4044H26.5801C25.0438 51.4044 25.0415 53.7975 26.5801 53.7975H36.8714C38.4077 53.7975 38.4099 51.4044 36.8714 51.4044Z" fill="black"/>
</g>
<defs>
<clipPath id="clip0_9_230">
<rect width="60" height="60" fill="white"/>
</clipPath>
</defs>
</svg>
