<svg width="60" height="60" viewBox="0 0 60 60" fill="none" xmlns="http://www.w3.org/2000/svg">
<path d="M26.6381 25.4737C25.5405 26.5711 24.052 27.1875 22.5 27.1875C20.9479 27.1875 19.4594 26.5711 18.3618 25.4737L17.5378 24.6497L16.2122 25.9753L17.0362 26.7993C17.7537 27.5169 18.6055 28.086 19.543 28.4743C20.4805 28.8627 21.4853 29.0625 22.5 29.0625C23.5147 29.0625 24.5195 28.8627 25.4569 28.4743C26.3944 28.086 27.2462 27.5169 27.9637 26.7993L28.7878 25.9753L27.4622 24.6497L26.6381 25.4737Z" fill="black"/>
<path d="M17.8125 19.1381L19.0247 20.3503L20.3503 19.0246L19.1381 17.8125C18.528 17.2313 17.7176 16.9071 16.875 16.9071C16.0323 16.9071 15.222 17.2313 14.6118 17.8125L13.3997 19.0246L14.7253 20.3503L15.9375 19.1381C16.1918 18.9005 16.5269 18.7684 16.875 18.7684C17.223 18.7684 17.5581 18.9005 17.8125 19.1381Z" fill="black"/>
<path d="M25.8618 17.8125L24.6497 19.0246L25.9753 20.3503L27.1875 19.1381C27.4418 18.9005 27.7769 18.7684 28.125 18.7684C28.473 18.7684 28.8081 18.9005 29.0625 19.1381L30.2747 20.3503L31.6003 19.0246L30.3881 17.8125C29.778 17.2313 28.9676 16.9071 28.125 16.9071C27.2823 16.9071 26.472 17.2313 25.8618 17.8125Z" fill="black"/>
<path d="M58.3528 6.59059C57.3369 6.33465 56.3958 5.84193 55.6067 5.1527C54.8176 4.46347 54.2028 3.5973 53.8125 2.62497L53.3738 1.52622C53.3044 1.35195 53.1842 1.20251 53.029 1.09723C52.8737 0.991947 52.6904 0.935669 52.5028 0.935669C52.3152 0.935669 52.132 0.991947 51.9767 1.09723C51.8214 1.20251 51.7013 1.35195 51.6319 1.52622L51.1875 2.62497C50.797 3.59762 50.1817 4.464 49.3921 5.15325C48.6025 5.84251 47.6609 6.33505 46.6444 6.59059C46.4417 6.6414 46.2618 6.75848 46.1332 6.92324C46.0046 7.088 45.9348 7.29099 45.9348 7.49997C45.9348 7.70895 46.0046 7.91194 46.1332 8.0767C46.2618 8.24146 46.4417 8.35854 46.6444 8.40934C47.6609 8.66489 48.6025 9.15743 49.3921 9.84669C50.1817 10.5359 50.797 11.4023 51.1875 12.375L51.6263 13.4737C51.6957 13.648 51.8158 13.7974 51.9711 13.9027C52.1263 14.008 52.3096 14.0643 52.4972 14.0643C52.6848 14.0643 52.8681 14.008 53.0234 13.9027C53.1786 13.7974 53.2987 13.648 53.3682 13.4737L53.8125 12.375C54.2031 11.4023 54.8183 10.5359 55.608 9.84669C56.3976 9.15743 57.3392 8.66489 58.3557 8.40934C58.5584 8.35854 58.7383 8.24146 58.8669 8.0767C58.9954 7.91194 59.0652 7.70895 59.0652 7.49997C59.0652 7.29099 58.9954 7.088 58.8669 6.92324C58.7383 6.75848 58.5584 6.6414 58.3557 6.59059H58.3528ZM52.5 10.7634C51.7578 9.40879 50.662 8.28091 49.3294 7.49997C50.662 6.71903 51.7578 5.59115 52.5 4.23653C53.2422 5.59115 54.338 6.71903 55.6707 7.49997C54.338 8.28091 53.2422 9.40879 52.5 10.7634Z" fill="black"/>
<path d="M52.4999 19.6875C52.5 19.5133 52.4516 19.3425 52.36 19.1943C52.2684 19.046 52.1373 18.9263 51.9815 18.8484L50.8837 18.3C50.1517 17.9367 49.4992 17.4317 48.9638 16.8144C48.4284 16.1971 48.0208 15.4797 47.7646 14.7037C47.703 14.5162 47.5837 14.3528 47.4238 14.2371C47.2638 14.1213 47.0714 14.059 46.874 14.059C46.6766 14.059 46.4842 14.1213 46.3242 14.2371C46.1643 14.3528 46.045 14.5162 45.9834 14.7037C45.7272 15.4797 45.3197 16.1971 44.7843 16.8144C44.2488 17.4317 43.5963 17.9367 42.8643 18.3L41.7665 18.8484C41.6105 18.9262 41.4793 19.0459 41.3875 19.1941C41.2958 19.3423 41.2472 19.5132 41.2472 19.6875C41.2472 19.8618 41.2958 20.0326 41.3875 20.1809C41.4793 20.3291 41.6105 20.4488 41.7665 20.5265L42.8643 21.075C43.5963 21.4383 44.2488 21.9432 44.7843 22.5605C45.3197 23.1778 45.7272 23.8953 45.9834 24.6712C46.045 24.8588 46.1643 25.0221 46.3242 25.1379C46.4842 25.2537 46.6766 25.316 46.874 25.316C47.0714 25.316 47.2638 25.2537 47.4238 25.1379C47.5837 25.0221 47.703 24.8588 47.7646 24.6712C48.0208 23.8953 48.4284 23.1778 48.9638 22.5605C49.4992 21.9432 50.1517 21.4383 50.8837 21.075L51.9815 20.5265C52.1373 20.4487 52.2684 20.3289 52.36 20.1807C52.4516 20.0325 52.5 19.8617 52.4999 19.6875ZM46.8749 22.2253C46.2023 21.1872 45.2988 20.3186 44.2349 19.6875C45.2988 19.0563 46.2023 18.1878 46.8749 17.1497C47.5476 18.1878 48.4511 19.0563 49.5149 19.6875C48.4511 20.3186 47.5476 21.1872 46.8749 22.2253Z" fill="black"/>
<path d="M1.875 59.0624H43.125C43.3736 59.0624 43.6121 58.9636 43.7879 58.7878C43.9637 58.612 44.0625 58.3735 44.0625 58.1249V45.9374C44.0604 44.368 43.6205 42.8302 42.7925 41.497C41.9644 40.1638 40.7809 39.088 39.375 38.3905V9.37488C39.3723 7.13795 38.4824 4.99343 36.9007 3.41168C35.319 1.82993 33.1744 0.940107 30.9375 0.937378H14.0625C11.8256 0.940107 9.68105 1.82993 8.0993 3.41168C6.51755 4.99343 5.62773 7.13795 5.625 9.37488V38.3905C4.2191 39.088 3.0356 40.1638 2.20753 41.497C1.37946 42.8302 0.939638 44.368 0.9375 45.9374V58.1249C0.9375 58.3735 1.03627 58.612 1.21209 58.7878C1.3879 58.9636 1.62636 59.0624 1.875 59.0624ZM9.375 44.9999V39.3749H11.25V42.1874C11.25 42.436 11.3488 42.6745 11.5246 42.8503C11.7004 43.0261 11.9389 43.1249 12.1875 43.1249H13.125V57.1874H7.5V48.0936L9.2175 45.5174C9.3194 45.364 9.37416 45.1841 9.375 44.9999ZM34.6875 19.6874H35.625C36.1223 19.6874 36.5992 19.8849 36.9508 20.2366C37.3025 20.5882 37.5 21.0651 37.5 21.5624C37.5 22.0597 37.3025 22.5366 36.9508 22.8882C36.5992 23.2398 36.1223 23.4374 35.625 23.4374H34.6875C34.5003 23.4374 34.3174 23.4935 34.1623 23.5985C34.0072 23.7034 33.8871 23.8523 33.8175 24.0261L33.2128 25.5355C32.4643 27.4068 31.1723 29.0108 29.5034 30.1408C27.8346 31.2708 25.8654 31.8748 23.85 31.8749H21.15C19.1345 31.8747 17.1652 31.2707 15.4962 30.1407C13.8272 29.0108 12.535 27.4068 11.7862 25.5355L11.1825 24.0261C11.1129 23.8523 10.9928 23.7034 10.8377 23.5985C10.6826 23.4935 10.4997 23.4374 10.3125 23.4374H9.375C8.87772 23.4374 8.40081 23.2398 8.04918 22.8882C7.69754 22.5366 7.5 22.0597 7.5 21.5624C7.5 21.0651 7.69754 20.5882 8.04918 20.2366C8.40081 19.8849 8.87772 19.6874 9.375 19.6874H10.3125C10.5611 19.6874 10.7996 19.5886 10.9754 19.4128C11.1512 19.237 11.25 18.9985 11.25 18.7499V14.9999H13.1831C15.3121 15.0003 17.3991 14.4078 19.2103 13.2887C21.0215 12.1697 22.4852 10.5684 23.4375 8.66425L23.8041 7.93113L33.75 14.5639V18.7499C33.75 18.9985 33.8488 19.237 34.0246 19.4128C34.2004 19.5886 34.4389 19.6874 34.6875 19.6874ZM21.15 33.7499H23.85C24.3589 33.7481 24.8671 33.7136 25.3716 33.6468C25.5755 35.2283 26.3478 36.6816 27.5445 37.7356C28.7411 38.7896 30.2804 39.3723 31.875 39.3749V41.2499H13.125V39.3749C14.7196 39.3723 16.2589 38.7896 17.4555 37.7356C18.6522 36.6816 19.4245 35.2283 19.6284 33.6468C20.1329 33.7136 20.6411 33.7481 21.15 33.7499ZM35.7825 45.5202L37.5 48.0936V57.1874H31.875V43.1249H32.8125C33.0611 43.1249 33.2996 43.0261 33.4754 42.8503C33.6512 42.6745 33.75 42.436 33.75 42.1874V39.3749H35.625V44.9999C35.6253 45.185 35.6801 45.366 35.7825 45.5202ZM20.2688 53.6127C20.9113 54.1069 21.6992 54.3749 22.5098 54.3749C23.3205 54.3749 24.1084 54.1069 24.7509 53.6127L25.1981 57.1874H19.8216L20.2688 53.6127ZM20.6372 50.7064L21.4041 46.8749H23.6166L24.3834 50.7083C24.3834 51.2056 24.1859 51.6825 23.8343 52.0341C23.4826 52.3858 23.0057 52.5833 22.5084 52.5833C22.0112 52.5833 21.5342 52.3858 21.1826 52.0341C20.831 51.6825 20.6334 51.2056 20.6334 50.7083L20.6372 50.7064ZM26.25 50.5086C26.25 50.4852 26.25 50.4627 26.2434 50.4402L25.3059 45.7527C25.2627 45.5409 25.1477 45.3506 24.9802 45.2139C24.8128 45.0773 24.6033 45.0026 24.3872 45.0027H20.6372C20.4209 45.0024 20.2112 45.077 20.0436 45.2136C19.876 45.3503 19.7608 45.5408 19.7175 45.7527L18.78 50.4402C18.7753 50.4627 18.78 50.4852 18.7734 50.5086L17.9325 57.1874H15V43.1249H30V57.1874H27.0872L26.25 50.5086ZM42.1875 45.9374V57.1874H39.375V47.8124C39.3747 47.6272 39.3199 47.4463 39.2175 47.2921L37.5 44.7186V39.6561C38.8524 40.0607 40.0385 40.8901 40.8827 42.0214C41.727 43.1527 42.1845 44.5258 42.1875 45.9374ZM35.625 37.4999H31.875C30.7128 37.4962 29.5937 37.06 28.7355 36.2763C27.8773 35.4926 27.3415 34.4176 27.2325 33.2605C28.9678 32.7493 30.5643 31.8509 31.9018 30.6329C33.2393 29.4149 34.2829 27.9092 34.9538 26.2293L35.3222 25.3124H35.625C36.2852 25.3085 36.9325 25.1286 37.5 24.7911V37.7174C36.8851 37.5747 36.2562 37.5018 35.625 37.4999ZM14.0625 2.81238H30.9375C32.6774 2.81436 34.3454 3.5064 35.5757 4.73668C36.806 5.96696 37.498 7.635 37.5 9.37488V18.3336C36.9325 17.9962 36.2852 17.8163 35.625 17.8124V14.0624C35.625 13.9081 35.587 13.7561 35.5142 13.6201C35.4414 13.484 35.3362 13.368 35.2078 13.2824L23.9578 5.78238C23.8472 5.7085 23.7221 5.65902 23.5908 5.63722C23.4596 5.61543 23.3252 5.62181 23.1966 5.65595C23.0681 5.69009 22.9482 5.75121 22.8451 5.83524C22.7419 5.91927 22.6579 6.02429 22.5984 6.14332L21.7547 7.83082C20.9579 9.42168 19.7341 10.7594 18.2203 11.6944C16.7065 12.6294 14.9624 13.1247 13.1831 13.1249H10.3125C10.0639 13.1249 9.8254 13.2236 9.64959 13.3995C9.47377 13.5753 9.375 13.8137 9.375 14.0624V17.8124C8.71476 17.8163 8.06751 17.9962 7.5 18.3336V9.37488C7.50199 7.635 8.19403 5.96696 9.4243 4.73668C10.6546 3.5064 12.3226 2.81436 14.0625 2.81238ZM7.5 24.7911C8.06751 25.1286 8.71476 25.3085 9.375 25.3124H9.67781L10.0462 26.2321C10.7171 27.912 11.7607 29.4178 13.0982 30.6357C14.4357 31.8537 16.0322 32.7522 17.7675 33.2633C17.6579 34.4199 17.1218 35.4942 16.2637 36.2773C15.4055 37.0604 14.2867 37.4962 13.125 37.4999H9.375C8.74382 37.5018 8.11486 37.5747 7.5 37.7174V24.7911ZM2.8125 45.9374C2.8155 44.5258 3.273 43.1527 4.11726 42.0214C4.96151 40.8901 6.14763 40.0607 7.5 39.6561V44.7186L5.7825 47.2921C5.68007 47.4463 5.62529 47.6272 5.625 47.8124V57.1874H2.8125V45.9374Z" fill="black"/>
</svg>
