<svg width="60" height="64" viewBox="0 0 60 64" fill="none" xmlns="http://www.w3.org/2000/svg">
<g clip-path="url(#clip0_9_107)">
<path d="M43.0861 56.6002C42.6502 56.6002 42.2304 56.5353 41.8484 56.406C41.0637 56.14 40.4673 55.6099 40.128 54.8886C37.6232 54.0742 35.3534 50.5683 33.8448 45.1396L31.8521 37.9693L27.462 32.3529L31.6433 47.3992C31.644 47.4015 31.6446 47.4037 31.6453 47.4061C31.6459 47.4083 31.6465 47.4105 31.6472 47.4128L33.6565 54.6429C33.8698 55.4103 33.4195 56.2084 32.6525 56.4221C31.779 56.665 30.8865 56.6594 30.1389 56.4061C29.3541 56.1401 28.7577 55.61 28.4186 54.8887C25.9139 54.0741 23.6436 50.5673 22.1352 45.1397L21.5093 42.8875C21.3795 42.4199 21.6532 41.9353 22.1209 41.8053C22.5885 41.6754 23.073 41.9494 23.203 42.417L23.8289 44.6692C24.9772 48.8013 26.4059 51.2244 27.6829 52.4071L27.5796 52.036C27.2761 50.9437 27.4132 49.8006 27.9656 48.817C28.3798 48.0799 28.9943 47.4943 29.74 47.1144L25.3416 31.2872C25.1551 30.6164 25.4591 29.9289 26.0807 29.6152C26.7025 29.3013 27.4359 29.4655 27.865 30.0138L33.3451 37.0244C33.416 37.1153 33.4686 37.2193 33.4995 37.3304L35.5389 44.6689C36.2641 47.2792 37.1929 49.4668 38.2243 50.9957C38.6041 51.5585 38.9973 52.0291 39.3896 52.396L39.2896 52.0357C38.7411 50.0621 39.6908 48.0081 41.449 47.1111L40.4738 43.602C40.4719 43.5953 40.4702 43.5892 40.4682 43.5824C40.468 43.5814 40.4678 43.5804 40.4674 43.5796L38.043 34.8558L31.0066 25.8446C30.7078 25.462 30.7758 24.9096 31.1584 24.611C31.5413 24.3123 32.0934 24.3803 32.392 24.7628L39.5358 33.9114C39.6067 34.0022 39.6591 34.106 39.6899 34.217L42.167 43.1305C42.891 45.7302 43.8168 47.9096 44.8447 49.4345C45.2254 49.9991 45.6193 50.4712 46.0127 50.8389L45.9127 50.4787C45.3647 48.5068 46.3123 46.4545 48.0674 45.5565C48.0232 45.428 47.9879 45.2955 47.9617 45.1594L44.2309 31.7387L38.3227 24.1723C36.8848 22.3311 36.0398 20.0576 35.9196 17.7271L34.2711 17.0017C33.8268 16.8062 33.6251 16.2875 33.8205 15.8433C34.0161 15.399 34.5347 15.1976 34.9791 15.3927L50.5076 22.226C52.0597 22.9089 53.0626 24.4458 53.0626 26.1416V46.2598C53.0626 47.0565 52.4149 47.7048 51.6188 47.7052C51.6182 47.7052 51.6176 47.7052 51.617 47.7052C51.2156 47.7052 50.8237 47.6572 50.4551 47.5652L51.9896 53.0853C52.2028 53.8534 51.7523 54.6514 50.9854 54.8647C50.1123 55.1076 49.2197 55.102 48.472 54.8487C47.6873 54.5827 47.091 54.0527 46.7517 53.3314C46.0139 53.0914 45.2965 52.6179 44.6128 51.9306L45.3667 54.6428C45.58 55.4102 45.1296 56.2084 44.3625 56.422C43.9349 56.5407 43.5032 56.6002 43.0861 56.6002ZM30.2273 48.8687C29.9285 49.0801 29.6797 49.3542 29.498 49.6777C29.1746 50.2532 29.0948 50.9235 29.2731 51.565L29.9263 53.9151C30.0439 54.3389 30.2906 54.6013 30.7027 54.741C31.0342 54.8534 31.449 54.8719 31.8749 54.7976L30.2273 48.8687ZM41.9362 48.8658C41.1091 49.4565 40.6951 50.5295 40.9829 51.5651L41.636 53.9154C41.7538 54.339 42.0005 54.6014 42.4125 54.7411C42.7438 54.8535 43.1588 54.872 43.5847 54.7977L41.9362 48.8658ZM48.559 47.3089C47.7321 47.8997 47.3183 48.9724 47.606 50.0079L48.2591 52.3581C48.377 52.7819 48.6236 53.0443 49.0356 53.1839C49.3671 53.2964 49.782 53.3148 50.2079 53.2405L48.559 47.3089ZM51.3045 39.7757C50.3496 40.1234 49.6636 41.0461 49.6635 42.1208L49.6632 44.5601C49.6632 45 49.8306 45.319 50.1901 45.5637C50.4795 45.7609 50.8741 45.8897 51.3045 45.9322V39.7757ZM37.7643 18.5387C38.0072 20.1896 38.6777 21.7711 39.7078 23.0902L45.7234 30.7942C45.7943 30.885 45.8467 30.9888 45.8774 31.0997L48.3927 40.1477C48.9783 39.036 50.0414 38.2112 51.3045 37.9541V26.1414C51.3045 25.1425 50.7137 24.237 49.7993 23.8346L37.7643 18.5387ZM12.5864 44.9142C11.1326 44.9142 9.94969 43.7313 9.94969 42.2775C9.94969 40.8237 11.1326 39.6408 12.5864 39.6408C14.0402 39.6408 15.2231 40.8237 15.2231 42.2775C15.2231 43.7313 14.0404 44.9142 12.5864 44.9142ZM12.5864 41.3986C12.1017 41.3986 11.7075 41.7928 11.7075 42.2775C11.7075 42.7622 12.1017 43.1564 12.5864 43.1564C13.0711 43.1564 13.4653 42.7622 13.4653 42.2775C13.4653 41.7928 13.0711 41.3986 12.5864 41.3986ZM3.22266 43.1433C2.73715 43.1433 2.34375 42.7499 2.34375 42.2644V39.6277H0.878906C0.393398 39.6277 0 39.2343 0 38.7487C0 38.2632 0.393398 37.8698 0.878906 37.8698H2.34375V35.2331C2.34375 34.7476 2.73715 34.3542 3.22266 34.3542C3.70816 34.3542 4.10156 34.7476 4.10156 35.2331V37.8698H5.56641C6.05191 37.8698 6.44531 38.2632 6.44531 38.7487C6.44531 39.2343 6.05191 39.6277 5.56641 39.6277H4.10156V42.2644C4.10156 42.7498 3.70816 43.1433 3.22266 43.1433ZM21.3986 40.0873C21.0136 40.0873 20.6603 39.8324 20.5521 39.4434L18.7139 32.8287L6.61512 27.5048C2.59652 25.7365 0 21.757 0 17.3666C0 16.8811 0.393398 16.4877 0.878906 16.4877C1.36441 16.4877 1.75781 16.8811 1.75781 17.3666C1.75781 21.0602 3.94242 24.4082 7.32305 25.8957L19.8032 31.3875C20.0446 31.4936 20.2255 31.7025 20.2961 31.9566L22.2458 38.9727C22.3757 39.4403 22.1019 39.9248 21.6342 40.0548C21.5556 40.0768 21.4764 40.0873 21.3986 40.0873ZM14.3442 27.2864C13.8587 27.2864 13.4653 26.893 13.4653 26.4075V23.7708H12.0005C11.515 23.7708 11.1216 23.3774 11.1216 22.8919C11.1216 22.4064 11.515 22.013 12.0005 22.013H13.4653V19.3762C13.4653 18.8907 13.8587 18.4973 14.3442 18.4973C14.8297 18.4973 15.2231 18.8907 15.2231 19.3762V22.013H16.688C17.1735 22.013 17.5669 22.4064 17.5669 22.8919C17.5669 23.3774 17.1735 23.7708 16.688 23.7708H15.2231V26.4075C15.2231 26.893 14.8297 27.2864 14.3442 27.2864ZM31.121 15.5346C31.0028 15.5346 30.8827 15.5106 30.7675 15.46L10.03 6.33445C8.34598 5.59359 6.55934 5.21789 4.71984 5.21789H0.878906C0.393398 5.21789 0 4.82449 0 4.33898C0 3.85347 0.393398 3.46008 0.878906 3.46008H4.71984C6.80449 3.46008 8.82926 3.88594 10.7379 4.72558L31.4755 13.851C31.9199 14.0466 32.1216 14.5652 31.9261 15.0095C31.7811 15.3386 31.4589 15.5346 31.121 15.5346ZM43.5673 12.8077C42.1134 12.8077 40.9305 11.6248 40.9305 10.1709C40.9305 8.71711 42.1134 7.53422 43.5673 7.53422C45.0211 7.53422 46.204 8.71711 46.204 10.1709C46.204 11.6248 45.0212 12.8077 43.5673 12.8077ZM43.5673 9.29203C43.0826 9.29203 42.6884 9.68625 42.6884 10.1709C42.6884 10.6556 43.0826 11.0498 43.5673 11.0498C44.052 11.0498 44.4462 10.6556 44.4462 10.1709C44.4462 9.68625 44.052 9.29203 43.5673 9.29203ZM56.7773 12.1889C56.2918 12.1889 55.8984 11.7955 55.8984 11.31V8.67328H54.4336C53.9481 8.67328 53.5547 8.27988 53.5547 7.79437C53.5547 7.30886 53.9481 6.91547 54.4336 6.91547H55.8984V4.27875C55.8984 3.79324 56.2918 3.39984 56.7773 3.39984C57.2629 3.39984 57.6562 3.79324 57.6562 4.27875V6.91547H59.1211C59.6066 6.91547 60 7.30886 60 7.79437C60 8.27988 59.6066 8.67328 59.1211 8.67328H57.6562V11.31C57.6562 11.7955 57.2629 12.1889 56.7773 12.1889Z" fill="black"/>
</g>
<defs>
<clipPath id="clip0_9_107">
<rect width="60" height="64" fill="white"/>
</clipPath>
</defs>
</svg>
