<svg width="60" height="60" viewBox="0 0 60 60" fill="none" xmlns="http://www.w3.org/2000/svg">
<g clip-path="url(#clip0_9_173)">
<path d="M49.5078 57.8623C49.3267 57.8623 49.1434 57.8463 48.9591 57.8134C48.1417 57.6673 47.4304 57.2115 46.9558 56.5303C46.9472 56.5181 46.9387 56.5057 46.9303 56.4934C46.9181 56.5021 46.906 56.5107 46.8937 56.5193C46.2124 56.9939 45.3872 57.1748 44.5698 57.0286C43.7104 56.8747 42.9962 56.3796 42.5424 55.7077C42.5298 55.7166 42.5172 55.7255 42.5045 55.7345C41.8233 56.2092 40.9984 56.3902 40.1806 56.2437C39.3634 56.0975 38.652 55.6418 38.1774 54.9606C38.1686 54.9479 38.1599 54.9352 38.1511 54.9224C37.4924 55.3954 36.6507 55.6123 35.7916 55.4588C34.3197 55.1956 33.2742 53.9306 33.2315 52.492L21.8862 45.8812C21.4668 45.6367 21.3249 45.0986 21.5694 44.6792C21.8137 44.26 22.3518 44.1182 22.7712 44.3623L34.5868 51.2472C34.9055 51.433 35.0744 51.7981 35.0093 52.1613C34.8783 52.8943 35.3681 53.5974 36.1009 53.7285C36.8334 53.86 37.537 53.3698 37.6681 52.6368C37.8576 51.5773 37.6231 50.5072 37.0077 49.624C36.7304 49.2257 36.8283 48.678 37.2265 48.4005C37.625 48.1231 38.1726 48.221 38.4501 48.6192C39.3337 49.8878 39.6705 51.4245 39.3984 52.9464C39.3982 52.9472 39.3981 52.9479 39.3979 52.9487C39.3352 53.303 39.4138 53.6608 39.6196 53.9562C39.8259 54.2521 40.1348 54.4501 40.49 54.5136C40.8454 54.5768 41.2036 54.4985 41.4996 54.2924C41.7955 54.0861 41.9936 53.7772 42.0571 53.422C42.2972 52.0798 42.0918 50.7331 41.4631 49.5273C41.2387 49.0969 41.4057 48.566 41.8361 48.3416C42.2661 48.1173 42.7973 48.284 43.0218 48.7146C43.8314 50.2674 44.0965 52.001 43.7881 53.7286C43.7878 53.7297 43.7877 53.7306 43.7875 53.7315C43.6565 54.4645 44.1462 55.1675 44.8792 55.2987C45.2341 55.3622 45.5928 55.2837 45.8888 55.0774C46.1847 54.8712 46.3827 54.5622 46.4462 54.207C46.7339 52.5982 46.5258 50.9667 45.8441 49.4887C45.6409 49.0479 45.8333 48.5257 46.2742 48.3225C46.7148 48.1193 47.2371 48.3117 47.4403 48.7526C48.2733 50.5587 48.528 52.5519 48.1765 54.5165C48.1764 54.5172 48.1763 54.518 48.1762 54.5187C48.1133 54.8731 48.192 55.2307 48.3978 55.5263C48.604 55.8222 48.913 56.0202 49.2682 56.0837C50.0009 56.215 50.7042 55.7251 50.8354 54.992C51.1702 53.1192 50.9615 51.2062 50.2317 49.4597C50.0445 49.0119 50.2559 48.497 50.7038 48.3099C51.1512 48.1224 51.6665 48.334 51.8536 48.7819C52.4578 50.2279 52.7593 51.7703 52.7485 53.3248L53.6283 53.8328C54.396 54.276 55.2879 54.3852 56.1397 54.1406C56.9823 53.8988 57.6752 53.3411 58.0932 52.5688C58.4208 51.8204 58.1817 50.8456 57.5652 50.4128L56.8573 50.004C51.5958 46.9662 46.994 42.7155 43.5493 37.7112C43.274 37.3114 43.3751 36.7641 43.7748 36.4888C44.1747 36.2133 44.7221 36.3147 44.9972 36.7144C48.2946 41.5048 52.6997 45.5739 57.7361 48.4818L58.4733 48.9074C58.4906 48.9174 58.5076 48.9279 58.5243 48.9392C59.8792 49.8497 60.3878 51.7746 59.6824 53.3215C59.675 53.3376 59.6673 53.3533 59.659 53.3688C59.0167 54.5789 57.939 55.4531 56.6248 55.8304C55.3102 56.2079 53.9338 56.0392 52.7496 55.3553L52.5744 55.2542C52.5716 55.2701 52.5688 55.2859 52.566 55.3017C52.2972 56.8037 50.9838 57.8623 49.5078 57.8623ZM3.22277 52.5857C2.73738 52.5857 2.34387 52.1923 2.34387 51.7068V49.0701H0.879026C0.393636 49.0701 0.000121588 48.6767 0.000121588 48.1912C0.000121588 47.7057 0.393636 47.3123 0.879026 47.3123H2.34387V44.6755C2.34387 44.19 2.73738 43.7966 3.22277 43.7966C3.70816 43.7966 4.10168 44.19 4.10168 44.6755V47.3123H5.56652C6.05191 47.3123 6.44542 47.7057 6.44542 48.1912C6.44542 48.6767 6.05191 49.0701 5.56652 49.0701H4.10168V51.7068C4.10168 52.1923 3.70816 52.5857 3.22277 52.5857ZM14.1572 49.1953C12.7032 49.1953 11.5204 48.0124 11.5204 46.5586C11.5204 45.1048 12.7032 43.9219 14.1572 43.9219C15.6111 43.9219 16.7939 45.1048 16.7939 46.5586C16.7939 48.0124 15.6111 49.1953 14.1572 49.1953ZM14.1572 45.6797C13.6725 45.6797 13.2783 46.0739 13.2783 46.5586C13.2783 47.0433 13.6725 47.4375 14.1572 47.4375C14.6418 47.4375 15.0361 47.0433 15.0361 46.5586C15.0361 46.0739 14.6418 45.6797 14.1572 45.6797ZM19.4635 44.3312C19.3133 44.3312 19.1611 44.2927 19.0218 44.2116L8.57178 38.1223C6.38894 36.8504 4.8457 34.7015 4.33781 32.2266C3.82992 29.7517 4.40203 27.1687 5.90753 25.1398L9.69221 20.0393L0.117895 3.45621C-0.1248 3.03586 0.0192231 2.49832 0.439574 2.25562C0.859924 2.01305 1.39746 2.15684 1.64016 2.5773L11.5031 19.6602C11.6783 19.9636 11.6565 20.342 11.4478 20.6233L7.31929 26.1873C6.11144 27.8152 5.65241 29.8876 6.05988 31.8733C6.46745 33.8588 7.70554 35.583 9.4569 36.6034L19.907 42.6927C20.3264 42.9372 20.4683 43.4753 20.2238 43.8947C20.0605 44.1749 19.766 44.3312 19.4635 44.3312ZM35.9022 41.7132C35.4167 41.7132 35.0233 41.3198 35.0233 40.8343V38.1975H33.5584C33.0729 38.1975 32.6795 37.8041 32.6795 37.3186C32.6795 36.8331 33.0729 36.4397 33.5584 36.4397H35.0233V33.803C35.0233 33.3175 35.4167 32.9241 35.9022 32.9241C36.3877 32.9241 36.7811 33.3175 36.7811 33.803V36.4397H38.2459C38.7314 36.4397 39.1248 36.8331 39.1248 37.3186C39.1248 37.8041 38.7314 38.1975 38.2459 38.1975H36.7811V40.8343C36.7811 41.3196 36.3876 41.7132 35.9022 41.7132ZM42.5725 35.3962C42.2687 35.3962 41.9734 35.2386 41.8105 34.9566L23.6235 3.45621C23.3809 3.03586 23.5249 2.49832 23.9452 2.25562C24.3656 2.01305 24.903 2.15684 25.1458 2.5773L43.3329 34.0777C43.5756 34.4981 43.4316 35.0356 43.0112 35.2783C42.8728 35.3581 42.7217 35.3962 42.5725 35.3962ZM56.7774 33.4755C56.2918 33.4755 55.8984 33.0821 55.8984 32.5966V29.9599H54.4336C53.9481 29.9599 53.5547 29.5665 53.5547 29.081C53.5547 28.5955 53.9481 28.2021 54.4336 28.2021H55.8984V25.5653C55.8984 25.0798 56.2918 24.6864 56.7774 24.6864C57.2629 24.6864 57.6563 25.0798 57.6563 25.5653V28.2021H59.1211C59.6066 28.2021 60 28.5955 60 29.081C60 29.5665 59.6066 29.9599 59.1211 29.9599H57.6563V32.5966C57.6563 33.0821 57.2629 33.4755 56.7774 33.4755ZM17.1766 28.5933C17.0264 28.5933 16.874 28.5548 16.7349 28.4737C15.2977 27.6363 14.2816 26.2214 13.9472 24.592C13.6127 22.9625 13.9895 21.2618 14.9806 19.9259C15.2699 19.5362 15.8204 19.4547 16.2102 19.7437C16.5999 20.033 16.6815 20.5835 16.3923 20.9732C15.6986 21.9082 15.4351 23.0983 15.6691 24.2385C15.9031 25.3788 16.6141 26.3689 17.6198 26.9548C18.0392 27.1993 18.1811 27.7374 17.9367 28.1567C17.7736 28.437 17.4792 28.5933 17.1766 28.5933ZM38.6111 18.0935C37.1573 18.0935 35.9744 16.9106 35.9744 15.4568C35.9744 14.0029 37.1573 12.8201 38.6111 12.8201C40.0649 12.8201 41.2478 14.0029 41.2478 15.4568C41.2478 16.9106 40.0649 18.0935 38.6111 18.0935ZM38.6111 14.5779C38.1264 14.5779 37.7322 14.9721 37.7322 15.4568C37.7322 15.9415 38.1264 16.3357 38.6111 16.3357C39.0958 16.3357 39.49 15.9415 39.49 15.4568C39.49 14.9721 39.0958 14.5779 38.6111 14.5779Z" fill="black"/>
</g>
<defs>
<clipPath id="clip0_9_173">
<rect width="60" height="60" fill="white"/>
</clipPath>
</defs>
</svg>
