<svg width="60" height="60" viewBox="0 0 60 60" fill="none" xmlns="http://www.w3.org/2000/svg">
<path d="M24.2794 20.8284C25.1253 21.1476 25.7133 21.7552 26.0769 22.6862C26.2553 23.1428 26.6872 23.4396 27.1771 23.4422H27.1837C27.674 23.4422 28.1089 23.1487 28.2927 22.693C28.6598 21.7832 29.268 21.1752 30.1521 20.834C30.6072 20.6584 30.9079 20.2308 30.9182 19.7447C30.9286 19.26 30.6473 18.8213 30.2016 18.6271C29.284 18.2272 28.6613 17.626 28.2978 16.7894C28.1056 16.3474 27.6735 16.067 27.1866 16.0745C26.7043 16.0821 26.278 16.376 26.1003 16.8232C25.7765 17.6371 25.169 18.2233 24.2427 18.6154C23.7888 18.8075 23.5018 19.2496 23.5117 19.7418C23.5214 20.2295 23.8228 20.656 24.2794 20.8284V20.8284ZM27.2188 18.4309C27.5709 18.9268 28.0087 19.3522 28.5295 19.7043C27.9987 20.054 27.5529 20.4971 27.1946 21.0311C26.8476 20.4951 26.4176 20.0528 25.9077 19.707C26.437 19.3551 26.8749 18.9287 27.2188 18.4309Z" fill="black"/>
<path d="M39.9185 39.2834C39.001 38.8835 38.3782 38.2822 38.0148 37.4456C37.8227 37.0037 37.384 36.7219 36.9036 36.7307C36.4213 36.7383 35.995 37.0322 35.8172 37.4794C35.4936 38.2932 34.886 38.8794 33.9599 39.2714C33.5059 39.4636 33.2189 39.9057 33.2286 40.3977C33.2382 40.8857 33.5397 41.3122 33.9964 41.4846C34.8421 41.8037 35.4302 42.4114 35.7937 43.3424C35.9722 43.799 36.4041 44.0957 36.8939 44.0984H36.9006C37.3909 44.0984 37.8258 43.8048 38.0095 43.3491C38.3767 42.4395 38.9849 41.8315 39.869 41.4902C40.3241 41.3146 40.6248 40.8869 40.6351 40.4009C40.6456 39.9162 40.3642 39.4775 39.9185 39.2834V39.2834ZM36.9115 41.6873C36.5644 41.1512 36.1346 40.709 35.6246 40.3631C36.154 40.0113 36.5918 39.585 36.9357 39.087C37.2877 39.5829 37.7256 40.0083 38.2463 40.3605C37.7157 40.7101 37.2698 41.1533 36.9115 41.6873Z" fill="black"/>
<path d="M16.8373 32.8036C16.6495 32.3712 16.2216 32.0949 15.7503 32.104C15.2785 32.1115 14.8613 32.399 14.6876 32.8365C14.3982 33.564 13.8536 34.0886 13.0231 34.4402C12.5792 34.628 12.2986 35.0604 12.308 35.5416C12.3175 36.019 12.6124 36.4363 13.0593 36.6051C13.8149 36.8902 14.3404 37.4339 14.6659 38.2676C14.8404 38.7144 15.2629 39.0047 15.7421 39.0074H15.7489C16.2285 39.0074 16.6536 38.7203 16.8335 38.2746C17.1623 37.4598 17.7067 36.9153 18.4978 36.61C18.9428 36.4382 19.2368 36.0201 19.247 35.5446C19.2571 35.0705 18.9819 34.6414 18.546 34.4513C17.7221 34.0924 17.1631 33.5533 16.8373 32.8036V32.8036ZM15.7599 36.5934C15.4677 36.1639 15.116 35.802 14.7066 35.5092C15.1315 35.2135 15.4905 34.8641 15.7817 34.4628C16.0783 34.8619 16.4365 35.21 16.8544 35.5055C16.4276 35.8013 16.0622 36.1645 15.7599 36.5934V36.5934Z" fill="black"/>
<path d="M32.5221 43.2316C31.6956 43.8437 30.8409 44.4319 29.9815 44.9797L28.5232 45.9095C27.5141 46.5529 26.8935 47.6513 26.8631 48.8476L26.8125 50.8409C26.7802 52.1069 26.251 53.2783 25.3225 54.1393C24.3939 55.0002 23.1856 55.44 21.9213 55.3759L16.094 55.0836C14.6731 55.0127 13.2513 55.1419 11.8671 55.4688L8.17424 56.3408C7.90308 56.4047 7.62619 56.2756 7.50154 56.0261C7.3569 55.7369 7.46588 55.3887 7.74967 55.2335L14.8252 51.3641C15.2501 51.1317 15.4062 50.5989 15.1738 50.1738C14.9414 49.7489 14.4087 49.5926 13.9836 49.8253L6.90801 53.6947C5.7925 54.3047 5.36407 55.6734 5.9327 56.8105C6.33914 57.6232 7.15566 58.1118 8.03077 58.1117C8.21142 58.1117 8.39465 58.0909 8.57718 58.0478L12.2701 57.1757C13.4935 56.8868 14.7505 56.7724 16.006 56.8353L21.8333 57.1276C23.5752 57.2148 25.2365 56.6103 26.5148 55.4254C27.7931 54.2403 28.5213 52.6279 28.5658 50.8855L28.6164 48.892C28.6321 48.2797 28.9496 47.7176 29.4661 47.3883L30.9245 46.4585C31.818 45.8888 32.7067 45.2773 33.5659 44.6409C33.9551 44.3527 34.0369 43.8035 33.7487 43.4142C33.4604 43.0252 32.9111 42.9431 32.5221 43.2316V43.2316Z" fill="black"/>
<path d="M59.6972 26.9204L50.2644 18.7488C48.7927 17.4739 46.839 16.8636 44.9029 17.0749C42.9674 17.2861 41.1909 18.303 40.0286 19.8652L37.4027 23.3949L32.8305 21.54C32.3816 21.3577 31.8702 21.5743 31.6881 22.0229C31.5061 22.4717 31.7223 22.9831 32.1712 23.1652L36.321 24.8488L31.7772 30.9564L29.298 30.2874C26.2218 29.4576 23.2885 28.1792 20.5797 26.4877C20.1688 26.2312 19.6277 26.3561 19.3713 26.7671C19.1148 27.1779 19.2399 27.7189 19.6507 27.9755C22.5061 29.7584 25.5982 31.1059 28.8412 31.9808L30.6517 32.4692L20.9971 45.4468C20.5453 46.0542 19.9793 46.5464 19.3149 46.9097L17.3335 47.9934C16.9085 48.2257 16.7524 48.7586 16.9849 49.1836C17.1441 49.475 17.4449 49.64 17.7551 49.64C17.8973 49.64 18.0415 49.6054 18.1751 49.5323L20.1566 48.4487C21.0443 47.9632 21.8006 47.3055 22.4045 46.4938L41.4362 20.9122C42.3209 19.7229 43.6199 18.9793 45.0934 18.8187C46.5673 18.6578 47.9957 19.104 49.116 20.0746L58.5488 28.2463C58.9148 28.5634 59.4686 28.5239 59.7859 28.1576C60.1029 27.7914 60.0633 27.2375 59.6972 26.9204V26.9204Z" fill="black"/>
<path d="M58.8978 44.9106L56.6165 43.32C55.7131 42.6901 54.8221 42.0041 53.9684 41.281C53.5988 40.9678 53.0455 41.0138 52.7325 41.3834C52.4194 41.753 52.4654 42.3064 52.835 42.6193C53.7305 43.3777 54.6652 44.0976 55.6134 44.7587L57.8947 46.3493C58.0476 46.4558 58.2224 46.5069 58.3955 46.5069C58.6726 46.5069 58.9452 46.3759 59.1157 46.1314C59.3927 45.7342 59.2951 45.1876 58.8978 44.9106V44.9106Z" fill="black"/>
<path d="M6.93756 21.5199L11.4554 20.9246C11.5091 20.9177 11.562 20.9382 11.597 20.9798C13.011 22.6656 14.6007 24.2232 16.3222 25.6096C16.4843 25.7401 16.6786 25.8036 16.8717 25.8036C17.128 25.8036 17.382 25.6917 17.5553 25.4767C17.8592 25.0995 17.7996 24.5474 17.4223 24.2436C15.7894 22.9287 14.2817 21.4514 12.9407 19.8528C12.5186 19.3493 11.8768 19.1 11.2263 19.1858L6.7085 19.7811C6.17986 19.8505 5.6601 19.7043 5.24547 19.3687C4.83095 19.033 4.57967 18.5554 4.53769 18.0237L4.12739 12.8168C4.01303 11.3666 3.69416 9.94125 3.17955 8.58019L1.82013 4.98529C1.65654 4.55242 1.81101 4.07055 2.19582 3.81354C2.64343 3.51455 3.23837 3.624 3.55034 4.06248L10.4821 13.8058C10.8488 14.321 11.3521 14.719 11.9381 14.9566L21.0419 18.65C21.491 18.8324 22.0022 18.6158 22.1843 18.167C22.3663 17.7183 22.1501 17.2068 21.7012 17.0247L12.5974 13.3314C12.3214 13.2194 12.0839 13.0317 11.9112 12.789L4.97957 3.04578C4.11406 1.82912 2.46336 1.52557 1.22156 2.35496C0.153993 3.06811 -0.274438 4.40485 0.179717 5.60572L1.53914 9.20038C1.99517 10.4063 2.27779 11.6694 2.37917 12.9544L2.78948 18.1613C2.86957 19.1774 3.34992 20.0904 4.142 20.7317C4.93409 21.3731 5.92694 21.6532 6.93756 21.5199V21.5199Z" fill="black"/>
<path d="M44.563 28.8419C44.3625 28.4011 43.8428 28.206 43.4017 28.4065C42.9607 28.6069 42.7658 29.1268 42.9661 29.5677C43.2018 30.0864 43.4498 30.5982 43.7081 31.1041C42.6087 32.8689 41.3754 34.5705 40.0344 36.1661C39.7228 36.5369 39.7708 37.0901 40.1415 37.4017C40.3059 37.5399 40.5061 37.6072 40.7053 37.6072C40.9553 37.6072 41.2036 37.5008 41.377 37.2946C42.5598 35.8874 43.6615 34.4008 44.6669 32.8623C46.1623 35.4399 47.9592 37.8288 50.0379 39.9925C50.21 40.1717 50.44 40.2619 50.6704 40.2619C50.8889 40.2619 51.1077 40.1808 51.2777 40.0174C51.627 39.6818 51.6382 39.1267 51.3026 38.7775C48.5019 35.8617 46.2343 32.5189 44.563 28.8419Z" fill="black"/>
</svg>
