<svg width="60" height="60" fill="none" xmlns="http://www.w3.org/2000/svg"><path d="M44.16 26.616H15.84a.73.73 0 100 1.458h28.32a.729.729 0 100-1.458zm0 7.939H15.84a.73.73 0 100 1.458h28.32a.729.729 0 100-1.458zm-9.284 5.151h-9.752a.729.729 0 100 1.459h9.752a.729.729 0 100-1.459zm9.284-9.137H23.036a.73.73 0 100 1.458H44.16a.73.73 0 100-1.458zm-24.517 0H15.84a.73.73 0 100 1.458h3.803a.73.73 0 100-1.458z" fill="#000"/><path d="M51.103 25.384a.898.898 0 00-.633-.259 2.75 2.75 0 01-2.755-2.63.896.896 0 00-.897-.855h-33.81a.896.896 0 00-.897.855 2.774 2.774 0 01-2.627 2.627.896.896 0 00-.856.898v18.847c0 .481.376.875.856.897a2.774 2.774 0 012.627 2.627c.022.48.416.856.897.856h21.524a.73.73 0 100-1.459H13.51a4.184 4.184 0 00-3.424-3.423V26.521a4.184 4.184 0 003.424-3.423h32.807a4.205 4.205 0 003.597 3.45v12.381a.73.73 0 001.458 0V26.024a.891.891 0 00-.269-.64z" fill="#000"/><path d="M52.843 18H7.157a2.026 2.026 0 00-2.024 2.024v30.838c0 1.116.908 2.024 2.024 2.024H37.76l-1.084 2.27a.864.864 0 00.919 1.228l2.017-.324 1.125 1.847a.865.865 0 001.522-.077l1.955-4.097 1.955 4.096a.865.865 0 001.52.078l1.126-1.847 2.017.325a.863.863 0 00.831-.337.863.863 0 00.088-.891l-1.083-2.27h2.175a2.026 2.026 0 002.024-2.025V20.024A2.026 2.026 0 0052.843 18zm-11.43 38.214l-.762-1.252a.863.863 0 00-.877-.405l-1.296.209 1.365-2.86a2.598 2.598 0 002.099.771c.272-.026.544.047.767.206.073.052.15.098.227.142l-1.522 3.19zm2.975-4.323h-.007c-.11.017-.223.017-.334.001l-.008-.001a1.137 1.137 0 01-.485-.197 2.597 2.597 0 00-1.75-.469 1.14 1.14 0 01-1.142-.66 2.593 2.593 0 00-.337-.541L40.307 50l-.022-.027a2.594 2.594 0 00-.905-.688 1.14 1.14 0 01-.659-1.143 2.598 2.598 0 00-.469-1.75 1.14 1.14 0 010-1.319 2.597 2.597 0 00.47-1.75 1.14 1.14 0 01.659-1.142 2.596 2.596 0 001.28-1.28 1.14 1.14 0 011.143-.66 2.597 2.597 0 001.75-.47 1.14 1.14 0 011.32 0 2.6 2.6 0 001.749.47 1.14 1.14 0 011.143.66c.26.566.714 1.02 1.28 1.28.44.201.706.66.66 1.143-.059.62.108 1.241.469 1.749.28.395.28.925 0 1.32a2.598 2.598 0 00-.469 1.749 1.14 1.14 0 01-.66 1.143 2.595 2.595 0 00-.905.689l-.019.023-.021.028a2.594 2.594 0 00-.335.54 1.14 1.14 0 01-1.143.66 2.6 2.6 0 00-1.75.469c-.147.105-.314.17-.485.197zm4.266 2.666a.863.863 0 00-.877.405l-.763 1.252-1.523-3.19a2.61 2.61 0 00.227-.142 1.14 1.14 0 01.767-.205 2.598 2.598 0 002.1-.77l1.364 2.859-1.295-.209zm4.755-3.695a.566.566 0 01-.566.566h-2.871l-.376-.788.057-.03a2.6 2.6 0 001.505-2.605 1.14 1.14 0 01.205-.768 2.6 2.6 0 000-3.009 1.139 1.139 0 01-.205-.767 2.6 2.6 0 00-1.505-2.606 1.14 1.14 0 01-.561-.562 2.6 2.6 0 00-2.607-1.504 1.137 1.137 0 01-.767-.206 2.6 2.6 0 00-3.01 0 1.138 1.138 0 01-.766.206c-1.1-.104-2.147.5-2.606 1.504a1.14 1.14 0 01-.562.562 2.6 2.6 0 00-1.505 2.606 1.14 1.14 0 01-.205.767 2.6 2.6 0 000 3.01c.158.222.231.494.205.767a2.6 2.6 0 001.505 2.606c.02.009.038.019.057.029l-.376.788H7.157a.566.566 0 01-.566-.566V20.024c0-.312.254-.566.566-.566h45.686c.312 0 .566.254.566.566v30.838z" fill="#000"/><path d="M44.16 41.203a4.535 4.535 0 00-4.53 4.53 4.535 4.535 0 004.53 4.53 4.535 4.535 0 004.53-4.53 4.535 4.535 0 00-4.53-4.53zm0 7.602a3.075 3.075 0 01-3.071-3.072 3.075 3.075 0 013.071-3.072 3.075 3.075 0 013.072 3.072 3.075 3.075 0 01-3.072 3.072z" fill="#000"/><path d="M8.537 10h1.537v1.537H8.537V10zm0 3.074h1.537v1.537H8.537v-1.537z" fill="#DC405C"/><path d="M10.074 11.537h1.537v1.537h-1.537v-1.537zm-3.074 0h1.537v1.537H7v-1.537zM37.537 7h1.537v1.537h-1.537V7zm0 3.074h1.537v1.537h-1.537v-1.537zm1.537-1.537h1.537v1.537h-1.537V8.537zm-3.074 0h1.537v1.537H36V8.537z" fill="#DC405C"/></svg>