<svg width="60" height="60" fill="none" xmlns="http://www.w3.org/2000/svg"><path d="M23.552 46.945h-1.79v-1.806h1.79v1.806zm-3.596 0H18.15v-1.806h1.806v1.806zm-3.612 0h-1.806v-1.806h1.806v1.806z" fill="#DC405C"/><path d="M55.508 32.06l-2.916-3.3-1.353 1.196 2.916 3.3a6.28 6.28 0 011.572 4.575 6.28 6.28 0 01-2.124 4.347 6.282 6.282 0 01-4.575 1.572 6.28 6.28 0 01-4.347-2.124L34.597 30.212l9.474-8.37 5.913 6.693 1.353-1.196-21.73-24.597c-2.968-3.358-8.114-3.676-11.472-.71-3.358 2.968-3.676 8.113-.71 11.472l1.677 1.897H14.73a3.315 3.315 0 00-3.311 3.31v7.527a11.667 11.667 0 00-4.165 8.968V60H9.06V35.206c0-2.394.842-4.652 2.359-6.43v6.129c0 4.182 3.403 7.585 7.585 7.585s7.585-3.403 7.585-7.585v-6.102a9.87 9.87 0 012.336 6.403V60h1.806V35.206c0-3.475-1.504-6.71-4.142-8.949v-2.382l16.739 18.947a8.073 8.073 0 006.101 2.746 8.068 8.068 0 005.37-2.037 8.074 8.074 0 002.73-5.588 8.075 8.075 0 00-2.02-5.883zm-22.107-3.2l-2.072-2.346 9.474-8.37 2.072 2.346-9.474 8.37zm-8.609-9.745l9.474-8.37 2.073 2.346-9.474 8.37-2.073-2.346zm12.742-4.67l2.073 2.345-9.474 8.37-2.072-2.345 9.473-8.37zM19.331 3.386a6.33 6.33 0 016.904-.969l-8.716 7.7a6.33 6.33 0 011.812-6.731zm-.969 8.396l9.42-8.322c.164.15.32.308.47.478l1.55 1.754-5.872 5.187 1.196 1.354 5.872-5.188 2.072 2.346-9.474 8.37-2.072-2.346 2.21-1.953-1.195-1.353-2.21 1.953-1.55-1.754a6.426 6.426 0 01-.417-.526zm6.42 23.123c0 .746-.143 1.46-.402 2.115a7.597 7.597 0 00-1.243-1.011l-.985 1.513c.476.31.898.683 1.261 1.113a5.768 5.768 0 01-8.818 0 5.773 5.773 0 016.002-1.822l.497-1.736a7.602 7.602 0 00-7.467 1.943 5.746 5.746 0 01-.402-2.115V18.712c0-.83.675-1.505 1.505-1.505h5.967l4.086 4.624v13.074z" fill="#000"/><path d="M49.11 38.474l1.353-1.195 1.2 1.358-1.352 1.195-1.2-1.358zM4.261 7.696h1.806v1.806H4.261V7.696zm0 3.612h1.806v1.806H4.261v-1.806zm1.806-1.806h1.806v1.806H6.067V9.502zm-3.612 0h1.806v1.806H2.455V9.502zm2.95 13.969H7.21v1.799H5.405v-1.8z" fill="#DC405C"/></svg>