<svg width="60" height="60" fill="none" xmlns="http://www.w3.org/2000/svg"><path d="M29.063 44.063h1.875v1.874a.938.938 0 00.937.938h3.75a.938.938 0 00.938-.938v-1.874h1.874a.938.938 0 00.938-.938v-3.75a.938.938 0 00-.938-.938h-1.874v-1.874a.938.938 0 00-.938-.938h-3.75a.938.938 0 00-.938.938v1.874h-1.875a.938.938 0 00-.937.938v3.75a.938.938 0 00.938.938zm.937-3.75h1.875a.938.938 0 00.938-.938V37.5h1.874v1.875a.938.938 0 00.938.938H37.5v1.874h-1.875a.938.938 0 00-.938.938V45h-1.874v-1.875a.938.938 0 00-.938-.938H30v-1.874z" fill="#DC405C"/><path d="M44.869 32.025L38.438 21.3v-4.425h2.812a.938.938 0 00.938-.938v-1.874A6.57 6.57 0 0035.624 7.5H18.75a.937.937 0 00-.938.938v3.75a.938.938 0 00.938.937h2.813v8.438a.938.938 0 00.937.937 4.687 4.687 0 004.688-4.688v-.937h1.875V21.3L22.63 32.025a14.056 14.056 0 00-2.006 7.238v14.175a4.688 4.688 0 004.688 4.687h16.875a4.688 4.688 0 004.687-4.688V39.264c0-2.55-.693-5.052-2.006-7.238zM21.563 11.25h-1.875V9.375h1.875v1.875zm3.75 6.563a2.825 2.825 0 01-1.875 2.653v-3.591h1.875v.938zM23.438 15V9.375h12.187a4.688 4.688 0 014.688 4.688V15H23.436zm13.125 1.875v3.75h-5.626v-3.75h5.625zM30.534 22.5h6.432l5.625 9.375H24.909l5.625-9.375zM45 53.438a2.821 2.821 0 01-2.813 2.812H25.314a2.821 2.821 0 01-2.813-2.813v-2.812H45v2.813zm0-4.688H22.5v-9.487a12.093 12.093 0 011.322-5.513h19.856A12.093 12.093 0 0145 39.263v9.487z" fill="#000"/><path d="M14.063 9.375h1.874v1.875h-1.874V9.375zm-3.75 0h1.874v1.875h-1.874V9.375zm-3.75 0h1.875v1.875H6.562V9.375zm6.722-2.468l.938-1.624 1.624.938-.938 1.624-1.624-.938zM10.036 5.03l.937-1.624 1.623.937-.937 1.623-1.623-.937zM6.789 3.157l.937-1.624 1.624.937-.937 1.624-1.624-.937zm6.495 10.561l1.624-.938.938 1.624-1.624.938-.938-1.624zm-3.247 1.875l1.623-.937.938 1.623-1.623.938-.938-1.624zM6.79 17.468l1.623-.937.937 1.623-1.623.938-.938-1.624zM50.537 23h1.537v1.537h-1.537V23zm0 3.074h1.537v1.537h-1.537v-1.537zm1.537-1.537h1.537v1.537h-1.537v-1.537zm-3.074 0h1.537v1.537H49v-1.537zM10.537 43h1.537v1.537h-1.537V43zm0 3.074h1.537v1.537h-1.537v-1.537zm1.537-1.537h1.537v1.537h-1.537v-1.537zm-3.074 0h1.537v1.537H9v-1.537z" fill="#DC405C"/></svg>