<svg width="60" height="60" fill="none" xmlns="http://www.w3.org/2000/svg"><g clip-path="url(#clip0_44_116)"><path d="M52.26 23.756a1.872 1.872 0 000-2.245c0-.012.157.208-3.014-3.994a.105.105 0 01-.02-.077l.614-4.965a1.87 1.87 0 00-1.124-1.946l-4.61-1.946a.105.105 0 01-.056-.056l-1.946-4.61a1.87 1.87 0 00-1.946-1.124l-4.965.615a.106.106 0 01-.076-.02L31.123.374a1.872 1.872 0 00-2.245 0l-3.994 3.014a.108.108 0 01-.078.02l-4.964-.615a1.87 1.87 0 00-1.946 1.125L15.95 8.527a.106.106 0 01-.056.056l-4.61 1.946a1.871 1.871 0 00-1.124 1.946l.615 4.965a.105.105 0 01-.02.077L7.74 21.51a1.872 1.872 0 000 2.245l3.014 3.994c.017.022.024.05.02.077l-.614 4.965a1.871 1.871 0 001.124 1.946l4.61 1.946c.025.01.045.03.056.056l1.102 2.61-8.076 13.988a1.105 1.105 0 001.035 1.654l5.283-.375 2.316 4.762a1.105 1.105 0 001.95.07l8.681-15.036.637.48a1.872 1.872 0 002.245 0l.636-.48 8.68 15.035a1.105 1.105 0 001.95-.07l2.318-4.761 5.282.375a1.105 1.105 0 001.035-1.655l-4.277-7.407a.879.879 0 10-1.522.879l3.661 6.342-4.495-.319a1.099 1.099 0 00-1.072.619l-1.972 4.053-8.174-14.158 1.944-1.466a.105.105 0 01.077-.021l1.219.151 5.562 9.634a.879.879 0 101.522-.88L38.6 42.282l1.56.193a1.87 1.87 0 001.932-1.093l1.05 1.82a.879.879 0 101.523-.88l-1.716-2.97 1.102-2.61a.106.106 0 01.056-.057l4.61-1.946a1.871 1.871 0 001.124-1.946l-.615-4.965a.105.105 0 01.02-.077l3.015-3.994zM18.653 57.504l-1.971-4.053a1.098 1.098 0 00-1.072-.619l-4.496.32 6.795-11.771a1.87 1.87 0 001.933 1.093l1.56-.193-.666 1.152a.879.879 0 101.522.88l1.33-2.303 1.219-.151a.106.106 0 01.076.02l1.944 1.467-8.174 14.158zm29.19-30.813a1.855 1.855 0 00-.362 1.352l.615 4.965a.106.106 0 01-.064.11l-4.61 1.946c-.45.19-.801.543-.991.992l-1.946 4.61a.106.106 0 01-.11.063l-4.965-.615a1.856 1.856 0 00-1.352.362l-3.994 3.014a.106.106 0 01-.128 0l-3.994-3.014a1.854 1.854 0 00-1.352-.362l-4.965.615a.107.107 0 01-.11-.063l-1.946-4.61a1.854 1.854 0 00-.992-.992l-4.609-1.945a.106.106 0 01-.064-.11l.615-4.966a1.854 1.854 0 00-.361-1.351l-3.014-3.995a.106.106 0 010-.127l3.014-3.994c.293-.389.421-.869.361-1.352l-.615-4.965a.106.106 0 01.064-.11l4.61-1.946c.449-.19.801-.542.991-.992l1.946-4.61a.108.108 0 01.11-.063l4.965.615c.483.06.963-.069 1.352-.362l3.994-3.014a.106.106 0 01.128 0l3.994 3.014c.389.293.87.422 1.352.362l4.965-.615a.107.107 0 01.11.064L42.43 9.21c.19.45.542.802.992.992l4.609 1.946c.043.018.07.063.064.11l-.615 4.965c-.06.483.068.963.361 1.352l3.014 3.994a.106.106 0 010 .127l-3.014 3.994z" fill="#000"/><path d="M45.986 21.755h-2.517a13.442 13.442 0 00-3.328-8.02l1.784-1.784a.879.879 0 10-1.243-1.242l-1.784 1.784a13.442 13.442 0 00-8.02-3.328V6.648a.879.879 0 10-1.757 0v2.517a13.443 13.443 0 00-8.019 3.328l-1.784-1.784a.879.879 0 00-1.243 1.242l1.784 1.785a13.442 13.442 0 00-3.328 8.019h-2.517a.879.879 0 100 1.758h2.517c.009.14.02.28.033.418a.878.878 0 101.75-.167c-.66-6.934 4.803-12.87 11.686-12.87 6.473 0 11.74 5.267 11.74 11.74S36.472 34.373 30 34.373a11.762 11.762 0 01-10.719-6.944.879.879 0 10-1.604.719 13.46 13.46 0 002.178 3.388l-1.78 1.78a.879.879 0 101.243 1.243l1.781-1.781a13.52 13.52 0 008.022 3.324v2.517a.879.879 0 101.758 0v-2.517a13.443 13.443 0 008.019-3.327l1.784 1.784a.879.879 0 001.243-1.243l-1.784-1.785a13.441 13.441 0 003.328-8.018h2.517a.879.879 0 000-1.758zM19.817 46.783a.879.879 0 00-1.2.322l-2.114 3.66a.88.88 0 001.522.879l2.113-3.66a.879.879 0 00-.321-1.201z" fill="#000"/><path d="M39.43 19.683a1.615 1.615 0 00-1.54-1.118h-4.85c-.797-2.453-1.5-4.627-1.5-4.614A1.615 1.615 0 0030 12.832c-.703 0-1.322.45-1.54 1.119l-1.498 4.614H22.11c-.704 0-1.323.45-1.54 1.118-.218.67.018 1.397.588 1.81l3.924 2.852-1.499 4.614c-.217.67.02 1.397.589 1.81a1.613 1.613 0 001.903 0L30 27.918l3.924 2.851c.57.415 1.336.413 1.904 0 .57-.413.806-1.14.588-1.81l-1.499-4.614 3.925-2.851c.57-.414.806-1.141.588-1.81zm-5.627 3.3a1.615 1.615 0 00-.589 1.81l1.399 4.303-3.661-2.66a1.615 1.615 0 00-1.904 0l-3.66 2.66 1.398-4.303a1.615 1.615 0 00-.588-1.81l-3.661-2.66h4.525c.703 0 1.322-.45 1.54-1.12L30 14.9l1.399 4.304a1.615 1.615 0 001.54 1.119h4.525l-3.661 2.66z" fill="#DC405C"/></g><defs><clipPath id="clip0_44_116"><path fill="#fff" d="M0 0h60v60H0z"/></clipPath></defs></svg>