<svg width="329" height="32" viewBox="0 0 329 32" fill="none" xmlns="http://www.w3.org/2000/svg">
<g clip-path="url(#clip0_46_2)">
<path d="M0 31.6862V9.53312H4.15129V31.6862H0ZM3.6687 26.4643L3.48189 21.6077L15.1626 9.53312H19.8328L10.1188 19.7865L7.81999 22.2868L3.6687 26.4643ZM15.5673 31.6862L6.98973 21.6077L9.76591 18.5981L20.4607 31.6862H15.5673Z" fill="#BF3C52"/>
<path d="M37.7248 32C36.085 32.0161 34.4567 31.7264 32.9249 31.146C31.4875 30.6089 30.173 29.792 29.059 28.7434C27.9822 27.7238 27.1244 26.4988 26.5371 25.1421C25.9342 23.7155 25.6305 22.1821 25.6446 20.6354C25.629 19.0768 25.9327 17.5314 26.5371 16.0926C27.1207 14.7339 27.979 13.5083 29.059 12.4913C30.1665 11.4533 31.4696 10.6421 32.8938 10.1042C34.4303 9.52112 36.0642 9.23136 37.7093 9.25016C39.3443 9.23365 40.9683 9.51799 42.4988 10.0887C43.919 10.6152 45.2165 11.422 46.3128 12.4605C47.3855 13.4803 48.2381 14.7055 48.8192 16.0617C49.4226 17.5062 49.7262 19.0565 49.7117 20.6199C49.7272 22.1785 49.4236 23.7239 48.8192 25.1627C48.233 26.5161 47.381 27.7404 46.3128 28.764C45.22 29.8106 43.9218 30.6231 42.4988 31.1511C40.9739 31.7235 39.3553 32.0113 37.7248 32ZM37.7248 28.3987C38.7902 28.4105 39.8477 28.2165 40.8383 27.8277C41.7629 27.4683 42.6047 26.9276 43.3135 26.2379C44.0205 25.5312 44.578 24.6917 44.9533 23.7685C45.356 22.7728 45.557 21.7081 45.5448 20.6354C45.5584 19.5606 45.3629 18.4933 44.9688 17.492C44.6012 16.5648 44.0427 15.7238 43.3291 15.0225C42.618 14.3144 41.7711 13.7547 40.8383 13.3762C39.8477 12.9873 38.7902 12.7934 37.7248 12.8051C36.6496 12.7958 35.5824 12.9896 34.5802 13.3762C33.64 13.7367 32.7875 14.2908 32.0791 15.0019C30.6096 16.4968 29.7872 18.5017 29.7872 20.5891C29.7872 22.6765 30.6096 24.6813 32.0791 26.1762C32.7875 26.8873 33.64 27.4414 34.5802 27.8019C35.581 28.1955 36.6482 28.3963 37.7248 28.3936V28.3987Z" fill="#BF3C52"/>
<path d="M58.9172 31.6862V9.53312H68.1123C69.8564 9.48976 71.5904 9.80871 73.2028 10.4695C74.5407 11.0275 75.6794 11.97 76.4719 13.1756C77.2657 14.4466 77.6662 15.9204 77.6239 17.4148C77.6877 18.8705 77.2975 20.3104 76.5064 21.5384C75.7153 22.7665 74.5618 23.723 73.2028 24.2778C71.5916 24.942 69.8565 25.2594 68.1123 25.209H61.2315L63.0529 23.3723V31.6862H58.9172ZM63.0685 23.8354L61.2315 21.8444H67.9047C69.7313 21.8444 71.1116 21.4534 72.056 20.6714C72.5221 20.269 72.8896 19.7665 73.1305 19.2023C73.3715 18.638 73.4796 18.0267 73.4467 17.4148C73.4807 16.8043 73.3731 16.1941 73.132 15.6314C72.8909 15.0686 72.5228 14.5681 72.056 14.1685C71.1323 13.4019 69.752 13.0161 67.9047 13.0161H61.2315L63.0529 10.9891L63.0685 23.8354ZM73.5349 31.6862L67.8891 23.6656H72.3258L78.0027 31.7068L73.5349 31.6862Z" fill="#BF3C52"/>
<path d="M87.037 31.6862V9.53312H90.4514L104.462 26.6238H102.77V9.53312H106.859V31.6862H103.44L89.4603 14.5955H91.1519V31.6862H87.037Z" fill="#BF3C52"/>
<path d="M121.825 28.2032H134.434V31.6862H117.679V9.53312H133.988V13.0161H121.825V28.2032ZM121.508 18.7421H132.613V22.1222H121.508V18.7421Z" fill="#BF3C52"/>
<path d="M147.999 28.2032H160.603V31.6862H143.847V9.53312H160.157V13.0161H147.999V28.2032ZM147.677 18.7421H158.787V22.1222H147.677V18.7421Z" fill="#BF3C52"/>
<path d="M176.31 31.6862L166.57 9.53312H171.069L179.782 29.5666H177.187L186.056 9.53312H190.176L180.394 31.6862H176.31Z" fill="#BF3C52"/>
<path d="M193.419 31.6862L203.47 9.53312H207.564L217.652 31.6862H213.272L204.658 11.7196H206.314L197.664 31.6862H193.419ZM198.042 26.5415L199.194 23.3158H211.228L212.344 26.5415H198.042Z" fill="#BF3C52"/>
<path d="M238.865 31.6862V9.53312H242.28L256.29 26.6238H254.599V9.53312H258.688V31.6862H255.273L241.294 14.5955H242.98V31.6862H238.865Z" fill="#201600"/>
<path d="M266.347 31.6862L276.398 9.53312H280.487L290.59 31.6862H286.221L277.581 11.7196H279.242L270.591 31.6862H266.347ZM270.975 26.5415L272.122 23.3158H284.156L285.271 26.5415H270.975Z" fill="#201600"/>
<path d="M298.197 31.6862V14.6778H302.349V31.6862H298.197Z" fill="#201600"/>
<path d="M313.168 31.6862V9.53312H317.319V28.2032H328.99V31.6862H313.168Z" fill="#201600"/>
<path d="M302.349 9.53312H298.197V13.6489H302.349V9.53312Z" fill="#BF3C52"/>
<path d="M126.542 6.6881H121.871L128.098 0H132.769L126.542 6.6881Z" fill="#201600"/>
</g>
<defs>
<clipPath id="clip0_46_2">
<rect width="329" height="32" fill="white"/>
</clipPath>
</defs>
</svg>
