<svg width="64" height="64" viewBox="0 0 64 64" fill="none" xmlns="http://www.w3.org/2000/svg">
<path d="M26.4033 51.6129V59.871C26.4033 61.5813 27.7898 62.9678 29.5001 62.9678H36.1291C37.8393 62.9678 39.2258 61.5813 39.2258 59.871V55.742L26.4033 51.6129Z" fill="#FF8086"/>
<path d="M30.9679 55.7419H39.226V51.6129H24.7744V59.871C24.9205 60.0172 28.9034 64 28.9034 64V57.8065C28.9034 56.6663 29.8277 55.7419 30.9679 55.7419Z" fill="#E5646E"/>
<path d="M44.388 1.39941H20.6124C19.4721 1.39941 18.5479 2.32379 18.5479 3.46391C18.5479 4.59466 18.6077 5.72466 18.7274 6.84904L23.7091 52.7083H39.4346L41.5107 51.6129L46.2729 6.84916C46.369 5.94529 46.4266 5.03779 46.4455 4.12916C46.4501 3.90754 46.032 3.68579 46.032 3.46404C46.0321 2.32379 45.5281 1.39941 44.388 1.39941Z" fill="#F4DBB3"/>
<path d="M35.0969 35.0968H28.9034C27.7631 35.0968 26.8389 36.0212 26.8389 37.1613C26.8389 38.3016 27.7632 39.2258 28.9034 39.2258H35.0969C36.2371 39.2258 37.1614 38.3014 37.1614 37.1613C37.1614 36.0212 36.2371 35.0968 35.0969 35.0968Z" fill="#DC405C"/>
<path d="M35.0968 44.3871H28.9033C28.3327 44.3871 27.8711 43.9249 27.8711 43.3549C27.8711 42.7849 28.3328 42.3226 28.9033 42.3226H35.0968C35.6675 42.3226 36.1291 42.7849 36.1291 43.3549C36.1291 43.9249 35.6675 44.3871 35.0968 44.3871Z" fill="#C38C66"/>
<path d="M44.3876 0H19.6133C18.4731 0 17.5488 0.924375 17.5488 2.0645V3.464C17.5488 3.74712 17.5701 4.02963 17.5678 4.313C17.5635 4.87587 17.5783 5.43887 17.6378 5.99862L22.5137 51.8314C22.6253 52.8811 23.511 53.6775 24.5666 53.6775H39.434C40.4897 53.6775 41.3753 52.8811 41.4871 51.8314L41.5103 51.613H26.6312C25.5756 51.613 24.69 50.8166 24.5782 49.7669L19.9661 6.412C19.8363 5.19225 20.7925 4.12913 22.019 4.12913H46.4451L46.4521 2.06463C46.4521 0.924375 45.5277 0 44.3876 0V0Z" fill="#EAC89F"/>
<path d="M32.0003 29.9354C36.5611 29.9354 40.2584 26.2382 40.2584 21.6773C40.2584 17.1165 36.5611 13.4192 32.0003 13.4192C27.4395 13.4192 23.7422 17.1165 23.7422 21.6773C23.7422 26.2382 27.4395 29.9354 32.0003 29.9354Z" fill="#FF9A9F"/>
<path d="M32.0001 27.8709C35.4207 27.8709 38.1936 25.098 38.1936 21.6774C38.1936 18.2568 35.4207 15.4839 32.0001 15.4839C28.5796 15.4839 25.8066 18.2568 25.8066 21.6774C25.8066 25.098 28.5796 27.8709 32.0001 27.8709Z" fill="#DC405C"/>
<path d="M24.7744 59.871V60.9032C24.7744 62.6135 26.1609 64 27.8712 64H36.1293C37.8395 64 39.226 62.6135 39.226 60.9032V59.871H24.7744Z" fill="#E5646E"/>
<path d="M24.7744 59.871V60.9032C24.7744 62.6135 26.1609 64 27.8712 64H28.9034V59.871H24.7744Z" fill="#DB4655"/>
</svg>
