<svg width="64" height="64" viewBox="0 0 64 64" fill="none" xmlns="http://www.w3.org/2000/svg">
<path d="M32 63.25C49.2589 63.25 63.25 49.2589 63.25 32C63.25 14.7411 49.2589 0.75 32 0.75C14.7411 0.75 0.75 14.7411 0.75 32C0.75 49.2589 14.7411 63.25 32 63.25Z" fill="url(#paint0_linear_50_68)"/>
<path opacity="0.49" d="M62.9348 36.4375L42.5499 16.0529H21.1601V23.1584L27.6658 29.664L26.5467 31.5037V33.2412L33.6592 40.3537C33.1571 40.6183 32.6005 40.763 32.0331 40.7762L28.3788 37.122H20.3779C20.4688 40.2535 21.6003 42.8951 23.5066 44.7845L40.7334 62.0115C52.3639 58.6326 61.1944 48.6776 62.9348 36.4375Z" fill="url(#paint1_linear_50_68)"/>
<path d="M36.2934 27.5009C40.7626 28.6221 43.6219 32.24 43.6219 37.0677C43.6219 43.4072 38.7094 47.9471 31.8693 47.9471C25.1704 47.9471 20.5653 43.5745 20.3779 37.1221H28.3791C28.4727 39.3196 29.8393 40.7799 31.8892 40.7799C34.0199 40.7799 35.5142 39.2114 35.5142 36.9332C35.5142 34.6551 33.9657 33.2412 31.5398 33.2412H26.5467V31.5037L31.6227 23.1584H21.1602V16.0529H42.5499V17.485L36.2934 27.5009Z" fill="white"/>
<defs>
<linearGradient id="paint0_linear_50_68" x1="0.75" y1="32" x2="63.25" y2="32" gradientUnits="userSpaceOnUse">
<stop stop-color="#DC405C"/>
<stop offset="0.5" stop-color="#E31E42"/>
<stop offset="1" stop-color="#DA0027"/>
</linearGradient>
<linearGradient id="paint1_linear_50_68" x1="19.9112" y1="17.3019" x2="55.4004" y2="52.7911" gradientUnits="userSpaceOnUse">
<stop/>
<stop offset="1" stop-opacity="0"/>
</linearGradient>
</defs>
</svg>
