<svg width="64" height="64" viewBox="0 0 64 64" fill="none" xmlns="http://www.w3.org/2000/svg">
<path d="M49.9102 32.1717L54.8355 14.4914C55.2142 13.1317 56.6235 12.3366 57.9832 12.7154C59.3428 13.0941 60.1379 14.5034 59.7592 15.863L54.8339 33.5433" fill="#DC405C"/>
<path d="M57.9836 12.7154C57.2561 12.5127 56.5159 12.6486 55.9255 13.0246C56.8467 13.6139 57.3183 14.7547 57.0096 15.8629L52.2822 32.8323L54.8343 33.5432L59.7596 15.8629C60.1383 14.5034 59.3432 13.0941 57.9836 12.7154Z" fill="#C72F4A"/>
<path d="M44.9863 30.8001L50.5975 10.658C50.9763 9.29837 52.3856 8.50323 53.7452 8.88199C55.1049 9.26074 55.9 10.67 55.5212 12.0297L49.91 32.1717" fill="#DC405C"/>
<path d="M53.7455 8.88188C53.018 8.67925 52.2779 8.81513 51.6875 9.19114C52.6086 9.7804 53.0802 10.9212 52.7715 12.0294L47.3584 31.4606L49.9104 32.1715L55.5217 12.0294C55.9003 10.6699 55.1051 9.26064 53.7455 8.88188Z" fill="#C72F4A"/>
<path d="M44.9861 30.8L49.5686 14.3506C49.9473 12.9909 49.1522 11.5818 47.7926 11.2029C46.4329 10.8242 45.0236 11.6193 44.6449 12.9789L39.3145 32.1302C39.0297 33.1539 37.5875 33.1796 37.2664 32.1667L35.3685 26.1808C34.9397 24.8361 33.5021 24.0936 32.1573 24.5224C30.8127 24.9511 30.0702 26.3888 30.4989 27.7335L36.0155 44.8212L30.1688 55.4655C29.7808 56.1717 30.1527 57.0552 30.9289 57.2715L51.5564 63.0178C52.3146 63.2291 53.077 62.6953 53.1381 61.9106L54.0939 49.6164C55.7669 47.3316 57.0134 44.7634 57.7733 42.0355L62.9678 23.3893C63.3466 22.0297 62.5514 20.6206 61.1918 20.2417C59.8321 19.8629 58.4228 20.6581 58.0441 22.0177L54.8333 33.5435" fill="#DC405C"/>
<path d="M46.8192 14.3506L42.5 30.1261L44.9868 30.8L49.5692 14.3506C49.948 12.991 49.1529 11.5817 47.7932 11.2029C47.0657 11.0003 46.3256 11.1362 45.7352 11.5122C46.6563 12.1016 47.1279 13.2423 46.8192 14.3506Z" fill="#C72F4A"/>
<path d="M32.6194 26.1807L34.5173 32.1667C34.8384 33.1796 36.2806 33.154 36.5655 32.1302L36.8882 30.9708L35.3695 26.1807C34.9407 24.8361 33.5031 24.0936 32.1583 24.5223C31.9424 24.5912 31.744 24.6885 31.5615 24.8047C32.0468 25.1147 32.4308 25.5892 32.6194 26.1807Z" fill="#C72F4A"/>
<path d="M61.1928 20.2415C60.4653 20.0389 59.7252 20.1747 59.1348 20.5508C60.0559 21.14 60.5276 22.2808 60.2188 23.389L55.0244 42.0352C54.2645 44.7631 53.018 47.3313 51.3449 49.6161L50.3892 61.9103C50.368 62.1814 50.2619 62.4214 50.1025 62.6122L51.5576 63.0175C52.3158 63.2288 53.0782 62.695 53.1393 61.9103L54.0951 49.6161C55.7681 47.3313 57.0146 44.7631 57.7745 42.0352L62.969 23.389C63.3476 22.0295 62.5525 20.6203 61.1928 20.2415Z" fill="#C72F4A"/>
<path d="M30.1688 55.4654C29.7808 56.1716 30.1527 57.0551 30.9289 57.2714L51.5564 63.0177C52.3146 63.229 53.077 62.6952 53.1381 61.9105L53.4344 58.0993L31.9878 52.1537L30.1688 55.4654Z" fill="#F87089"/>
<path d="M12.8901 24.5486L10.0984 6.4087C9.88376 5.01368 8.57887 4.05691 7.18384 4.27154C5.78882 4.48617 4.83206 5.79106 5.04668 7.18608L7.83835 25.326" fill="#DC405C"/>
<path d="M10.0985 6.4087C9.88385 5.01368 8.57895 4.05691 7.18393 4.27154C6.8203 4.32754 6.48742 4.45892 6.19629 4.64542C6.79405 5.0273 7.23205 5.65256 7.34843 6.4087L10.1245 24.8761L12.89 24.5486L10.0985 6.4087Z" fill="#C72F4A"/>
<path d="M17.9418 23.7712L14.7615 3.10547C14.5468 1.71045 13.242 0.753687 11.8469 0.968316C10.4519 1.18294 9.49514 2.48784 9.70977 3.88286L12.8901 24.5487" fill="#DC405C"/>
<path d="M14.7717 3.17134C14.5686 1.85132 13.4063 0.857551 12.0736 0.943677C11.621 0.972928 11.21 1.11768 10.8594 1.34218C11.457 1.72406 11.8951 2.34932 12.0115 3.10546L15.1918 23.7713C15.1918 23.7713 15.2146 23.8978 15.2497 24.1262L17.9419 23.7713L14.7717 3.17134Z" fill="#C72F4A"/>
<path d="M17.9414 23.7711L15.3441 6.89409C15.1295 5.49907 16.0862 4.1943 17.4812 3.97955C18.8763 3.76492 20.181 4.72168 20.3958 6.1167L23.4148 25.7654C23.5762 26.8157 25.0051 27.0123 25.4442 26.0448L28.0394 20.3264C28.6248 19.0422 30.1404 18.4755 31.4247 19.0609C32.709 19.6463 33.2756 21.1619 32.6902 22.4462L25.1841 38.7581L29.7259 50.0211C30.0273 50.7685 29.5532 51.6015 28.7568 51.724L7.59284 54.981C6.81482 55.1007 6.12119 54.4802 6.15381 53.6937L6.66432 41.3729C5.27442 38.9057 4.34153 36.2077 3.91078 33.4089L0.966607 14.278C0.751978 12.8829 1.70874 11.5782 3.10377 11.3634C4.49879 11.1488 5.80356 12.1055 6.01831 13.5006L7.83821 25.326" fill="#DC405C"/>
<path d="M3.26835 13.5006L5.08826 25.326L7.77467 24.9127L6.0184 13.5006C5.80377 12.1056 4.49887 11.1488 3.10385 11.3635C2.74022 11.4195 2.40734 11.5508 2.11621 11.7373C2.71385 12.1192 3.15198 12.7445 3.26835 13.5006Z" fill="#C72F4A"/>
<path d="M17.6463 6.1167L20.6653 25.7654C21 27.3762 23.5 26.2511 23.5 26.2511L20.3963 6.1167C20.1817 4.72168 18.8768 3.76492 17.4818 3.97955C17.1182 4.03555 16.7853 4.16692 16.4941 4.35343C17.0918 4.73531 17.5299 5.36057 17.6463 6.1167Z" fill="#C72F4A"/>
<path d="M31.4248 19.0609C30.6061 18.6877 29.6946 18.7842 28.9888 19.2348C30.0461 19.9084 30.4751 21.2728 29.9402 22.4462L22.4341 38.7581L26.9759 50.0211C27.2773 50.7685 26.8032 51.6015 26.0068 51.724L6.60938 54.7093C6.87225 54.9261 7.22263 55.0382 7.59314 54.9812L28.7568 51.7243C29.5534 51.6016 30.0274 50.7686 29.726 50.0214L25.1842 38.7583L32.6903 22.4464C33.2757 21.1619 32.709 19.6463 31.4248 19.0609Z" fill="#C72F4A"/>
<path d="M6.15443 53.6939C6.1218 54.4804 6.81556 55.1008 7.59357 54.9812L28.7573 51.7242C29.5538 51.6016 30.0278 50.7686 29.7264 50.0213L28.348 46.603L6.31393 49.8433L6.15443 53.6939Z" fill="#F87089"/>
<path d="M61.4439 19.3387C60.8816 19.1819 60.3127 19.1736 59.7782 19.2884L60.6624 16.1149C61.3565 13.6229 59.0637 11.1924 56.5264 11.7713C56.7906 9.64017 54.9943 7.73364 52.8551 7.86051C50.9266 7.97502 49.9681 9.42542 49.4971 11.1159C47.6202 9.35229 44.4316 10.2533 43.7424 12.7278L38.412 31.8791C38.3776 32.0033 38.1999 32.007 38.1608 31.8836L36.2622 25.8963C35.8231 24.5188 34.6041 23.6025 33.2474 23.4785L33.5434 22.8353C34.3423 21.0826 33.5663 19.0069 31.8137 18.2079C30.0764 17.4162 27.9757 18.2063 27.186 19.9391L24.5908 25.6574C24.5372 25.7752 24.3614 25.7513 24.3418 25.6232L21.3225 5.97436C20.932 3.43632 17.8733 2.16205 15.7998 3.69095C15.5344 1.96667 14.7752 0.411898 12.8764 0.0587671C10.7626 -0.334489 8.73081 1.34866 8.74181 3.50457C6.29202 2.63081 3.72673 4.77297 4.12011 7.32888L4.62087 10.5826C2.18083 9.74692 -0.351332 11.8757 0.0402996 14.4209L2.98447 33.5518C3.42023 36.3837 4.33924 39.0895 5.71689 41.5983L5.21726 53.6552C5.16138 55.0048 6.39415 56.1149 7.73567 55.9079L28.8994 52.651C30.2664 52.4406 31.1153 50.9598 30.5954 49.6708L26.2048 38.7828L30.246 30.0005L34.9995 44.7245L29.3474 55.0141C28.6787 56.2314 29.3446 57.8032 30.6777 58.1747L51.3051 63.921C52.6099 64.2847 53.9681 63.334 54.0731 61.9834L55.0084 49.9523C56.6741 47.6249 57.9078 45.0474 58.6767 42.2872L59.6265 38.8781C59.9496 37.7185 58.1438 37.2137 57.8202 38.375L56.8704 41.784C56.1383 44.4125 54.9497 46.8613 53.3376 49.0627C53.2346 49.2034 53.1729 49.37 53.1594 49.5439L52.5825 56.9647L33.3572 51.6088L36.8375 45.2729C36.9618 45.0466 36.9873 44.7791 36.9079 44.5335L31.3923 27.4491C30.7642 25.479 33.8411 24.4763 34.475 26.4647L36.373 32.4507C36.9624 34.3091 39.6954 34.2599 40.2181 32.3823L45.5481 13.2311C46.0998 11.2519 49.2357 12.0522 48.6656 14.0995L44.0831 30.549C43.7601 31.7086 45.5658 32.2134 45.8894 31.0521L50.4718 14.6027V14.6026L51.5005 10.9101C52.0519 8.93078 55.1883 9.73129 54.6178 11.7785L49.0066 31.9205C48.6709 33.1257 50.4945 33.5667 50.8128 32.4237L55.7382 14.7434C56.2982 12.7337 59.4155 13.602 58.8556 15.6118L57.1414 21.7649C57.1413 21.7654 57.1411 21.7659 57.1409 21.7664L53.9301 33.2922C53.6073 34.4516 55.4118 34.9603 55.7364 33.7953L58.9477 22.2677C59.5097 20.26 62.6242 21.1293 62.0645 23.138L59.3867 32.75C59.0637 33.9097 60.8694 34.4146 61.193 33.2532L63.8708 23.6411C64.3883 21.7855 63.2993 19.8555 61.4439 19.3387ZM52.4346 58.8697L52.2039 61.838C52.1887 62.0326 51.9966 62.1675 51.8085 62.1147L31.181 56.3684C30.9883 56.3148 30.8948 56.0921 30.991 55.9169L32.4302 53.2969L52.4346 58.8697ZM24.3147 39.1089L27.0182 45.8132L23.982 46.2805C22.7948 46.4631 23.0755 48.3175 24.2672 48.1337L27.7385 47.5994L28.8565 50.3718C28.9314 50.5573 28.8119 50.7672 28.6142 50.7976L7.45042 54.0547C7.25741 54.0846 7.08253 53.928 7.09066 53.733L7.21391 50.7582L18.5171 49.0188C19.7069 48.8358 19.4232 46.9815 18.232 47.1656L7.29304 48.849L7.60117 41.4123C7.60842 41.238 7.56692 41.0653 7.48129 40.9133C6.14214 38.5363 5.25263 35.9636 4.83762 33.2669L1.89345 14.1356C1.57595 12.0723 4.7735 11.5796 5.09175 13.6427L6.91178 25.4688C7.08641 26.6049 8.96244 26.4663 8.76494 25.1837L6.94503 13.3582C6.94491 13.3577 6.94491 13.3574 6.94478 13.3569L5.97327 7.04363C5.65601 4.98159 8.85444 4.48946 9.17169 6.55137L11.9634 24.6914C12.138 25.8278 14.014 25.6884 13.8165 24.4063L10.6362 3.74045C10.3186 1.67679 13.517 1.18466 13.8346 3.24819L17.0149 23.914C17.1981 25.1042 19.0516 24.8203 18.8681 23.6289L16.2709 6.75175C15.9533 4.68822 19.152 4.19583 19.4694 6.25936L22.4884 25.9081C22.7847 27.8353 25.4914 28.21 26.2982 26.4324L28.8928 20.7155C29.7568 18.8193 32.7063 20.1512 31.8387 22.0545C31.5542 22.6727 31.0459 23.403 30.9473 24.0848C29.9315 24.7884 29.354 25.9937 29.4538 27.2374L24.3327 38.3665C24.2246 38.6009 24.2182 38.8695 24.3147 39.1089Z" fill="black"/>
</svg>
