<svg width="64" height="64" viewBox="0 0 64 64" fill="none" xmlns="http://www.w3.org/2000/svg">
<path d="M38.9912 42.9995L42.9907 39L47.9899 43.9992L43.9904 47.9987L38.9912 42.9995Z" fill="#9DA1BF"/>
<path d="M62 54L49 41L41 49L54 62" fill="#363A4F"/>
<path d="M3 62V39.944C3 34.062 4.369 28.261 7 23H19C21.631 28.261 23 34.062 23 39.944V62" fill="#F2B9A1"/>
<path d="M19 23H7C4.37 28.261 3 34.062 3 39.944V55H16C18.209 55 20 53.209 20 51V25.182C19.689 24.446 19.358 23.717 19 23Z" fill="#FBE1CA"/>
<path d="M7 23C6.642 23.717 6.311 24.446 6 25.182V37C6 38.105 6.895 39 8 39H16C17.105 39 18 38.105 18 37V23H7Z" fill="#F2B9A1"/>
<path d="M15 38H11C8.791 38 7 36.209 7 34V17L7.504 16.664C9.131 15.579 11.044 15 13 15C14.956 15 16.869 15.579 18.496 16.664L19 17V34C19 36.209 17.209 38 15 38Z" fill="#E1656E"/>
<path d="M16 32V15.475C15.034 15.167 14.025 15 13 15C11.044 15 9.131 15.579 7.504 16.664L7 17V34H14C15.105 34 16 33.105 16 32Z" fill="#F29B99"/>
<path d="M9.5 33C10.3284 33 11 32.3284 11 31.5C11 30.6716 10.3284 30 9.5 30C8.67157 30 8 30.6716 8 31.5C8 32.3284 8.67157 33 9.5 33Z" fill="#E1656E"/>
<path d="M12.5 26C14.433 26 16 24.433 16 22.5C16 20.567 14.433 19 12.5 19C10.567 19 9 20.567 9 22.5C9 24.433 10.567 26 12.5 26Z" fill="#E1656E"/>
<path d="M19.4453 55.832C17.6473 54.633 15.5563 54 13.3953 54H12.6063C10.4453 54 8.35329 54.633 6.55529 55.832L5.44629 54.168C7.57229 52.75 10.0493 52 12.6053 52H13.3943C15.9513 52 18.4273 52.75 20.5543 54.168L19.4453 55.832Z" fill="#F2B9A1"/>
<path d="M6.555 55.832C7.033 55.513 7.533 55.237 8.048 55H6L6.555 55.832Z" fill="#FBE1CA"/>
<path d="M20.5554 54.168C20.1174 53.876 19.6614 53.619 19.1954 53.384C18.7324 54.003 18.0994 54.478 17.3604 54.746C18.0874 55.03 18.7864 55.392 19.4454 55.831L20.5554 54.168Z" fill="#FBE1CA"/>
<path d="M17.6836 50.9489L16.5806 50.5809C14.2686 49.8099 11.7306 49.8099 9.41862 50.5809L8.31562 50.9489L7.68262 49.0519L8.78562 48.6839C11.5086 47.7769 14.4906 47.7769 17.2136 48.6839L18.3166 49.0519L17.6836 50.9489Z" fill="#F2B9A1"/>
<path d="M47 37L12 2C9.439 2 6.983 3.017 5.172 4.828L4.828 5.172C3.017 6.983 2 9.439 2 12L37 47L47 37Z" fill="#787FAA"/>
<path d="M12 2C9.439 2 6.983 3.017 5.172 4.828L5 5L34.172 34.172C35.734 35.734 38.267 35.734 39.829 34.172L42 32L12 2Z" fill="#9DA1BF"/>
<path d="M61.9999 54L51.4999 43.5L47.4139 47.586C46.6329 48.367 46.6329 49.633 47.4139 50.414L56.4999 59.5L61.9999 54Z" fill="#4C506E"/>
<path d="M5 15H25L23 13H3L5 15Z" fill="#363A4F"/>
<path d="M2.05371 11H20.9997L18.9997 9H2.48571C2.27371 9.647 2.12471 10.316 2.05371 11Z" fill="#363A4F"/>
<path d="M31 21H11L13 23H33L31 21Z" fill="#363A4F"/>
<path d="M27 17H7L9 19H29L27 17Z" fill="#363A4F"/>
<path d="M39 29H19L21 31H41L39 29Z" fill="#363A4F"/>
<path d="M35 25H15L17 27H37L35 25Z" fill="#363A4F"/>
<path d="M29 39H45L47 37H27L29 39Z" fill="#363A4F"/>
<path d="M43 41H31L33 43H41L43 41Z" fill="#363A4F"/>
<path d="M43 33H23L25 35H45L43 33Z" fill="#363A4F"/>
<path d="M16.9992 7L14.9992 5H4.99923L4.82723 5.172C4.27523 5.724 3.80623 6.343 3.40723 7H16.9992Z" fill="#363A4F"/>
<path d="M6.55529 56.832C8.35329 55.634 10.4453 55 12.6053 55H13.3943C15.5543 55 17.6473 55.634 19.4453 56.832L20.5543 55.168C18.4273 53.75 15.9513 53 13.3953 53H12.6063C10.0493 53 7.57429 53.75 5.44629 55.168L6.55529 56.832Z" fill="black"/>
<path d="M16.5806 51.5819L17.6836 51.9489L18.3166 50.0509L17.2136 49.6849C14.4886 48.7769 11.5106 48.7779 8.78562 49.6839L7.68262 50.0509L8.31562 51.9489L9.41862 51.5809C11.7326 50.8099 14.2666 50.8089 16.5806 51.5819Z" fill="black"/>
<path d="M6.117 17.531C6.042 17.673 6 17.834 6 18V23.78C3.387 29.094 2 35.021 2 40.944V63H4V40.944C4 36.896 4.693 32.848 6 29.014V35C6 37.757 8.243 40 11 40H15C17.757 40 20 37.757 20 35V31.414L20.993 32.407C21.659 35.204 22 38.074 22 40.944V63H24V40.944C24 38.93 23.826 36.919 23.515 34.928L36.293 47.706C36.488 47.902 36.744 48 37 48C37.256 48 37.512 47.902 37.707 47.707L40 45.414L41.586 47L40.293 48.293C39.902 48.684 39.902 49.316 40.293 49.707L53.293 62.707L54.707 61.293L42.414 49L49 42.414L61.293 54.707L62.707 53.293L49.707 40.293C49.316 39.902 48.684 39.902 48.293 40.293L47 41.586L45.414 40L47.707 37.707C48.098 37.316 48.098 36.684 47.707 36.293L12.707 1.293C12.52 1.105 12.266 1 12 1C9.153 1 6.478 2.108 4.466 4.121L4.121 4.464C2.108 6.478 1 9.154 1 12C1 12.265 1.105 12.52 1.293 12.707L6.117 17.531ZM3.064 11H19.586L21.586 13H4.414L3.009 11.595C3.018 11.395 3.041 11.198 3.064 11ZM15.586 7L17.586 9H3.54C3.801 8.292 4.153 7.62 4.594 7H15.586ZM22.414 31H39.586L41.586 33H24.414L22.414 31ZM20.414 29L18.414 27H35.586L37.586 29H20.414ZM16.414 25L14.414 23H31.586L33.586 25H16.414ZM12.414 21L10.414 19H27.586L29.586 21H12.414ZM8.414 17L6.414 15H23.586L25.586 17H8.414ZM18 35C18 36.654 16.654 38 15 38H11C9.346 38 8 36.654 8 35V19.414L18 29.414V35ZM41.586 41H32.414L30.414 39H43.586L41.586 41ZM37 45.586L34.414 43H39.586L37 45.586ZM45.586 43L43 45.586L41.414 44L44 41.414L45.586 43ZM28.414 37L26.414 35H43.586L45.586 37H28.414ZM13.585 5H6.465C7.914 3.791 9.698 3.096 11.594 3.009L13.585 5Z" fill="black"/>
<path d="M48.2933 45.293L45.2932 48.293C44.9022 48.684 44.9022 49.316 45.2932 49.707L58.2933 62.707L59.7073 61.293L47.4143 49L49.7073 46.707L48.2933 45.293Z" fill="black"/>
</svg>
