<svg width="64" height="64" viewBox="0 0 64 64" fill="none" xmlns="http://www.w3.org/2000/svg">
<path d="M40.0024 39.4194V7.77002C40.0024 3.47852 36.5239 0 32.2329 0C27.9414 0 24.4629 3.47852 24.4629 7.77002V39.4194C20.9863 41.8652 18.7148 45.9082 18.7148 50.4819C18.7148 57.9478 24.7671 64 32.2329 64C39.6987 64 45.751 57.9478 45.751 50.4819C45.751 45.9082 43.479 41.8652 40.0024 39.4194Z" fill="#D8D8D8"/>
<path d="M32.2334 59.5728C27.0854 59.5728 22.8975 55.3843 22.8975 50.2368C22.8975 46.3276 25.3267 42.8472 28.9717 41.4893V7.77002C28.9717 5.97119 30.4346 4.5083 32.2334 4.5083C34.0317 4.5083 35.4951 5.97119 35.4951 7.77002V41.4893C39.1396 42.8467 41.5693 46.3271 41.5693 50.2363C41.5693 55.3843 37.3813 59.5728 32.2334 59.5728Z" fill="#F3E8D7"/>
<path d="M28.9707 37.356V41.4893C25.3262 42.8472 22.8965 46.3276 22.8965 50.2368C22.8965 55.3843 27.085 59.5728 32.2329 59.5728C37.3804 59.5728 41.5688 55.3843 41.5688 50.2368C41.5688 46.3276 39.1392 42.8472 35.4946 41.4893V37.356H28.9707Z" fill="#69E6ED"/>
<path d="M35.4956 41.4893V37.356H28.9722V41.4893C28.9722 41.4893 33.4814 43.5815 33.4814 50.2368C33.4814 53.9365 31.3179 57.1406 28.1895 58.6504C29.4136 59.2412 30.7856 59.5728 32.2339 59.5728C37.3813 59.5728 41.5698 55.3843 41.5698 50.2368C41.5698 46.3271 39.1401 42.8472 35.4956 41.4893Z" fill="#33D8DD"/>
<path d="M50.7651 22.5273H45.1621C44.6284 22.5273 44.1963 22.0947 44.1963 21.5615C44.1963 21.0283 44.6284 20.5957 45.1621 20.5957H50.7651C51.2983 20.5957 51.7305 21.0283 51.7305 21.5615C51.731 22.0947 51.2983 22.5273 50.7651 22.5273Z" fill="#0D6E9A"/>
<path d="M47.7061 14.6997H45.1621C44.6284 14.6997 44.1963 14.2671 44.1963 13.7339C44.1963 13.2007 44.6284 12.7681 45.1621 12.7681H47.7061C48.2393 12.7681 48.6719 13.2007 48.6719 13.7339C48.6719 14.2671 48.2393 14.6997 47.7061 14.6997Z" fill="#0D6E9A"/>
<path d="M48.6074 6.87207H45.1621C44.6284 6.87207 44.1963 6.43945 44.1963 5.90625C44.1963 5.37305 44.6284 4.94043 45.1621 4.94043H48.6074C49.1411 4.94043 49.5732 5.37305 49.5732 5.90625C49.5732 6.43945 49.1411 6.87207 48.6074 6.87207Z" fill="#0D6E9A"/>
<path d="M48.6074 38.1826H45.1621C44.6284 38.1826 44.1963 37.75 44.1963 37.2168C44.1963 36.6831 44.6284 36.251 45.1621 36.251H48.6074C49.1411 36.251 49.5732 36.6831 49.5732 37.2168C49.5732 37.75 49.1411 38.1826 48.6074 38.1826Z" fill="#0D6E9A"/>
<path d="M47.7061 30.355H45.1621C44.6284 30.355 44.1963 29.9224 44.1963 29.3892C44.1963 28.856 44.6284 28.4233 45.1621 28.4233H47.7061C48.2393 28.4233 48.6719 28.856 48.6719 29.3892C48.6719 29.9224 48.2393 30.355 47.7061 30.355Z" fill="#0D6E9A"/>
<path d="M18.96 19.2368L17.3115 18.314L18.5234 17.8174C19.0171 17.6152 19.2534 17.0513 19.0513 16.5581C18.8491 16.0645 18.2847 15.8281 17.7915 16.0303L15.1587 17.1089L11.7036 15.1743L15.1587 13.2397L17.7915 14.3184C17.9116 14.3672 18.0352 14.3906 18.1572 14.3906C18.5376 14.3906 18.8984 14.1641 19.0513 13.7905C19.2534 13.2969 19.0171 12.7329 18.5239 12.5308L17.312 12.0342L18.96 11.1113C19.4253 10.8506 19.5913 10.2622 19.3306 9.79688C19.0703 9.33154 18.4819 9.16553 18.0161 9.42578L16.3682 10.3486L16.5781 9.05615C16.6641 8.5293 16.3066 8.0332 15.7798 7.94775C15.2539 7.86182 14.7573 8.21973 14.6719 8.74609L14.2153 11.5542L10.6929 13.5269V9.48975L12.9199 7.71924C13.3379 7.3877 13.4072 6.77979 13.0752 6.3623C12.7437 5.94482 12.1357 5.87549 11.7183 6.20703L10.6929 7.02246V5.1333C10.6929 4.6001 10.2607 4.16748 9.72706 4.16748C9.19386 4.16748 8.76124 4.6001 8.76124 5.1333V7.02246L7.73585 6.20752C7.31837 5.87549 6.71094 5.94482 6.37891 6.3623C6.04737 6.78027 6.11671 7.3877 6.53419 7.71973L8.76124 9.48975V13.5269L5.23878 11.5542L4.78223 8.74609C4.69678 8.21973 4.20069 7.86182 3.67432 7.94775C3.14747 8.0332 2.79005 8.5293 2.87598 9.05615L3.08594 10.3486L1.438 9.42578C0.972664 9.16553 0.383796 9.33154 0.123542 9.79688C-0.1372 10.2622 0.0288159 10.8511 0.494148 11.1113L2.14259 12.0342L0.930183 12.5308C0.437019 12.7329 0.200691 13.2969 0.402839 13.7905C0.555671 14.1641 0.916511 14.3906 1.29688 14.3906C1.41895 14.3906 1.54298 14.3672 1.6626 14.3184L4.29542 13.2397L7.7505 15.1743L4.29542 17.1089L1.6626 16.0303C1.16846 15.8281 0.604988 16.0645 0.402839 16.5581C0.200691 17.0513 0.437019 17.6157 0.930183 17.8174L2.1421 18.314L0.494148 19.2368C0.0288159 19.4976 -0.1372 20.0859 0.123054 20.5513C0.3003 20.8677 0.628425 21.0454 0.966804 21.0454C1.12647 21.0454 1.28858 21.0059 1.438 20.9224L3.08594 19.9995L2.87598 21.2925C2.79005 21.8188 3.14747 22.3149 3.67432 22.4009C3.72657 22.4092 3.77882 22.4136 3.83009 22.4136C4.29542 22.4136 4.70557 22.0762 4.78223 21.6025L5.23878 18.7939L8.76124 16.8218V20.8589L6.5337 22.6289C6.11622 22.9609 6.04688 23.5684 6.37891 23.9858C6.71046 24.4038 7.31837 24.4731 7.73585 24.1411L8.76124 23.3262V25.2153C8.76124 25.7485 9.19337 26.1807 9.72706 26.1807C10.2603 26.1807 10.6929 25.7485 10.6929 25.2153V23.3262L11.7183 24.1411C11.896 24.2822 12.1074 24.3511 12.3184 24.3511C12.6025 24.3511 12.8843 24.2261 13.0747 23.9858C13.4067 23.5684 13.3374 22.9609 12.9199 22.6289L10.6924 20.8589V16.8218L14.2149 18.7939L14.6714 21.6025C14.7481 22.0767 15.1582 22.4136 15.6235 22.4136C15.6748 22.4136 15.7271 22.4092 15.7793 22.4009C16.3062 22.3149 16.6636 21.8188 16.5781 21.2925L16.3677 19.9995L18.0161 20.9224C18.165 21.0059 18.3272 21.0454 18.4868 21.0454C18.8252 21.0454 19.1533 20.8677 19.3306 20.5513C19.5913 20.0859 19.4253 19.4976 18.96 19.2368Z" fill="#33D8DD"/>
</svg>
