<svg width="24" height="24" fill="none" xmlns="http://www.w3.org/2000/svg"><path d="M20.16 6.84c-2.88-4.44-8.76-5.76-13.32-3-4.44 2.76-5.88 8.76-3 13.2l.24.36-.96 3.6 3.6-.96.36.24c1.56.84 3.24 1.32 4.92 1.32 1.8 0 3.6-.48 5.16-1.44 4.44-2.88 5.76-8.76 3-13.32zm-2.52 9.24c-.48.72-1.08 1.2-1.92 1.32-.48 0-1.08.24-3.48-.72-2.04-.96-3.72-2.52-4.92-4.32-.72-.84-1.08-1.92-1.2-3 0-.96.36-1.8.96-2.4.24-.24.48-.36.72-.36h.6c.24 0 .48 0 .6.48.24.6.84 2.04.84 2.16.12.12.12.36 0 .48.12.24 0 .48-.12.6s-.24.36-.36.48c-.24.12-.36.36-.24.6.48.72 1.08 1.44 1.68 2.04.72.6 1.44 1.08 2.28 1.44.24.12.48.12.6-.12s.72-.84.96-1.08c.24-.24.36-.24.6-.12l1.92.96c.24.12.48.24.6.36.12.36.12.84-.12 1.2z" fill="#DC405C"/></svg>