<svg width="64" height="64" fill="none" xmlns="http://www.w3.org/2000/svg"><path d="M26.403 51.613v8.258a3.097 3.097 0 003.097 3.097h6.63a3.097 3.097 0 003.096-3.097v-4.129l-12.823-4.13z" fill="#FF8086"/><path d="M30.968 55.742h8.258v-4.13H24.774v8.259L28.904 64v-6.194c0-1.14.924-2.064 2.064-2.064z" fill="#E5646E"/><path d="M44.388 1.4H20.612c-1.14 0-2.064.924-2.064 2.064 0 1.13.06 2.26.18 3.385l4.981 45.86h15.726l2.076-1.096 4.762-44.764c.096-.904.154-1.811.172-2.72.005-.221-.413-.443-.413-.665 0-1.14-.504-2.065-1.644-2.065z" fill="#F4DBB3"/><path d="M35.097 35.097h-6.194a2.064 2.064 0 100 4.129h6.194a2.065 2.065 0 000-4.13z" fill="#DC405C"/><path d="M35.097 44.387h-6.194a1.032 1.032 0 110-2.064h6.194a1.032 1.032 0 110 2.064z" fill="#C38C66"/><path d="M44.388 0H19.613c-1.14 0-2.064.924-2.064 2.064v1.4c0 .283.021.566.019.849a14.6 14.6 0 00.07 1.686l4.876 45.832a2.064 2.064 0 002.053 1.846h14.867a2.065 2.065 0 002.053-1.846l.023-.218H26.631a2.065 2.065 0 01-2.053-1.846L19.966 6.412a2.064 2.064 0 012.053-2.283h24.426l.007-2.064C46.452.925 45.528 0 44.388 0z" fill="#EAC89F"/><path d="M32 29.935a8.258 8.258 0 100-16.516 8.258 8.258 0 000 16.516z" fill="#FF9A9F"/><path d="M32 27.87a6.193 6.193 0 100-12.386 6.193 6.193 0 000 12.387z" fill="#DC405C"/><path d="M24.774 59.871v1.032A3.097 3.097 0 0027.871 64h8.258a3.097 3.097 0 003.097-3.097v-1.032H24.774z" fill="#E5646E"/><path d="M24.774 59.871v1.032A3.097 3.097 0 0027.871 64h1.032v-4.129h-4.129z" fill="#DB4655"/></svg>