<svg width="64" height="64" fill="none" xmlns="http://www.w3.org/2000/svg"><path d="M32 63.25c17.259 0 31.25-13.991 31.25-31.25S49.259.75 32 .75.75 14.741.75 32 14.741 63.25 32 63.25z" fill="url(#paint0_linear_50_68)"/><path opacity=".49" d="M62.935 36.438L42.55 16.052H21.16v7.105l6.506 6.506-1.12 1.84v1.737l7.113 7.113a3.671 3.671 0 01-1.626.422l-3.654-3.654h-8.001c.09 3.132 1.222 5.773 3.129 7.663l17.226 17.227c11.63-3.38 20.461-13.334 22.202-25.575z" fill="url(#paint1_linear_50_68)"/><path d="M36.293 27.5c4.47 1.122 7.329 4.74 7.329 9.568 0 6.34-4.913 10.88-11.753 10.88-6.699 0-11.304-4.373-11.491-10.826h8.001c.094 2.198 1.46 3.658 3.51 3.658 2.13 0 3.625-1.569 3.625-3.847s-1.548-3.692-3.974-3.692h-4.993v-1.737l5.076-8.346H21.16v-7.105h21.39v1.432l-6.257 10.016z" fill="#fff"/><defs><linearGradient id="paint0_linear_50_68" x1=".75" y1="32" x2="63.25" y2="32" gradientUnits="userSpaceOnUse"><stop stop-color="#DC405C"/><stop offset=".5" stop-color="#E31E42"/><stop offset="1" stop-color="#DA0027"/></linearGradient><linearGradient id="paint1_linear_50_68" x1="19.911" y1="17.302" x2="55.4" y2="52.791" gradientUnits="userSpaceOnUse"><stop/><stop offset="1" stop-opacity="0"/></linearGradient></defs></svg>