<svg width="64" height="64" fill="none" xmlns="http://www.w3.org/2000/svg"><path d="M49.91 32.172l4.926-17.68a2.555 2.555 0 114.923 1.371l-4.925 17.68" fill="#DC405C"/><path d="M57.984 12.715a2.547 2.547 0 00-2.059.31 2.556 2.556 0 011.085 2.838l-4.728 16.97 2.552.71 4.926-17.68a2.556 2.556 0 00-1.776-3.148z" fill="#C72F4A"/><path d="M44.986 30.8l5.611-20.142a2.556 2.556 0 014.924 1.372L49.91 32.172" fill="#DC405C"/><path d="M53.745 8.882a2.547 2.547 0 00-2.057.31 2.556 2.556 0 011.084 2.837l-5.414 19.432 2.552.71 5.612-20.142a2.556 2.556 0 00-1.776-3.147z" fill="#C72F4A"/><path d="M44.986 30.8l4.583-16.45a2.556 2.556 0 00-4.924-1.371l-5.33 19.151c-.285 1.024-1.727 1.05-2.049.037l-1.898-5.986a2.556 2.556 0 00-4.87 1.552l5.518 17.088-5.847 10.645a1.25 1.25 0 00.76 1.806l20.627 5.746a1.25 1.25 0 001.582-1.107l.956-12.295a23.511 23.511 0 003.68-7.58l5.194-18.647a2.556 2.556 0 00-4.924-1.371l-3.21 11.526" fill="#DC405C"/><path d="M46.82 14.35L42.5 30.127l2.487.674 4.582-16.45a2.556 2.556 0 00-1.776-3.147 2.547 2.547 0 00-2.058.31 2.557 2.557 0 011.084 2.838zm-14.2 11.83l1.897 5.987c.321 1.013 1.764.987 2.048-.037l.323-1.16-1.518-4.79a2.556 2.556 0 00-3.808-1.375c.485.31.869.784 1.057 1.376zm28.573-5.939a2.546 2.546 0 00-2.058.31 2.556 2.556 0 011.084 2.838l-5.195 18.646a23.51 23.51 0 01-3.68 7.581L50.39 61.91a1.24 1.24 0 01-.287.702l1.456.405a1.25 1.25 0 001.581-1.107l.956-12.294a23.511 23.511 0 003.68-7.58l5.194-18.647a2.556 2.556 0 00-1.776-3.148z" fill="#C72F4A"/><path d="M30.169 55.465a1.25 1.25 0 00.76 1.806l20.627 5.747a1.25 1.25 0 001.582-1.108l.296-3.81-21.446-5.946-1.82 3.311z" fill="#F87089"/><path d="M12.89 24.549l-2.792-18.14a2.556 2.556 0 10-5.051.777l2.791 18.14" fill="#DC405C"/><path d="M10.098 6.409a2.556 2.556 0 00-3.902-1.764A2.547 2.547 0 017.348 6.41l2.776 18.467 2.766-.327-2.792-18.14z" fill="#C72F4A"/><path d="M17.942 23.771l-3.18-20.666a2.556 2.556 0 00-5.052.778l3.18 20.666" fill="#DC405C"/><path d="M14.772 3.171c-.203-1.32-1.366-2.313-2.698-2.227a2.55 2.55 0 00-1.215.398 2.547 2.547 0 011.152 1.763l3.18 20.666s.024.127.059.355l2.692-.355-3.17-20.6z" fill="#C72F4A"/><path d="M17.941 23.771L15.344 6.894a2.556 2.556 0 015.052-.777l3.019 19.648c.161 1.05 1.59 1.247 2.03.28l2.594-5.719a2.556 2.556 0 014.651 2.12l-7.506 16.312 4.542 11.263a1.25 1.25 0 01-.97 1.703L7.594 54.981a1.25 1.25 0 01-1.44-1.287l.511-12.321a23.513 23.513 0 01-2.753-7.964L.967 14.278a2.556 2.556 0 015.051-.777l1.82 11.825" fill="#DC405C"/><path d="M3.268 13.5l1.82 11.826 2.687-.413L6.018 13.5a2.555 2.555 0 00-3.902-1.764A2.547 2.547 0 013.268 13.5zm14.378-7.383l3.02 19.648c.334 1.611 2.834.486 2.834.486L20.396 6.117a2.555 2.555 0 00-3.902-1.764 2.547 2.547 0 011.152 1.764zM31.425 19.06a2.551 2.551 0 00-2.436.175 2.554 2.554 0 01.951 3.211l-7.506 16.312 4.542 11.263a1.25 1.25 0 01-.97 1.703L6.61 54.709c.263.217.614.33.984.272l21.164-3.257a1.25 1.25 0 00.969-1.703l-4.542-11.263 7.506-16.312a2.556 2.556 0 00-1.265-3.385z" fill="#C72F4A"/><path d="M6.154 53.694a1.25 1.25 0 001.44 1.287l21.163-3.257a1.25 1.25 0 00.97-1.703l-1.379-3.418-22.034 3.24-.16 3.85z" fill="#F87089"/><path d="M61.444 19.339a3.47 3.47 0 00-1.666-.05l.884-3.174c.694-2.492-1.598-4.923-4.136-4.344.265-2.13-1.532-4.037-3.67-3.91-1.93.114-2.888 1.564-3.359 3.255-1.877-1.764-5.065-.863-5.755 1.612l-5.33 19.151c-.034.124-.212.128-.251.005l-1.899-5.988a3.498 3.498 0 00-3.015-2.418l.296-.643a3.497 3.497 0 00-1.73-4.627c-1.737-.792-3.837-.002-4.627 1.731l-2.595 5.718c-.054.118-.23.094-.25-.034L21.324 5.974c-.391-2.538-3.45-3.812-5.523-2.283-.266-1.724-1.025-3.28-2.924-3.632-2.113-.393-4.145 1.29-4.134 3.446-2.45-.874-5.015 1.268-4.622 3.824l.5 3.254C2.18 9.747-.35 11.876.04 14.42l2.944 19.13a24.36 24.36 0 002.733 8.047l-.5 12.057c-.056 1.35 1.177 2.46 2.519 2.253l21.163-3.257c1.367-.21 2.216-1.691 1.696-2.98l-4.39-10.888L30.246 30l4.753 14.724-5.652 10.29c-.668 1.217-.002 2.79 1.33 3.16l20.628 5.747c1.305.364 2.663-.587 2.768-1.938l.935-12.03a24.359 24.359 0 003.669-7.666l.95-3.409c.323-1.16-1.483-1.664-1.807-.503l-.95 3.409a22.49 22.49 0 01-3.532 7.279.937.937 0 00-.179.48l-.576 7.422-19.226-5.356 3.48-6.336a.937.937 0 00.07-.74L31.393 27.45c-.628-1.97 2.45-2.973 3.083-.984l1.898 5.986c.59 1.858 3.322 1.809 3.845-.069l5.33-19.15c.552-1.98 3.688-1.18 3.118.868L44.084 30.55c-.323 1.16 1.483 1.664 1.806.503l4.583-16.45L51.5 10.91c.55-1.98 3.687-1.179 3.117.868l-5.611 20.143c-.336 1.205 1.488 1.646 1.806.503l4.925-17.68c.56-2.01 3.678-1.142 3.118.868l-1.715 6.153v.001l-3.21 11.526c-.324 1.16 1.48 1.668 1.805.503l3.212-11.527c.562-2.008 3.676-1.139 3.117.87l-2.678 9.612c-.323 1.16 1.482 1.665 1.806.503l2.678-9.612a3.496 3.496 0 00-2.427-4.302zm-9.01 39.53l-.23 2.969a.314.314 0 01-.395.277L31.18 56.368a.314.314 0 01-.19-.451l1.44-2.62 20.004 5.573zm-28.12-19.76l2.704 6.704-3.036.468c-1.187.182-.906 2.037.285 1.853l3.471-.535 1.119 2.773a.314.314 0 01-.243.426L7.45 54.055a.314.314 0 01-.36-.322l.124-2.975 11.303-1.74c1.19-.182.906-2.037-.285-1.852L7.293 48.849l.308-7.437a.937.937 0 00-.12-.499 22.496 22.496 0 01-2.643-7.646L1.893 14.136c-.317-2.064 2.88-2.556 3.199-.493l1.82 11.826c.174 1.136 2.05.997 1.853-.285l-1.82-11.826v-.001l-.972-6.313c-.317-2.062 2.881-2.555 3.199-.493l2.791 18.14c.175 1.137 2.051.997 1.854-.285L10.636 3.74c-.318-2.063 2.88-2.555 3.198-.492l3.18 20.666c.183 1.19 2.037.906 1.853-.285L16.271 6.752c-.318-2.064 2.881-2.556 3.198-.493l3.02 19.65c.296 1.926 3.002 2.301 3.81.523l2.594-5.716c.864-1.897 3.813-.565 2.946 1.338-.285.619-.793 1.349-.892 2.03a3.505 3.505 0 00-1.493 3.153l-5.121 11.13a.937.937 0 00-.018.742z" fill="#000"/></svg>