<svg width="64" height="64" fill="none" xmlns="http://www.w3.org/2000/svg"><path d="M38.991 43l4-4 4.999 5-4 3.999-4.999-5z" fill="#9DA1BF"/><path d="M62 54L49 41l-8 8 13 13" fill="#363A4F"/><path d="M3 62V39.944A37.88 37.88 0 017 23h12a37.88 37.88 0 014 16.944V62" fill="#F2B9A1"/><path d="M19 23H7a37.894 37.894 0 00-4 16.944V55h13a4 4 0 004-4V25.182A37.93 37.93 0 0019 23z" fill="#FBE1CA"/><path d="M7 23a37.93 37.93 0 00-1 2.182V37a2 2 0 002 2h8a2 2 0 002-2V23H7z" fill="#F2B9A1"/><path d="M15 38h-4a4 4 0 01-4-4V17l.504-.336a9.907 9.907 0 0110.992 0L19 17v17a4 4 0 01-4 4z" fill="#E1656E"/><path d="M16 32V15.475A9.87 9.87 0 0013 15a9.907 9.907 0 00-5.496 1.664L7 17v17h7a2 2 0 002-2z" fill="#F29B99"/><path d="M9.5 33a1.5 1.5 0 100-3 1.5 1.5 0 000 3zm3-7a3.5 3.5 0 100-7 3.5 3.5 0 000 7z" fill="#E1656E"/><path d="M19.445 55.832A10.867 10.867 0 0013.395 54h-.789a10.87 10.87 0 00-6.05 1.832l-1.11-1.664A12.865 12.865 0 0112.606 52h.788c2.557 0 5.033.75 7.16 2.168l-1.109 1.664z" fill="#F2B9A1"/><path d="M6.555 55.832A10.88 10.88 0 018.048 55H6l.555.832zm14-1.664a12.975 12.975 0 00-1.36-.784 3.984 3.984 0 01-1.835 1.362c.727.284 1.426.646 2.085 1.085l1.11-1.663z" fill="#FBE1CA"/><path d="M17.684 50.949l-1.103-.368a11.377 11.377 0 00-7.162 0l-1.103.368-.633-1.897 1.103-.368a13.392 13.392 0 018.428 0l1.103.368-.633 1.897z" fill="#F2B9A1"/><path d="M47 37L12 2a9.656 9.656 0 00-6.828 2.828l-.344.344A9.656 9.656 0 002 12l35 35 10-10z" fill="#787FAA"/><path d="M12 2a9.656 9.656 0 00-6.828 2.828L5 5l29.172 29.172a4 4 0 005.657 0L42 32 12 2z" fill="#9DA1BF"/><path d="M62 54L51.5 43.5l-4.086 4.086a2 2 0 000 2.828L56.5 59.5 62 54z" fill="#4C506E"/><path d="M5 15h20l-2-2H3l2 2zm-2.946-4H21l-2-2H2.486a9.61 9.61 0 00-.432 2zM31 21H11l2 2h20l-2-2zm-4-4H7l2 2h20l-2-2zm12 12H19l2 2h20l-2-2zm-4-4H15l2 2h20l-2-2zm-6 14h16l2-2H27l2 2zm14 2H31l2 2h8l2-2zm0-8H23l2 2h20l-2-2zM17 7l-2-2H5l-.173.172A9.676 9.676 0 003.407 7H17z" fill="#363A4F"/><path d="M6.555 56.832A10.878 10.878 0 0112.605 55h.79c2.16 0 4.252.634 6.05 1.832l1.11-1.664A12.867 12.867 0 0013.394 53h-.789c-2.557 0-5.032.75-7.16 2.168l1.11 1.664zm10.025-5.25l1.104.367.633-1.898-1.103-.366a13.392 13.392 0 00-8.428-.001l-1.103.367.633 1.898 1.103-.368a11.363 11.363 0 017.162 0z" fill="#000"/><path d="M6.117 17.531A1.006 1.006 0 006 18v5.78a39.092 39.092 0 00-4 17.164V63h2V40.944c0-4.048.693-8.096 2-11.93V35c0 2.757 2.243 5 5 5h4c2.757 0 5-2.243 5-5v-3.586l.993.993A36.89 36.89 0 0122 40.944V63h2V40.944c0-2.014-.174-4.025-.485-6.016l12.778 12.778a.994.994 0 001.414.001L40 45.414 41.586 47l-1.293 1.293a.999.999 0 000 1.414l13 13 1.414-1.414L42.414 49 49 42.414l12.293 12.293 1.414-1.414-13-13a.999.999 0 00-1.414 0L47 41.586 45.414 40l2.293-2.293a.999.999 0 000-1.414l-35-35A.996.996 0 0012 1a10.58 10.58 0 00-7.534 3.121l-.345.343A10.59 10.59 0 001 12c0 .265.105.52.293.707l4.824 4.824zM3.064 11h16.522l2 2H4.414l-1.405-1.405c.009-.2.032-.397.055-.595zm12.522-4l2 2H3.54a8.544 8.544 0 011.054-2h10.992zm6.828 24h17.172l2 2H24.414l-2-2zm-2-2l-2-2h17.172l2 2H20.414zm-4-4l-2-2h17.172l2 2H16.414zm-4-4l-2-2h17.172l2 2H12.414zm-4-4l-2-2h17.172l2 2H8.414zM18 35c0 1.654-1.346 3-3 3h-4c-1.654 0-3-1.346-3-3V19.414l10 10V35zm23.586 6h-9.172l-2-2h13.172l-2 2zM37 45.586L34.414 43h5.172L37 45.586zM45.586 43L43 45.586 41.414 44 44 41.414 45.586 43zm-17.172-6l-2-2h17.172l2 2H28.414zM13.585 5h-7.12a8.581 8.581 0 015.129-1.991L13.585 5z" fill="#000"/><path d="M48.293 45.293l-3 3a.999.999 0 000 1.414l13 13 1.414-1.414L47.414 49l2.293-2.293-1.414-1.414z" fill="#000"/></svg>