<svg width="64" height="64" fill="none" xmlns="http://www.w3.org/2000/svg"><path d="M40.002 39.42V7.77a7.77 7.77 0 10-15.54 0v31.65a13.5 13.5 0 00-5.747 11.062C18.715 57.948 24.767 64 32.233 64c7.466 0 13.518-6.052 13.518-13.518a13.5 13.5 0 00-5.749-11.063z" fill="#D8D8D8"/><path d="M32.233 59.573c-5.148 0-9.335-4.189-9.335-9.336 0-3.91 2.429-7.39 6.074-8.748V7.77a3.265 3.265 0 013.261-3.262 3.265 3.265 0 013.262 3.262v33.72a9.33 9.33 0 016.074 8.746c0 5.148-4.188 9.337-9.336 9.337z" fill="#F3E8D7"/><path d="M28.97 37.356v4.133a9.332 9.332 0 00-6.073 8.748c0 5.147 4.188 9.336 9.336 9.336 5.147 0 9.336-4.189 9.336-9.336 0-3.91-2.43-7.39-6.074-8.748v-4.133H28.97z" fill="#69E6ED"/><path d="M35.496 41.49v-4.134h-6.524v4.133s4.51 2.093 4.51 8.748c0 3.7-2.164 6.904-5.293 8.413a9.28 9.28 0 004.045.923c5.147 0 9.336-4.189 9.336-9.336 0-3.91-2.43-7.39-6.074-8.748z" fill="#33D8DD"/><path d="M50.765 22.527h-5.603a.966.966 0 110-1.931h5.603a.966.966 0 010 1.931zM47.706 14.7h-2.544a.966.966 0 110-1.932h2.544a.966.966 0 010 1.932zm.901-7.828h-3.445a.966.966 0 110-1.932h3.445a.966.966 0 110 1.932zm0 31.311h-3.445a.966.966 0 110-1.932h3.445a.965.965 0 110 1.932zm-.901-7.828h-2.544a.966.966 0 110-1.932h2.544a.966.966 0 010 1.932z" fill="#0D6E9A"/><path d="M18.96 19.237l-1.649-.923 1.212-.497a.965.965 0 10-.732-1.787l-2.631 1.08-3.455-1.935 3.455-1.934 2.632 1.078a.966.966 0 00.732-1.788l-1.211-.496 1.648-.923a.966.966 0 00-.944-1.685l-1.648.923.21-1.293a.965.965 0 10-1.906-.31l-.457 2.808-3.522 1.973V9.49l2.227-1.77a.965.965 0 10-1.202-1.513l-1.025.815V5.133a.966.966 0 00-1.932 0v1.89l-1.025-.815A.966.966 0 106.534 7.72l2.227 1.77v4.037L5.24 11.554l-.457-2.808a.965.965 0 10-1.906.31l.21 1.293-1.648-.923a.966.966 0 00-.944 1.685l1.649.923-1.213.497a.966.966 0 00.733 1.787l2.632-1.078 3.455 1.934-3.455 1.935-2.632-1.079a.966.966 0 00-.733 1.787l1.212.497-1.648.923a.966.966 0 00.944 1.685L3.086 20l-.21 1.293a.966.966 0 101.906.31l.457-2.81 3.522-1.971v4.037l-2.227 1.77a.966.966 0 001.202 1.512l1.025-.815v1.89a.965.965 0 001.932 0v-1.89l1.025.815a.961.961 0 001.357-.155.966.966 0 00-.155-1.357l-2.228-1.77v-4.037l3.523 1.972.456 2.808a.966.966 0 101.907-.31L16.368 20l1.648.923a.965.965 0 10.944-1.686z" fill="#33D8DD"/></svg>