<svg width="60" height="60" viewBox="0 0 60 60" fill="none" xmlns="http://www.w3.org/2000/svg">
<path d="M44.1604 26.6157H15.8396C15.4369 26.6157 15.1105 26.9421 15.1105 27.3448C15.1105 27.7476 15.4369 28.074 15.8396 28.074H44.1604C44.5632 28.074 44.8895 27.7476 44.8895 27.3448C44.8895 26.9421 44.5632 26.6157 44.1604 26.6157Z" fill="black"/>
<path d="M44.1604 34.5547H15.8396C15.4369 34.5547 15.1105 34.8811 15.1105 35.2838C15.1105 35.6864 15.4369 36.0129 15.8396 36.0129H44.1604C44.5632 36.0129 44.8895 35.6865 44.8895 35.2838C44.8895 34.8811 44.5632 34.5547 44.1604 34.5547Z" fill="black"/>
<path d="M34.8756 39.7065H25.1244C24.7216 39.7065 24.3953 40.0329 24.3953 40.4357C24.3953 40.8383 24.7216 41.1648 25.1244 41.1648H34.8756C35.2784 41.1648 35.6047 40.8384 35.6047 40.4357C35.6047 40.0329 35.2784 39.7065 34.8756 39.7065Z" fill="black"/>
<path d="M44.1604 30.5688H23.0355C22.6328 30.5688 22.3064 30.8952 22.3064 31.298C22.3064 31.7006 22.6328 32.0271 23.0355 32.0271H44.1604C44.5631 32.0271 44.8895 31.7007 44.8895 31.298C44.8895 30.8952 44.5631 30.5688 44.1604 30.5688Z" fill="black"/>
<path d="M19.6433 30.5688H15.8396C15.4369 30.5688 15.1105 30.8952 15.1105 31.298C15.1105 31.7007 15.4369 32.0271 15.8396 32.0271H19.6433C20.046 32.0271 20.3724 31.7007 20.3724 31.298C20.3724 30.8953 20.046 30.5688 19.6433 30.5688Z" fill="black"/>
<path d="M51.1032 25.3835C50.9336 25.2169 50.7091 25.1252 50.4697 25.1252C50.4695 25.1252 50.4694 25.1252 50.4692 25.1252C48.9915 25.1252 47.782 23.9701 47.7155 22.4949C47.6936 22.0153 47.2994 21.6396 46.8181 21.6396H13.0084C12.527 21.6396 12.1327 22.0154 12.111 22.4954C12.0475 23.905 10.8936 25.059 9.48398 25.1224C9.00412 25.144 8.6283 25.5383 8.6283 26.0199V44.8666C8.6283 45.3482 9.00412 45.7424 9.48398 45.7639C10.8936 45.8275 12.0475 46.9814 12.111 48.3914C12.1328 48.8711 12.5271 49.2467 13.0084 49.2467H34.5319C34.9346 49.2467 35.261 48.9203 35.261 48.5176C35.261 48.115 34.9346 47.7885 34.5319 47.7885H13.5098C13.2084 46.0323 11.8426 44.6665 10.0864 44.365V26.5212C11.8426 26.2198 13.2084 24.8536 13.5098 23.0978H46.317C46.6307 24.9094 48.0892 26.3078 49.9136 26.5471V38.9292C49.9136 39.3318 50.24 39.6583 50.6427 39.6583C51.0454 39.6583 51.3718 39.3319 51.3718 38.9292V26.024C51.3718 25.7812 51.2764 25.5537 51.1032 25.3835Z" fill="black"/>
<path d="M52.8434 18H7.15667C6.04076 18 5.13281 18.9079 5.13281 20.0239V50.8621C5.13281 51.9781 6.04076 52.886 7.15667 52.886H37.7597L36.6762 55.1564C36.537 55.4479 36.5709 55.7897 36.7644 56.0483C36.958 56.307 37.2765 56.4355 37.5952 56.3845L39.6124 56.0602L40.7375 57.9071C40.8953 58.1663 41.1756 58.3227 41.4768 58.3227C41.4915 58.3227 41.5062 58.3223 41.521 58.3215C41.8388 58.3054 42.1214 58.1169 42.2587 57.8296L44.2137 53.733L46.1685 57.8293C46.3054 58.1166 46.588 58.3053 46.9059 58.3216C46.9208 58.3224 46.9357 58.3228 46.9505 58.3228C47.2517 58.3228 47.5321 58.1664 47.6898 57.9073L48.815 56.0604L50.8321 56.3848C51.1518 56.4359 51.4697 56.307 51.6631 56.0482C51.8566 55.7894 51.8903 55.4477 51.7511 55.1567L50.6676 52.8863H52.8434C53.9593 52.8863 54.8672 51.9784 54.8672 50.8624V20.0239C54.8672 18.9079 53.9593 18 52.8434 18ZM41.4138 56.2144L40.6506 54.9618C40.4668 54.6601 40.1227 54.5014 39.7736 54.5574L38.4784 54.7657L39.8428 51.9067C40.3805 52.4555 41.1466 52.7519 41.9419 52.677C42.2138 52.651 42.4864 52.7242 42.7091 52.8825C42.7825 52.9347 42.8588 52.9811 42.936 53.0248L41.4138 56.2144ZM44.3875 51.891C44.3853 51.8913 44.3831 51.8915 44.3807 51.8919C44.2702 51.9082 44.1578 51.9082 44.0473 51.892C44.0445 51.8916 44.0416 51.8913 44.0389 51.8909C43.8677 51.8644 43.7012 51.7988 43.5537 51.694C43.1127 51.3804 42.5861 51.2137 42.049 51.2137C41.9676 51.2137 41.886 51.2176 41.8044 51.2253C41.3217 51.2709 40.8631 51.0058 40.6616 50.5655C40.5722 50.3701 40.458 50.1892 40.3255 50.0238C40.3197 50.0156 40.3133 50.0078 40.3072 49.9998C40.2998 49.9909 40.2929 49.9817 40.2855 49.9728C40.2771 49.9629 40.2682 49.9535 40.2592 49.9441C40.0181 49.6666 39.7202 49.4401 39.3809 49.2849C38.9406 49.0834 38.6755 48.6242 38.7211 48.1421C38.7798 47.5217 38.6134 46.9005 38.2524 46.3927C37.9718 45.998 37.9718 45.4678 38.2523 45.0731C38.6134 44.5654 38.7798 43.9441 38.7211 43.3237C38.6755 42.8417 38.9407 42.3824 39.3809 42.1809C39.9475 41.9217 40.4023 41.4669 40.6615 40.9003C40.8631 40.4599 41.3233 40.1948 41.8044 40.2405C42.4254 40.2991 43.0461 40.1327 43.5538 39.7717C43.9486 39.4912 44.4789 39.4912 44.8734 39.7717C45.3813 40.1327 46.0021 40.2987 46.6229 40.2405C47.1054 40.1947 47.5643 40.46 47.7658 40.9003C48.0251 41.4669 48.4798 41.9217 49.0464 42.1808C49.4867 42.3824 49.7519 42.8417 49.7062 43.3237C49.6475 43.9441 49.8139 44.5654 50.1749 45.073C50.4555 45.4677 50.4555 45.9979 50.1749 46.3926C49.8139 46.9005 49.6475 47.5217 49.7062 48.142C49.7519 48.6241 49.4867 49.0833 49.0463 49.2849C48.7077 49.4398 48.4105 49.6658 48.1697 49.9423C48.1598 49.9526 48.1501 49.963 48.1409 49.9738C48.1346 49.9814 48.1287 49.9892 48.1224 49.9969C48.1151 50.0062 48.1077 50.0154 48.1009 50.025C47.9688 50.1901 47.855 50.3706 47.7658 50.5655C47.5642 51.0058 47.105 51.2711 46.6229 51.2253C46.0031 51.1669 45.3815 51.333 44.8734 51.694C44.7258 51.7989 44.5591 51.8646 44.3875 51.891ZM48.6536 54.5573C48.3044 54.5015 47.9606 54.6601 47.7767 54.9619L47.0136 56.2145L45.4913 53.0248C45.5685 52.9811 45.6447 52.9347 45.7182 52.8825C45.9411 52.7241 46.2138 52.6507 46.4854 52.6769C47.281 52.7519 48.0469 52.4555 48.5847 51.9067L49.949 54.7656L48.6536 54.5573ZM53.4091 50.8622C53.4091 51.1741 53.1554 51.4279 52.8434 51.4279H49.9717L49.5958 50.6401C49.6147 50.6301 49.6335 50.6197 49.6532 50.6107C50.6572 50.1512 51.2619 49.1038 51.1578 48.0046C51.1321 47.7326 51.205 47.4602 51.3634 47.2374C52.0031 46.3374 52.0031 45.1281 51.3633 44.2281C51.205 44.0055 51.1321 43.7331 51.1578 43.461C51.2619 42.3618 50.6572 41.3145 49.6531 40.8549C49.4047 40.7412 49.2053 40.5417 49.0915 40.2934C48.6321 39.2892 47.5842 38.6848 46.4853 38.7887C46.2131 38.8146 45.9409 38.7415 45.7182 38.5831C44.8182 37.9434 43.6088 37.9433 42.7089 38.5831C42.4862 38.7415 42.2131 38.8146 41.9418 38.7886C40.8412 38.685 39.7951 39.2892 39.3357 40.2933C39.222 40.5417 39.0225 40.7411 38.7741 40.8548C37.77 41.3144 37.1654 42.3616 37.2694 43.4609C37.2951 43.733 37.2222 44.0054 37.0639 44.2281C36.4241 45.1281 36.4241 46.3374 37.0639 47.2373C37.2222 47.46 37.2951 47.7324 37.2694 48.0045C37.1654 49.1038 37.77 50.1512 38.7741 50.6106C38.7937 50.6196 38.8124 50.63 38.8314 50.64L38.4554 51.4279H7.15667C6.84476 51.4279 6.59094 51.1742 6.59094 50.8622V20.0239C6.59094 19.712 6.84467 19.4581 7.15667 19.4581H52.8434C53.1553 19.4581 53.4091 19.712 53.4091 20.0239V50.8622Z" fill="black"/>
<path d="M44.1604 41.2031C41.6626 41.2031 39.6305 43.2352 39.6305 45.7329C39.6305 48.2307 41.6626 50.2628 44.1604 50.2628C46.6582 50.2628 48.6902 48.2306 48.6902 45.7329C48.6902 43.2351 46.6582 41.2031 44.1604 41.2031ZM44.1604 48.8046C42.4666 48.8046 41.0886 47.4266 41.0886 45.7328C41.0886 44.0392 42.4666 42.6612 44.1604 42.6612C45.8541 42.6612 47.2321 44.0392 47.2321 45.7328C47.2321 47.4266 45.8541 48.8046 44.1604 48.8046Z" fill="black"/>
<path d="M8.53699 10H10.074V11.537H8.53699V10Z" fill="#DC405C"/>
<path d="M8.53699 13.0737H10.074V14.6107H8.53699V13.0737Z" fill="#DC405C"/>
<path d="M10.0741 11.5371H11.6111V13.0741H10.0741V11.5371Z" fill="#DC405C"/>
<path d="M7 11.5371H8.537V13.0741H7V11.5371Z" fill="#DC405C"/>
<path d="M37.537 7H39.074V8.537H37.537V7Z" fill="#DC405C"/>
<path d="M37.537 10.0737H39.074V11.6107H37.537V10.0737Z" fill="#DC405C"/>
<path d="M39.0741 8.53711H40.6111V10.0741H39.0741V8.53711Z" fill="#DC405C"/>
<path d="M36 8.53711H37.537V10.0741H36V8.53711Z" fill="#DC405C"/>
</svg>
