<svg width="60" height="60" viewBox="0 0 60 60" fill="none" xmlns="http://www.w3.org/2000/svg">
<path d="M49.8007 8.4891H46.1637V7.08429C46.1637 6.5315 45.9441 6.00136 45.5532 5.61047C45.1623 5.21959 44.6322 5 44.0794 5C43.5266 5 42.9964 5.21959 42.6055 5.61047C42.2147 6.00136 41.9951 6.5315 41.9951 7.08429V8.4891H36.7771V7.08429C36.7771 6.5315 36.5575 6.00136 36.1666 5.61047C35.7757 5.21959 35.2455 5 34.6928 5C34.14 5 33.6098 5.21959 33.2189 5.61047C32.8281 6.00136 32.6085 6.5315 32.6085 7.08429V8.4891H27.3915V7.08429C27.3915 6.5315 27.1719 6.00136 26.781 5.61047C26.3901 5.21959 25.86 5 25.3072 5C24.7544 5 24.2243 5.21959 23.8334 5.61047C23.4425 6.00136 23.2229 6.5315 23.2229 7.08429V8.4891H18.0049V7.08429C18.0049 6.5315 17.7853 6.00136 17.3944 5.61047C17.0035 5.21959 16.4734 5 15.9206 5C15.3678 5 14.8377 5.21959 14.4468 5.61047C14.0559 6.00136 13.8363 6.5315 13.8363 7.08429V8.4891H10.1992C8.67954 8.49073 7.22258 9.09514 6.14801 10.1697C5.07344 11.2443 4.46903 12.7012 4.46741 14.2209L4.46741 50.1749C4.4692 51.6946 5.07366 53.1514 6.14819 54.226C7.22273 55.3005 8.67959 55.9049 10.1992 55.9067H49.8007C51.3204 55.9049 52.7772 55.3005 53.8518 54.226C54.9263 53.1514 55.5308 51.6946 55.5325 50.1749V14.2209C55.5309 12.7012 54.9265 11.2443 53.8519 10.1697C52.7774 9.09514 51.3204 8.49073 49.8007 8.4891ZM43.0372 7.08429C43.0372 6.8079 43.147 6.54282 43.3425 6.34738C43.5379 6.15194 43.803 6.04215 44.0794 6.04215C44.3558 6.04215 44.6208 6.15194 44.8163 6.34738C45.0117 6.54282 45.1215 6.8079 45.1215 7.08429V13.3372C45.1215 13.6136 45.0117 13.8786 44.8163 14.0741C44.6208 14.2695 44.3558 14.3793 44.0794 14.3793C43.803 14.3793 43.5379 14.2695 43.3425 14.0741C43.147 13.8786 43.0372 13.6136 43.0372 13.3372V7.08429ZM44.0794 15.4215C44.632 15.4209 45.1618 15.2011 45.5526 14.8104C45.9433 14.4196 46.1631 13.8898 46.1637 13.3372V11.6478C46.454 12.0349 46.6308 12.4952 46.6742 12.9771C46.7177 13.459 46.6261 13.9435 46.4097 14.3762C46.1933 14.809 45.8607 15.1729 45.4491 15.4273C45.0375 15.6817 44.5632 15.8164 44.0794 15.8164C43.5955 15.8164 43.1212 15.6817 42.7096 15.4273C42.2981 15.1729 41.9654 14.809 41.7491 14.3762C41.5327 13.9435 41.4411 13.459 41.4845 12.9771C41.528 12.4952 41.7048 12.0349 41.9951 11.6478V13.3372C41.9956 13.8898 42.2154 14.4196 42.6062 14.8104C42.9969 15.2011 43.5267 15.4209 44.0794 15.4215ZM33.6506 7.08429C33.6506 6.8079 33.7604 6.54282 33.9559 6.34738C34.1513 6.15194 34.4164 6.04215 34.6928 6.04215C34.9692 6.04215 35.2342 6.15194 35.4297 6.34738C35.6251 6.54282 35.7349 6.8079 35.7349 7.08429V13.3372C35.7349 13.6136 35.6251 13.8786 35.4297 14.0741C35.2342 14.2695 34.9692 14.3793 34.6928 14.3793C34.4164 14.3793 34.1513 14.2695 33.9559 14.0741C33.7604 13.8786 33.6506 13.6136 33.6506 13.3372V7.08429ZM34.6928 15.4215C35.2454 15.4209 35.7752 15.2011 36.166 14.8104C36.5567 14.4196 36.7765 13.8898 36.7771 13.3372V11.6478C37.0675 12.0349 37.2444 12.4951 37.2879 12.977C37.3315 13.4588 37.24 13.9433 37.0238 14.3762C36.8075 14.809 36.4749 15.173 36.0634 15.4275C35.6519 15.682 35.1777 15.8168 34.6938 15.817C34.21 15.8171 33.7356 15.6825 33.324 15.4282C32.9123 15.1739 32.5796 14.81 32.3631 14.3773C32.1466 13.9446 32.0549 13.4602 32.0983 12.9783C32.1416 12.4964 32.3183 12.036 32.6085 11.6489V13.3372C32.609 13.8898 32.8288 14.4196 33.2196 14.8104C33.6103 15.2011 34.1401 15.4209 34.6928 15.4215ZM24.265 7.08429C24.265 6.8079 24.3748 6.54282 24.5703 6.34738C24.7657 6.15194 25.0308 6.04215 25.3072 6.04215C25.5836 6.04215 25.8487 6.15194 26.0441 6.34738C26.2395 6.54282 26.3493 6.8079 26.3493 7.08429V13.3372C26.3493 13.6136 26.2395 13.8786 26.0441 14.0741C25.8487 14.2695 25.5836 14.3793 25.3072 14.3793C25.0308 14.3793 24.7657 14.2695 24.5703 14.0741C24.3748 13.8786 24.265 13.6136 24.265 13.3372V7.08429ZM25.3072 15.4215C25.8598 15.4207 26.3895 15.2009 26.7802 14.8102C27.1709 14.4194 27.3907 13.8897 27.3915 13.3372V11.6489C27.6817 12.036 27.8584 12.4964 27.9017 12.9783C27.945 13.4602 27.8533 13.9446 27.6368 14.3773C27.4203 14.81 27.0876 15.1739 26.676 15.4282C26.2643 15.6825 25.79 15.8171 25.3062 15.817C24.8223 15.8168 24.3481 15.682 23.9365 15.4275C23.525 15.173 23.1925 14.809 22.9762 14.3762C22.7599 13.9433 22.6685 13.4588 22.712 12.977C22.7556 12.4951 22.9325 12.0349 23.2229 11.6478V13.3372C23.2235 13.8898 23.4432 14.4196 23.834 14.8104C24.2247 15.2011 24.7546 15.4209 25.3072 15.4215ZM14.8784 7.08429C14.8784 6.8079 14.9882 6.54282 15.1837 6.34738C15.3791 6.15194 15.6442 6.04215 15.9206 6.04215C16.197 6.04215 16.4621 6.15194 16.6575 6.34738C16.8529 6.54282 16.9627 6.8079 16.9627 7.08429V13.3372C16.9627 13.6136 16.8529 13.8786 16.6575 14.0741C16.4621 14.2695 16.197 14.3793 15.9206 14.3793C15.6442 14.3793 15.3791 14.2695 15.1837 14.0741C14.9882 13.8786 14.8784 13.6136 14.8784 13.3372V7.08429ZM15.9206 15.4215C16.4732 15.4209 17.003 15.2011 17.3938 14.8104C17.7846 14.4196 18.0043 13.8898 18.0049 13.3372V11.6478C18.2952 12.0349 18.472 12.4952 18.5154 12.9771C18.5589 13.459 18.4673 13.9435 18.2509 14.3762C18.0345 14.809 17.7019 15.1729 17.2903 15.4273C16.8787 15.6817 16.4044 15.8164 15.9206 15.8164C15.4367 15.8164 14.9625 15.6817 14.5509 15.4273C14.1393 15.1729 13.8067 14.809 13.5903 14.3762C13.3739 13.9435 13.2823 13.459 13.3258 12.9771C13.3692 12.4952 13.546 12.0349 13.8363 11.6478V13.3372C13.8368 13.8898 14.0566 14.4196 14.4474 14.8104C14.8381 15.2011 15.368 15.4209 15.9206 15.4215ZM5.50955 14.2209C5.5109 12.9775 6.00543 11.7855 6.88461 10.9063C7.7638 10.0271 8.95585 9.5326 10.1992 9.53125H13.8363V10.2191C13.199 10.6628 12.72 11.2983 12.469 12.0332C12.2179 12.768 12.2079 13.5638 12.4405 14.3047C12.673 15.0456 13.1359 15.6929 13.7619 16.1525C14.3878 16.6121 15.1441 16.8599 15.9206 16.8599C16.6971 16.8599 17.4534 16.6121 18.0793 16.1525C18.7053 15.6929 19.1682 15.0456 19.4007 14.3047C19.6333 13.5638 19.6233 12.768 19.3722 12.0332C19.1212 11.2983 18.6421 10.6628 18.0049 10.2191V9.53125H23.2229V10.2191C22.5856 10.6628 22.1066 11.2983 21.8556 12.0332C21.6045 12.768 21.5945 13.5638 21.8271 14.3047C22.0596 15.0456 22.5225 15.6929 23.1485 16.1525C23.7744 16.6121 24.5307 16.8599 25.3072 16.8599C26.0837 16.8599 26.84 16.6121 27.4659 16.1525C28.0919 15.6929 28.5548 15.0456 28.7873 14.3047C29.0199 13.5638 29.0099 12.768 28.7588 12.0332C28.5078 11.2983 28.0288 10.6628 27.3915 10.2191V9.53125H32.6085V10.2191C31.9712 10.6628 31.4922 11.2983 31.2411 12.0332C30.9901 12.768 30.9801 13.5638 31.2126 14.3047C31.4452 15.0456 31.9081 15.6929 32.534 16.1525C33.16 16.6121 33.9162 16.8599 34.6928 16.8599C35.4693 16.8599 36.2256 16.6121 36.8515 16.1525C37.4774 15.6929 37.9403 15.0456 38.1729 14.3047C38.4054 13.5638 38.3954 12.768 38.1444 12.0332C37.8933 11.2983 37.4143 10.6628 36.7771 10.2191V9.53125H41.9951V10.2191C41.3578 10.6628 40.8788 11.2983 40.6277 12.0332C40.3767 12.768 40.3667 13.5638 40.5992 14.3047C40.8318 15.0456 41.2947 15.6929 41.9206 16.1525C42.5466 16.6121 43.3028 16.8599 44.0794 16.8599C44.8559 16.8599 45.6122 16.6121 46.2381 16.1525C46.864 15.6929 47.327 15.0456 47.5595 14.3047C47.792 13.5638 47.782 12.768 47.531 12.0332C47.2799 11.2983 46.8009 10.6628 46.1637 10.2191V9.53125H49.8007C51.0441 9.5326 52.2362 10.0271 53.1153 10.9063C53.9945 11.7855 54.489 12.9775 54.4904 14.2209V18.9106H5.50955V14.2209ZM54.4904 50.1749C54.4889 51.4182 53.9943 52.6102 53.1152 53.4893C52.236 54.3685 51.0441 54.8631 49.8007 54.8646H10.1992C8.9559 54.8631 7.76395 54.3685 6.8848 53.4893C6.00564 52.6102 5.51107 51.4182 5.50955 50.1749V19.9527H54.4904V50.1749Z" fill="black"/>
<path d="M11.962 32.1553H13.499V33.6923H11.962V32.1553Z" fill="#DC405C"/>
<path d="M11.962 35.2295H13.499V36.7665H11.962V35.2295Z" fill="#DC405C"/>
<path d="M13.499 33.6924H15.036V35.2294H13.499V33.6924Z" fill="#DC405C"/>
<path d="M10.425 33.6924H11.9621V35.2294H10.425V33.6924Z" fill="#DC405C"/>
<path d="M46.8565 24.4956H48.3935V26.0326H46.8565V24.4956Z" fill="#DC405C"/>
<path d="M46.8565 27.5693H48.3935V29.1063H46.8565V27.5693Z" fill="#DC405C"/>
<path d="M48.3936 26.0327H49.9306V27.5697H48.3936V26.0327Z" fill="#DC405C"/>
<path d="M45.3195 26.0327H46.8565V27.5697H45.3195V26.0327Z" fill="#DC405C"/>
<path d="M29.9553 49.5734C26.955 49.5734 24.5474 48.8268 22.7992 47.3543C21.2802 46.0749 20.3137 44.266 20.0039 42.1227L19.9178 41.5272H26.3597L26.4575 41.9233C26.8572 43.5431 28.0986 44.3306 30.2528 44.3306C32.8765 44.3306 33.4273 42.9713 33.4273 41.8311C33.4273 39.6759 31.5968 39.3995 30.0021 39.3995H27.604V34.1707H29.5043C32.3118 34.1707 32.5402 33.3824 32.5402 32.4304C32.5402 31.084 31.6342 30.4014 29.8472 30.4014C28.1871 30.4014 27.199 31.0869 26.9106 32.439L26.8227 32.8514H20.4387L20.5241 32.2563C21.0103 28.8659 23.7621 25.2427 30.0274 25.2427C32.8565 25.2427 35.1964 25.9222 36.7935 27.2076C38.3118 28.4295 39.1143 30.1222 39.1143 32.1029C39.1143 34.5679 37.7651 35.8743 36.7035 36.5203C38.8664 37.6094 40.0014 39.4886 40.0014 42.0114C40.0014 45.6672 37.3622 49.5734 29.9553 49.5734ZM21.1425 42.5702C21.4939 44.1947 22.2914 45.5645 23.4705 46.5576C25.0257 47.8676 27.2074 48.5317 29.9553 48.5317C32.8466 48.5317 35.2052 47.8727 36.7761 46.6259C38.2039 45.4925 38.9592 43.897 38.9592 42.0119C38.9592 39.5677 37.7407 37.9068 35.3377 37.0753L34.9871 36.9539V36.1459L35.3367 36.0241C36.1592 35.7376 38.0721 34.7821 38.0721 32.1034C38.0721 28.5147 34.9896 26.2853 30.0274 26.2853C23.7717 26.2853 22.1086 29.9764 21.6701 31.8093H26.0018C26.3457 30.7476 27.2863 29.3594 29.8473 29.3594C32.1862 29.3594 33.5825 30.5075 33.5825 32.4305C33.5825 34.8826 31.521 35.213 29.5044 35.213H28.6462V38.3578H30.0021C31.4558 38.3578 32.5277 38.6303 33.2791 39.1908C34.0689 39.7801 34.4694 40.6685 34.4694 41.8316C34.4694 44.0492 32.8931 45.3732 30.2528 45.3732C27.2287 45.3732 26.0245 43.93 25.5615 42.5698L21.1425 42.5702Z" fill="black"/>
</svg>
