<svg width="60" height="60" viewBox="0 0 60 60" fill="none" xmlns="http://www.w3.org/2000/svg">
<path d="M23.5524 46.9446H21.7615V45.1387H23.5524V46.9446ZM19.9556 46.9446H18.1496V45.1387H19.9556V46.9446ZM16.3437 46.9446H14.5378V45.1387H16.3437V46.9446Z" fill="#DC405C"/>
<path d="M55.5081 32.0601L52.5924 28.76L51.2391 29.9557L54.1547 33.2559C55.2726 34.5211 55.8307 36.146 55.7266 37.8311C55.6223 39.5162 54.8681 41.0598 53.6028 42.1778C52.3376 43.2956 50.7129 43.8533 49.0276 43.7497C47.3425 43.6455 45.7989 42.8912 44.681 41.6259L34.5973 30.2123L44.0711 21.8423L49.9839 28.535L51.3373 27.3392L29.6061 2.74225C26.6392 -0.615829 21.4934 -0.934034 18.1352 2.03251C14.777 4.99954 14.4587 10.1454 17.4256 13.5036L19.1019 15.4009H14.7298C12.9041 15.4009 11.4189 16.8862 11.4189 18.7118V26.2382C8.76674 28.4764 7.25397 31.7193 7.25397 35.206V60H9.0599V35.206C9.0599 32.8125 9.90243 30.5544 11.4189 28.7757V34.905C11.4189 39.0873 14.8216 42.4899 19.0039 42.4899C23.1862 42.4899 26.5888 39.0873 26.5888 34.905V28.8031C28.0907 30.5778 28.9252 32.8257 28.9252 35.206V60H30.7311V35.206C30.7311 31.7311 29.2267 28.4951 26.5888 26.2573V23.8752L43.3276 42.8215C44.7649 44.4483 46.7495 45.4179 48.9162 45.5519C49.0876 45.5626 49.2587 45.5678 49.429 45.5678C51.4106 45.5678 53.3006 44.8545 54.7987 43.5311C56.4255 42.0938 57.3951 40.1091 57.5293 37.9426C57.663 35.776 56.9453 33.6869 55.5081 32.0601ZM33.4015 28.8588L31.329 26.5129L40.8027 18.1429L42.8753 20.4888L33.4015 28.8588ZM24.7924 19.1144L34.2662 10.7443L36.3387 13.0901L26.8648 21.4602L24.7924 19.1144ZM37.5344 14.4437L39.6069 16.7895L30.1332 25.1595L28.0607 22.8136L37.5344 14.4437ZM19.3309 3.386C21.2845 1.65989 24.0162 1.36384 26.2347 2.4173L17.5187 10.1178C16.7467 7.78658 17.3771 5.11223 19.3309 3.386ZM18.3624 11.7824L27.7825 3.4598C27.9458 3.60933 28.1029 3.76838 28.2527 3.93789L29.802 5.69158L23.93 10.8794L25.1257 12.2329L30.9978 7.04506L33.0703 9.39085L23.5965 17.7609L21.524 15.4151L23.7346 13.4622L22.5388 12.1087L20.3282 14.0617L18.7788 12.308C18.6292 12.1384 18.4907 11.9627 18.3624 11.7824ZM24.7828 34.905C24.7828 35.6514 24.639 36.3645 24.3801 37.0202C24.0041 36.6422 23.5895 36.3032 23.1369 36.0086L22.1516 37.522C22.6278 37.8319 23.0498 38.2053 23.4131 38.6346C22.3522 39.8868 20.7697 40.684 19.0037 40.684C17.2383 40.684 15.656 39.8873 14.5951 38.6354C15.688 37.3456 17.293 36.5905 19.0037 36.5905C19.5456 36.5905 20.0819 36.6653 20.5973 36.8129L21.0942 35.0765C20.4171 34.8829 19.7138 34.7846 19.0037 34.7846C16.9641 34.7846 15.0378 35.6012 13.6271 37.0195C13.3684 36.364 13.2247 35.6512 13.2247 34.905V18.7118C13.2247 17.8819 13.8998 17.2068 14.7297 17.2068H20.6972L24.7827 21.8311V34.905H24.7828Z" fill="black"/>
<path d="M49.1103 38.4741L50.463 37.2786L51.6635 38.6369L50.3109 39.8324L49.1103 38.4741Z" fill="#DC405C"/>
<path d="M4.26105 7.6958H6.06698V9.50173H4.26105V7.6958Z" fill="#DC405C"/>
<path d="M4.26105 11.3076H6.06698V13.1136H4.26105V11.3076Z" fill="#DC405C"/>
<path d="M6.06699 9.50195H7.87292V11.3079H6.06699V9.50195Z" fill="#DC405C"/>
<path d="M2.45511 9.50195H4.26104V11.3079H2.45511V9.50195Z" fill="#DC405C"/>
<path d="M5.40482 23.4712H7.21075V25.2697H5.40482V23.4712Z" fill="#DC405C"/>
</svg>
