<svg width="60" height="60" viewBox="0 0 60 60" fill="none" xmlns="http://www.w3.org/2000/svg">
<path d="M29.0625 44.0625H30.9375V45.9375C30.9375 46.1861 31.0363 46.4246 31.2121 46.6004C31.3879 46.7762 31.6264 46.875 31.875 46.875H35.625C35.8736 46.875 36.1121 46.7762 36.2879 46.6004C36.4637 46.4246 36.5625 46.1861 36.5625 45.9375V44.0625H38.4375C38.6861 44.0625 38.9246 43.9637 39.1004 43.7879C39.2762 43.6121 39.375 43.3736 39.375 43.125V39.375C39.375 39.1264 39.2762 38.8879 39.1004 38.7121C38.9246 38.5363 38.6861 38.4375 38.4375 38.4375H36.5625V36.5625C36.5625 36.3139 36.4637 36.0754 36.2879 35.8996C36.1121 35.7238 35.8736 35.625 35.625 35.625H31.875C31.6264 35.625 31.3879 35.7238 31.2121 35.8996C31.0363 36.0754 30.9375 36.3139 30.9375 36.5625V38.4375H29.0625C28.8139 38.4375 28.5754 38.5363 28.3996 38.7121C28.2238 38.8879 28.125 39.1264 28.125 39.375V43.125C28.125 43.3736 28.2238 43.6121 28.3996 43.7879C28.5754 43.9637 28.8139 44.0625 29.0625 44.0625ZM30 40.3125H31.875C32.1236 40.3125 32.3621 40.2137 32.5379 40.0379C32.7137 39.8621 32.8125 39.6236 32.8125 39.375V37.5H34.6875V39.375C34.6875 39.6236 34.7863 39.8621 34.9621 40.0379C35.1379 40.2137 35.3764 40.3125 35.625 40.3125H37.5V42.1875H35.625C35.3764 42.1875 35.1379 42.2863 34.9621 42.4621C34.7863 42.6379 34.6875 42.8764 34.6875 43.125V45H32.8125V43.125C32.8125 42.8764 32.7137 42.6379 32.5379 42.4621C32.3621 42.2863 32.1236 42.1875 31.875 42.1875H30V40.3125Z" fill="#DC405C"/>
<path d="M44.8688 32.025L38.4375 21.3V16.875H41.25C41.4986 16.875 41.7371 16.7762 41.9129 16.6004C42.0887 16.4246 42.1875 16.1861 42.1875 15.9375V14.0625C42.1855 12.3226 41.4935 10.6546 40.2632 9.4243C39.0329 8.19403 37.3649 7.50199 35.625 7.5H18.75C18.5014 7.5 18.2629 7.59877 18.0871 7.77459C17.9113 7.9504 17.8125 8.18886 17.8125 8.4375V12.1875C17.8125 12.4361 17.9113 12.6746 18.0871 12.8504C18.2629 13.0262 18.5014 13.125 18.75 13.125H21.5625V21.5625C21.5625 21.8111 21.6613 22.0496 21.8371 22.2254C22.0129 22.4012 22.2514 22.5 22.5 22.5C23.1156 22.5 23.7251 22.3788 24.2938 22.1432C24.8625 21.9076 25.3793 21.5623 25.8146 21.1271C26.2498 20.6918 26.5951 20.175 26.8307 19.6063C27.0663 19.0376 27.1875 18.4281 27.1875 17.8125V16.875H29.0625V21.3L22.6312 32.025C21.3184 34.2109 20.6249 36.7127 20.625 39.2625V53.4375C20.625 54.6807 21.1189 55.873 21.9979 56.7521C22.877 57.6311 24.0693 58.125 25.3125 58.125H42.1875C43.4307 58.125 44.623 57.6311 45.5021 56.7521C46.3811 55.873 46.875 54.6807 46.875 53.4375V39.2625C46.8751 36.7127 46.1816 34.2109 44.8688 32.025ZM21.5625 11.25H19.6875V9.375H21.5625V11.25ZM25.3125 17.8125C25.3109 18.3939 25.13 18.9607 24.7944 19.4355C24.4589 19.9103 23.985 20.27 23.4375 20.4656V16.875H25.3125V17.8125ZM23.4375 15V9.375H35.625C36.8682 9.375 38.0605 9.86886 38.9396 10.7479C39.8186 11.627 40.3125 12.8193 40.3125 14.0625V15H23.4375ZM36.5625 16.875V20.625H30.9375V16.875H36.5625ZM30.5344 22.5H36.9656L42.5906 31.875H24.9094L30.5344 22.5ZM45 53.4375C44.9978 54.1827 44.7007 54.8968 44.1738 55.4238C43.6468 55.9507 42.9327 56.2478 42.1875 56.25H25.3125C24.5673 56.2478 23.8532 55.9507 23.3262 55.4238C22.7993 54.8968 22.5022 54.1827 22.5 53.4375V50.625H45V53.4375ZM45 48.75H22.5V39.2625C22.4977 37.3462 22.9507 35.4568 23.8219 33.75H43.6781C44.5493 35.4568 45.0023 37.3462 45 39.2625V48.75Z" fill="black"/>
<path d="M14.0625 9.375H15.9375V11.25H14.0625V9.375Z" fill="#DC405C"/>
<path d="M10.3125 9.375H12.1875V11.25H10.3125V9.375Z" fill="#DC405C"/>
<path d="M6.5625 9.375H8.4375V11.25H6.5625V9.375Z" fill="#DC405C"/>
<path d="M13.2853 6.90723L14.2228 5.28348L15.8466 6.22098L14.9091 7.84473L13.2853 6.90723Z" fill="#DC405C"/>
<path d="M10.0359 5.0293L10.9734 3.40555L12.5964 4.34258L11.6589 5.96633L10.0359 5.0293Z" fill="#DC405C"/>
<path d="M6.78888 3.15674L7.72638 1.53299L9.35013 2.47049L8.41263 4.09424L6.78888 3.15674Z" fill="#DC405C"/>
<path d="M13.2845 13.7178L14.9083 12.7803L15.8458 14.404L14.222 15.3415L13.2845 13.7178Z" fill="#DC405C"/>
<path d="M10.0372 15.5928L11.6602 14.6557L12.5977 16.2795L10.9747 17.2165L10.0372 15.5928Z" fill="#DC405C"/>
<path d="M6.78906 17.4683L8.41281 16.5308L9.35031 18.1545L7.72656 19.092L6.78906 17.4683Z" fill="#DC405C"/>
<path d="M50.537 23H52.074V24.537H50.537V23Z" fill="#DC405C"/>
<path d="M50.537 26.0737H52.074V27.6107H50.537V26.0737Z" fill="#DC405C"/>
<path d="M52.074 24.5371H53.611V26.0741H52.074V24.5371Z" fill="#DC405C"/>
<path d="M49 24.5371H50.537V26.0741H49V24.5371Z" fill="#DC405C"/>
<path d="M10.537 43H12.074V44.537H10.537V43Z" fill="#DC405C"/>
<path d="M10.537 46.0737H12.074V47.6107H10.537V46.0737Z" fill="#DC405C"/>
<path d="M12.074 44.5371H13.611V46.0741H12.074V44.5371Z" fill="#DC405C"/>
<path d="M9 44.5371H10.537V46.0741H9V44.5371Z" fill="#DC405C"/>
</svg>
