<svg width="60" height="60" viewBox="0 0 60 60" fill="none" xmlns="http://www.w3.org/2000/svg">
<g clip-path="url(#clip0_44_116)">
<path d="M52.2596 23.7559C52.7581 23.095 52.7581 22.1719 52.2596 21.5111C52.2596 21.4993 52.4165 21.719 49.2459 17.5168C49.2292 17.4948 49.222 17.4675 49.2254 17.4399L49.8404 12.4751C49.9424 11.6518 49.4798 10.8515 48.7156 10.529L44.1067 8.58322C44.081 8.57244 44.0611 8.5524 44.0503 8.52685L42.1044 3.91768C41.7818 3.15359 40.9827 2.69126 40.1584 2.79299L35.1934 3.40801C35.1662 3.41129 35.1387 3.40414 35.1168 3.3875L31.1226 0.373902C30.4615 -0.124634 29.5386 -0.124634 28.8776 0.373902L24.8835 3.3875C24.8613 3.40426 24.8336 3.41118 24.8065 3.40825L19.8416 2.7931C19.0186 2.69091 18.2182 3.1537 17.8957 3.9178L15.9499 8.52685C15.9391 8.5524 15.919 8.57244 15.8935 8.58322L11.2844 10.529C10.5202 10.8516 10.0576 11.6519 10.1596 12.4751L10.7746 17.4401C10.778 17.4676 10.7707 17.4948 10.7541 17.5168L7.74036 21.5111C7.24182 22.172 7.24182 23.0951 7.74036 23.7559L10.7541 27.75C10.7707 27.7722 10.778 27.7994 10.7746 27.8269L10.1596 32.7918C10.0576 33.615 10.5202 34.4153 11.2844 34.7379L15.8933 36.6836C15.919 36.6944 15.9389 36.7144 15.9497 36.74L17.0516 39.3504L8.97615 53.3377C8.53434 54.1033 9.12862 55.0544 10.0113 54.9917L15.2936 54.6167L17.6102 59.3789C17.9968 60.1736 19.1172 60.2153 19.5604 59.4481L28.241 44.4127L28.8776 44.8929C29.5388 45.3916 30.4615 45.3915 31.1226 44.8929L31.759 44.4127L40.4396 59.4477C40.8825 60.2152 42.0039 60.1735 42.3899 59.3789L44.7066 54.6167L49.9889 54.9917C50.8715 55.0538 51.4663 54.1035 51.0238 53.3374L46.7471 45.9298C46.5045 45.5095 45.9666 45.3653 45.5465 45.6081C45.1261 45.8508 44.9821 46.3884 45.2248 46.8088L48.8865 53.1512L44.3905 52.832C43.9359 52.8006 43.5171 53.0429 43.3189 53.4508L41.3472 57.504L33.1731 43.346L35.1167 41.8796C35.139 41.8628 35.1665 41.8554 35.1937 41.8589L36.413 42.01L41.9749 51.6435C42.2187 52.066 42.7572 52.2069 43.1756 51.9652C43.5959 51.7225 43.74 51.185 43.4973 50.7646L38.5991 42.2808L40.1584 42.4739C40.9715 42.5746 41.7596 42.126 42.0907 41.3808L43.1412 43.2003C43.3041 43.4823 43.5994 43.6399 43.9032 43.6399C44.5719 43.6399 45.0039 42.9107 44.6636 42.3214L42.9482 39.3503L44.05 36.7401C44.0608 36.7145 44.081 36.6945 44.1064 36.6837L48.7155 34.738C49.4797 34.4153 49.9422 33.615 49.8403 32.7919L49.2253 27.8268C49.2219 27.7995 49.2291 27.7722 49.2458 27.7501L52.2596 23.7559ZM18.6528 57.5041L16.6815 53.4512C16.4833 53.0431 16.0646 52.7999 15.6097 52.8321L11.1137 53.1513L17.9094 41.3809C18.2406 42.1261 19.0297 42.5751 19.8416 42.4738L21.4011 42.2807L20.7356 43.4334C20.4929 43.8538 20.6369 44.3913 21.0573 44.634C21.4769 44.8763 22.0147 44.7337 22.2579 44.3123L23.5872 42.0099L24.8067 41.8588C24.8338 41.8555 24.8613 41.8627 24.8832 41.8793L26.827 43.3459L18.6528 57.5041ZM47.8425 26.6914C47.5494 27.0799 47.4209 27.5601 47.4807 28.043L48.0958 33.008C48.1016 33.0547 48.0753 33.1002 48.0319 33.1185L43.4227 35.0644C42.9729 35.2543 42.6205 35.6066 42.4307 36.0564C40.8241 39.8622 42.8957 34.9548 40.4849 40.6654C40.4667 40.709 40.4212 40.7354 40.3744 40.7294C35.7839 40.1608 41.1058 40.82 35.4097 40.1144C34.9264 40.0548 34.4466 40.183 34.0579 40.4762C32.662 41.5294 31.4328 42.4567 30.0636 43.4898C30.0264 43.518 29.9736 43.518 29.9363 43.4898C29.5279 43.1817 26.0163 40.5321 25.9421 40.4762C25.5627 40.19 25.0847 40.053 24.5905 40.1144L19.6254 40.7294C19.5792 40.7352 19.5333 40.7089 19.515 40.6656C19.1607 39.8265 17.9235 36.8958 17.5692 36.0564C17.3792 35.6066 17.0269 35.2543 16.5771 35.0644L11.968 33.1186C11.9246 33.1003 11.8983 33.0549 11.9042 33.0081L12.5192 28.0434C12.5791 27.5603 12.4507 27.0804 12.1575 26.6917L9.14374 22.6974C9.11538 22.6599 9.11549 22.6074 9.14374 22.57L12.1575 18.5757C12.4506 18.1873 12.5791 17.7071 12.5192 17.2242L11.9042 12.2592C11.8983 12.2124 11.9247 12.167 11.9681 12.1487L16.5772 10.2028C17.027 10.0129 17.3794 9.66057 17.5693 9.21079L19.515 4.60173C19.5335 4.55825 19.5795 4.53271 19.6255 4.53774L24.5905 5.15289C25.073 5.21242 25.5534 5.08421 25.9421 4.791L29.9363 1.7774C29.9736 1.74904 30.0264 1.74904 30.0636 1.7774L34.0579 4.79111C34.4466 5.08421 34.9271 5.21277 35.4095 5.15277L40.3745 4.53774C40.4205 4.53177 40.4665 4.55825 40.4849 4.60161L42.4308 9.21079C42.6208 9.66057 42.9731 10.0129 43.4228 10.2028L48.032 12.1486C48.0754 12.1668 48.1016 12.2123 48.0958 12.2591L47.4807 17.2238C47.4209 17.7069 47.5493 18.1868 47.8425 18.5755L50.8562 22.5698C50.8845 22.6073 50.8845 22.6598 50.8562 22.6972L47.8425 26.6914Z" fill="black"/>
<path d="M45.9858 21.7548H43.469C43.2713 18.6936 42.0484 15.907 40.1409 13.7358L41.9251 11.9515C42.2683 11.6083 42.2683 11.0517 41.9251 10.7086C41.5817 10.3653 41.0253 10.3653 40.682 10.7086L38.8979 12.4927C36.7267 10.5853 33.9402 9.36251 30.8789 9.16481V6.64799C30.8789 6.16257 30.4855 5.76904 29.9999 5.76904C29.5144 5.76904 29.121 6.16257 29.121 6.64799V9.16481C26.0598 9.36251 23.2732 10.5854 21.102 12.4927L19.318 10.7086C18.9747 10.3653 18.4183 10.3653 18.0749 10.7086C17.7317 11.0518 17.7317 11.6083 18.0749 11.9515L19.859 13.7358C17.9516 15.907 16.7287 18.6935 16.531 21.7548H14.0142C13.5287 21.7548 13.1353 22.1483 13.1353 22.6337C13.1353 23.1191 13.5287 23.5127 14.0142 23.5127H16.531C16.54 23.6526 16.5511 23.7921 16.5643 23.9306C16.6104 24.4139 17.0383 24.7678 17.5228 24.7221C18.006 24.6759 18.3603 24.2469 18.3142 23.7636C17.6541 16.8304 23.1172 10.8943 30.0001 10.8943C36.4732 10.8943 41.7394 16.1606 41.7394 22.6337C41.7394 29.1068 36.4732 34.373 30.0001 34.373C25.3789 34.373 21.1716 31.6472 19.2813 27.4289C19.0828 26.9858 18.5627 26.7877 18.1197 26.9862C17.6768 27.1848 17.4785 27.7047 17.677 28.1477C18.238 29.3996 18.9765 30.5371 19.8548 31.5359L18.0749 33.3158C17.7317 33.6591 17.7317 34.2156 18.0749 34.5587C18.4183 34.902 18.9747 34.902 19.318 34.5587L21.0991 32.7775C23.3041 34.7091 26.1149 35.9058 29.121 36.1022V38.6193C29.121 39.1047 29.5144 39.4983 29.9999 39.4983C30.4855 39.4983 30.8789 39.1047 30.8789 38.6193V36.1025C33.9402 35.9048 36.7267 34.6819 38.8979 32.7746L40.682 34.5587C41.0253 34.902 41.5817 34.902 41.9251 34.5587C42.2683 34.2155 42.2683 33.6589 41.9251 33.3158L40.1409 31.5315C42.0484 29.3603 43.2711 26.5738 43.4688 23.5127H45.9857C46.4712 23.5127 46.8646 23.1191 46.8646 22.6337C46.8646 22.1483 46.4712 21.7548 45.9858 21.7548Z" fill="black"/>
<path d="M19.8167 46.783C19.396 46.5402 18.8586 46.6843 18.6161 47.1047L16.503 50.7647C16.163 51.3535 16.5939 52.0832 17.2633 52.0832C17.5671 52.0832 17.8625 51.9255 18.0253 51.6437L20.1384 47.9836C20.3811 47.5633 20.2371 47.0257 19.8167 46.783Z" fill="black"/>
<path d="M39.4302 19.6834C39.2129 19.0143 38.594 18.5646 37.8902 18.5646H33.039C32.242 16.1117 31.5399 13.9377 31.5399 13.9509C31.3226 13.2817 30.7036 12.832 29.9999 12.832C29.2962 12.832 28.6773 13.2817 28.4599 13.9509L26.9607 18.5646H22.1096C21.4058 18.5646 20.7871 19.0143 20.5695 19.6834C20.352 20.3526 20.5884 21.0803 21.1579 21.4938L25.0825 24.3452L23.5834 28.959C23.366 29.6283 23.6024 30.3558 24.1717 30.7694C24.7408 31.1829 25.5058 31.1829 26.0751 30.7694L29.9998 27.9178L33.9244 30.7694C34.4948 31.1838 35.2597 31.1821 35.8279 30.7694C36.3971 30.3558 36.6336 29.6283 36.4162 28.959L34.9171 24.3454L38.8417 21.4939C39.4114 21.0803 39.6478 20.3527 39.4302 19.6834ZM33.8027 22.9823C33.2335 23.3959 32.997 24.1234 33.2144 24.7927L34.6128 29.0963L30.9518 26.4365C30.3825 26.023 29.6176 26.023 29.0484 26.4365L25.3874 29.0963L26.7859 24.7927C27.0033 24.1235 26.7669 23.396 26.1976 22.9823L22.5366 20.3225H27.0618C27.7654 20.3225 28.3843 19.8729 28.6018 19.2037L30.0002 14.8999L31.3987 19.2037C31.6161 19.8728 32.2351 20.3225 32.9387 20.3225H37.4639L33.8027 22.9823Z" fill="#DC405C"/>
</g>
<defs>
<clipPath id="clip0_44_116">
<rect width="60" height="60" fill="white"/>
</clipPath>
</defs>
</svg>
