<svg width="24" height="24" viewBox="0 0 24 24" fill="none" xmlns="http://www.w3.org/2000/svg">
<path d="M20.71 3.6545C20.71 3.6545 22.6525 2.897 22.49 4.7365C22.4365 5.494 21.951 8.1455 21.573 11.013L20.278 19.508C20.278 19.508 20.17 20.7525 19.1985 20.969C18.2275 21.185 16.7705 20.2115 16.5005 19.995C16.2845 19.8325 12.4535 17.3975 11.1045 16.2075C10.7265 15.8825 10.2945 15.2335 11.1585 14.476L16.824 9.065C17.4715 8.416 18.119 6.901 15.421 8.7405L7.86598 13.8805C7.86598 13.8805 7.00248 14.422 5.38398 13.935L1.87598 12.8525C1.87598 12.8525 0.580976 12.041 2.79348 11.2295C8.18998 8.6865 14.8275 6.0895 20.709 3.6545H20.71Z" fill="#DC405C"/>
</svg>
