<svg width="186" height="86" viewBox="0 0 186 86" fill="none" xmlns="http://www.w3.org/2000/svg">
<path d="M13.7903 54.3013H11.2829L2.92607 62.6957V54.3013H0.726257V69.3102H2.92607V65.4254L5.7506 62.6337L11.6351 69.3102H14.208L7.2203 61.062L13.7903 54.3013Z" fill="white"/>
<path d="M28.448 64.0998C28.1471 64.8005 27.7293 65.4114 27.1948 65.9335C26.6593 66.4546 26.0289 66.8591 25.3035 67.1442C24.5772 67.4302 23.7892 67.5737 22.9395 67.5737C22.0736 67.5737 21.2789 67.4302 20.5526 67.1442C19.8273 66.8591 19.1921 66.4546 18.65 65.9335C18.1079 65.4114 17.6863 64.8005 17.3854 64.0998C17.0854 63.3991 16.9353 62.6346 16.9353 61.8052C16.9353 60.9768 17.0854 60.2123 17.3854 59.5116C17.6863 58.8109 18.1079 58.2 18.65 57.6779C19.1921 57.1568 19.8273 56.7532 20.5526 56.4672C21.2789 56.1812 22.0736 56.0377 22.9395 56.0377C23.7892 56.0377 24.5772 56.1812 25.3035 56.4672C26.0289 56.7532 26.6593 57.1568 27.1948 57.6779C27.7293 58.2 28.1471 58.8109 28.448 59.5116C28.748 60.2123 28.899 60.9768 28.899 61.8052C28.899 62.6346 28.748 63.3991 28.448 64.0998ZM28.7784 56.3062C28.0379 55.6129 27.173 55.0769 26.1827 54.6984C25.1934 54.3189 24.112 54.1291 22.9395 54.1291C21.7518 54.1291 20.659 54.3226 19.6621 54.7085C18.6652 55.0945 17.7993 55.6342 17.0673 56.3274C16.3334 57.0207 15.7619 57.8316 15.3517 58.7609C14.9406 59.6902 14.7355 60.7047 14.7355 61.8052C14.7355 62.9067 14.9406 63.9212 15.3517 64.8505C15.7619 65.7798 16.3334 66.5907 17.0673 67.2839C17.7993 67.9772 18.669 68.5169 19.6735 68.9028C20.677 69.2888 21.766 69.4814 22.9395 69.4814C24.112 69.4814 25.1934 69.2925 26.1827 68.913C27.173 68.5354 28.0379 67.9985 28.7784 67.3052C29.518 66.6119 30.0896 65.8011 30.4931 64.8718C30.8966 63.9425 31.0979 62.9206 31.0979 61.8052C31.0979 60.6908 30.8966 59.6689 30.4931 58.7396C30.0896 57.8103 29.518 56.9994 28.7784 56.3062Z" fill="white"/>
<path d="M40.4009 62.9207H36.6621V56.1665H40.4009C41.8089 56.1665 42.8751 56.4599 43.6014 57.0458C44.3267 57.6317 44.6894 58.4611 44.6894 59.5329C44.6894 60.6048 44.3267 61.4378 43.6014 62.0311C42.8751 62.6245 41.8089 62.9207 40.4009 62.9207ZM43.9194 64.1212C44.8727 63.7074 45.6056 63.1104 46.1192 62.331C46.6319 61.5517 46.8883 60.6196 46.8883 59.5329C46.8883 58.4472 46.6319 57.5104 46.1192 56.7237C45.6056 55.9378 44.8727 55.338 43.9194 54.9224C42.9662 54.5087 41.8155 54.3013 40.4673 54.3013H34.4632V69.3102H36.6621V64.7432H40.4673C40.8053 64.7432 41.131 64.7302 41.4443 64.7043L44.7559 69.3102H47.1522L43.4931 64.2758C43.6365 64.2249 43.7846 64.1804 43.9194 64.1212" fill="white"/>
<path d="M61.4918 65.4853L52.2549 54.3011H50.451V69.3099H52.6508V58.1267L61.8877 69.3099H63.6907V54.3011H61.4918V65.4853Z" fill="white"/>
<path d="M70.5086 62.5988H78.2284V60.7763H70.5086V56.1667H79.1731V54.3016H68.3088V69.3105H79.4816V67.4444H70.5086V62.5988Z" fill="white"/>
<path d="M77.7882 50.2916H75.1052L72.1136 53.0795H74.0931L77.7882 50.2916Z" fill="white"/>
<path d="M85.2436 62.5988H92.9633V60.7763H85.2436V56.1667H93.908V54.3016H83.0438V69.3105H94.2166V67.4444H85.2436V62.5988Z" fill="white"/>
<path d="M108.731 54.3013L103.147 66.6407L97.6031 54.3013H95.2276L102.002 69.3102H104.179L110.931 54.3013H108.731Z" fill="white"/>
<path d="M114.802 63.8428L118.122 56.4777L121.441 63.8428H114.802ZM117.045 54.3016L110.073 69.3104H112.337L114.029 65.558H122.214L123.906 69.3104H126.215L119.222 54.3016H117.045Z" fill="white"/>
<path d="M145.458 65.4849L136.221 54.3016H134.418V69.3105H136.617V58.1263L145.854 69.3105H147.658V54.3016H145.458V65.4849Z" fill="white"/>
<path d="M154.674 63.8428L157.994 56.4768L161.314 63.8428H154.674ZM156.916 54.3016L149.944 69.3104H152.21L153.901 65.558H162.087L163.778 69.3104H166.087L159.093 54.3016H156.916Z" fill="white"/>
<path d="M168.374 69.3102H170.574V54.3014H168.374V69.3102Z" fill="white"/>
<path d="M177.391 67.4446V54.3018H175.191V69.3098H185.726V67.4446H177.391Z" fill="white"/>
<path d="M29.177 83.6519C28.6691 83.6519 28.2143 83.5426 27.8136 83.3242C27.413 83.1039 27.0978 82.8031 26.8699 82.418C26.642 82.0339 26.5281 81.5933 26.5281 81.0981C26.5281 80.5964 26.642 80.1549 26.8699 79.7735C27.0978 79.3931 27.413 79.0941 27.8136 78.8775C28.2143 78.6619 28.6691 78.5536 29.177 78.5536C29.6137 78.5536 30.0077 78.6369 30.359 78.8016C30.7113 78.9673 30.9885 79.2145 31.1907 79.5449L30.6723 79.8883C30.4967 79.6338 30.2783 79.4459 30.0172 79.3265C29.7571 79.2052 29.4732 79.145 29.1675 79.145C28.802 79.145 28.4735 79.2265 28.1801 79.3885C27.8867 79.5495 27.6551 79.7763 27.4861 80.0688C27.3161 80.3613 27.2316 80.7038 27.2316 81.0981C27.2316 81.4924 27.3161 81.8358 27.4861 82.1274C27.6551 82.4199 27.8867 82.6466 28.1801 82.8086C28.4735 82.9706 28.802 83.0521 29.1675 83.0521C29.4732 83.0521 29.7571 82.9919 30.0172 82.8706C30.2783 82.7503 30.4967 82.5661 30.6723 82.318L31.1907 82.6605C30.9885 82.9845 30.7113 83.2316 30.359 83.4001C30.0077 83.5686 29.6137 83.6519 29.177 83.6519Z" fill="white"/>
<path d="M33.4482 83.6046V79.0117L33.6238 79.1931H31.5028V78.6016H36.0866V79.1931H33.9656L34.1422 79.0117V83.6046H33.4482Z" fill="white"/>
<path d="M38.5502 83.7473L36.1852 78.6018H36.9077L38.9993 83.1947L38.5502 83.7473ZM37.1821 85.5004C36.9409 85.5004 36.7111 85.4624 36.4928 85.3865C36.2744 85.3106 36.0874 85.1959 35.9307 85.0431L36.2535 84.5387C36.3836 84.659 36.5251 84.7534 36.6789 84.8201C36.8308 84.8867 37.0026 84.92 37.1916 84.92C37.4194 84.92 37.6169 84.858 37.783 84.734C37.9492 84.61 38.1068 84.3924 38.2568 84.0805L38.5891 83.3474L38.6679 83.2428L40.7785 78.6018H41.463L38.892 84.2045C38.7486 84.5294 38.591 84.7867 38.4182 84.9765C38.2454 85.1672 38.0584 85.3023 37.8562 85.3819C37.6539 85.4615 37.4299 85.5004 37.1821 85.5004Z" fill="white"/>
<path d="M45.842 83.2804V79.1929H43.3688L43.3099 80.3073C43.2966 80.6442 43.2757 80.9747 43.2472 81.2987C43.2178 81.6226 43.1684 81.9197 43.1001 82.1891C43.0317 82.4603 42.9358 82.6787 42.8115 82.8472C42.688 83.0147 42.5285 83.1119 42.3329 83.1379L41.6389 83.0138C41.8411 83.0194 42.0063 82.9481 42.1374 82.8C42.2674 82.6501 42.369 82.4455 42.4402 82.1845C42.5114 81.9244 42.5637 81.6272 42.5969 81.294C42.6292 80.9599 42.6557 80.6193 42.6747 80.2694L42.7431 78.6014H46.536V83.2804H45.842ZM41.4234 84.8151V83.0138H47.3373V84.8151H46.6822V83.6044H42.0785V84.8151H41.4234Z" fill="white"/>
<path d="M48.6862 83.6046V78.6016H49.3802V82.5753L52.8114 78.6016H53.4266V83.6046H52.7326V79.6216L49.3119 83.6046H48.6862Z" fill="white"/>
<path d="M58.7243 81.6038V78.9926L58.8516 79.1925H57.2195C56.7439 79.1925 56.3736 79.2814 56.1096 79.4591C55.8457 79.6368 55.7137 79.9266 55.7137 80.3264C55.7137 81.0697 56.1989 81.4418 57.1701 81.4418H58.8516L58.7243 81.6038ZM58.7243 83.6049V81.8037L58.8516 81.9462H57.1113C56.4533 81.9462 55.9387 81.8074 55.5675 81.5269C55.1963 81.2474 55.0102 80.8411 55.0102 80.307C55.0102 79.7359 55.2086 79.3082 55.6064 79.0259C56.0043 78.7427 56.535 78.602 57.1996 78.602H59.3595V83.6049H58.7243ZM54.9713 83.6049L56.3783 81.6797H57.1018L55.7242 83.6049H54.9713Z" fill="white"/>
<path d="M63.8952 83.6046V78.6016H64.5892V80.8129H67.8248V78.6016H68.5188V83.6046H67.8248V81.3933H64.5892V83.6046H63.8952Z" fill="white"/>
<path d="M72.6046 83.0517C72.9758 83.0517 73.3053 82.9712 73.592 82.8092C73.8787 82.6472 74.1047 82.4176 74.2708 82.1224C74.437 81.8271 74.5196 81.4856 74.5196 81.0986C74.5196 80.7043 74.437 80.3619 74.2708 80.0694C74.1047 79.7769 73.8787 79.5492 73.592 79.3881C73.3053 79.2261 72.9796 79.1447 72.6141 79.1447C72.2486 79.1447 71.9229 79.2261 71.6371 79.3881C71.3495 79.5492 71.1216 79.7769 70.9526 80.0694C70.7826 80.3619 70.6982 80.7043 70.6982 81.0986C70.6982 81.4856 70.7826 81.8271 70.9526 82.1224C71.1216 82.4176 71.3495 82.6472 71.6371 82.8092C71.9229 82.9712 72.2457 83.0517 72.6046 83.0517ZM72.6046 83.6515C72.109 83.6515 71.6647 83.5423 71.2707 83.3238C70.8757 83.1045 70.5643 82.8027 70.3364 82.4176C70.1086 82.0344 69.9946 81.5938 69.9946 81.0986C69.9946 80.596 70.1086 80.1554 70.3364 79.7732C70.5643 79.3927 70.8747 79.0947 71.2659 78.8781C71.6561 78.6624 72.1023 78.5541 72.6046 78.5541C73.1125 78.5541 73.5635 78.6624 73.9585 78.8781C74.3525 79.0947 74.662 79.3927 74.887 79.7732C75.1111 80.1554 75.224 80.596 75.224 81.0986C75.224 81.5938 75.1111 82.0344 74.887 82.4176C74.662 82.8027 74.3506 83.1045 73.9537 83.3238C73.5559 83.5423 73.1059 83.6515 72.6046 83.6515Z" fill="white"/>
<path d="M76.7095 83.6046V78.6016H80.3458V79.1931H77.2279L77.4035 79.0209V83.6046H76.7095Z" fill="white"/>
<path d="M82.4471 83.6046V79.0117L82.6227 79.1931H80.5017V78.6016H85.0855V79.1931H82.9645L83.1411 79.0117V83.6046H82.4471Z" fill="white"/>
<path d="M88.0577 83.6519C87.5232 83.6519 87.0542 83.5426 86.6497 83.3242C86.2462 83.1039 85.9301 82.8031 85.7022 82.418C85.4734 82.0339 85.3604 81.5933 85.3604 81.0981C85.3604 80.6029 85.4686 80.1641 85.687 79.7837C85.9054 79.4024 86.2054 79.1015 86.5861 78.8822C86.9678 78.6637 87.396 78.5536 87.8716 78.5536C88.3539 78.5536 88.7821 78.6609 89.1571 78.8729C89.5322 79.0867 89.8265 79.3848 90.042 79.7689C90.2566 80.154 90.3648 80.5964 90.3648 81.0981C90.3648 81.1296 90.3629 81.1629 90.3591 81.1981C90.3563 81.2332 90.3544 81.2693 90.3544 81.3082H85.8873V80.8028H89.9831L89.7097 81.0027C89.7097 80.6408 89.63 80.3187 89.4705 80.0355C89.31 79.7532 89.0935 79.5319 88.8201 79.3737C88.5467 79.2145 88.2305 79.1349 87.8716 79.1349C87.5203 79.1349 87.2042 79.2145 86.9241 79.3737C86.6431 79.5319 86.4257 79.755 86.269 80.0401C86.1124 80.3261 86.0345 80.6538 86.0345 81.0222V81.1268C86.0345 81.5081 86.1209 81.8432 86.2937 82.1329C86.4665 82.4208 86.7067 82.6466 87.0162 82.8086C87.3257 82.9706 87.6798 83.0521 88.0777 83.0521C88.39 83.0521 88.6815 82.9984 88.9521 82.8891C89.2227 82.7818 89.4553 82.617 89.6508 82.3939L90.042 82.8327C89.8141 83.0993 89.5284 83.3029 89.1866 83.4427C88.8448 83.5824 88.4679 83.6519 88.0577 83.6519Z" fill="white"/>
<path d="M92.5736 83.071H94.2056C94.6424 83.071 94.9728 83.0025 95.1978 82.8665C95.4228 82.7295 95.5348 82.5092 95.5348 82.2037C95.5348 81.8983 95.4342 81.6771 95.232 81.5373C95.0307 81.3966 94.7107 81.3272 94.274 81.3272H92.5736V83.071ZM92.5736 80.8218H94.1183C94.5151 80.8218 94.8199 80.7496 95.0316 80.6024C95.2434 80.4571 95.3497 80.2442 95.3497 79.9647C95.3497 79.6851 95.2434 79.475 95.0316 79.3353C94.8199 79.1955 94.5151 79.1261 94.1183 79.1261H92.5736V80.8218ZM91.8995 83.6042V78.6022H94.1667C94.7468 78.6022 95.2044 78.7095 95.5405 78.9261C95.8757 79.1418 96.0437 79.4593 96.0437 79.8786C96.0437 80.2859 95.8842 80.5978 95.5643 80.8172C95.2453 81.0365 94.8247 81.1467 94.3034 81.1467L94.4401 80.9458C95.0535 80.9458 95.5025 81.0569 95.7893 81.28C96.076 81.5021 96.2194 81.8224 96.2194 82.2417C96.2194 82.6739 96.058 83.009 95.7352 83.2469C95.4133 83.4848 94.913 83.6042 94.2351 83.6042H91.8995Z" fill="white"/>
<path d="M99.9533 83.0517C100.324 83.0517 100.653 82.9712 100.941 82.8092C101.227 82.6472 101.453 82.4176 101.62 82.1224C101.786 81.8271 101.868 81.4856 101.868 81.0986C101.868 80.7043 101.786 80.3619 101.62 80.0694C101.453 79.7769 101.227 79.5492 100.941 79.3881C100.653 79.2261 100.328 79.1447 99.9628 79.1447C99.5983 79.1447 99.2717 79.2261 98.9849 79.3881C98.6982 79.5492 98.4703 79.7769 98.3014 80.0694C98.1314 80.3619 98.0469 80.7043 98.0469 81.0986C98.0469 81.4856 98.1314 81.8271 98.3014 82.1224C98.4703 82.4176 98.6982 82.6472 98.9849 82.8092C99.2717 82.9712 99.5945 83.0517 99.9533 83.0517ZM99.9533 83.6515C99.4577 83.6515 99.0134 83.5423 98.6185 83.3238C98.2244 83.1045 97.913 82.8027 97.6852 82.4176C97.4573 82.0344 97.3434 81.5938 97.3434 81.0986C97.3434 80.596 97.4573 80.1554 97.6852 79.7732C97.913 79.3927 98.2235 79.0947 98.6137 78.8781C99.0049 78.6624 99.4511 78.5541 99.9533 78.5541C100.461 78.5541 100.912 78.6624 101.306 78.8781C101.701 79.0947 102.011 79.3927 102.236 79.7732C102.46 80.1554 102.573 80.596 102.573 81.0986C102.573 81.5938 102.46 82.0344 102.236 82.4176C102.011 82.8027 101.699 83.1045 101.302 83.3238C100.905 83.5423 100.455 83.6515 99.9533 83.6515Z" fill="white"/>
<path d="M104.058 83.6046V78.6016H107.694V79.1931H104.576L104.752 79.0209V83.6046H104.058Z" fill="white"/>
<path d="M110.577 83.0517C110.949 83.0517 111.278 82.9712 111.565 82.8092C111.851 82.6472 112.077 82.4176 112.244 82.1224C112.41 81.8271 112.492 81.4856 112.492 81.0986C112.492 80.7043 112.41 80.3619 112.244 80.0694C112.077 79.7769 111.851 79.5492 111.565 79.3881C111.278 79.2261 110.952 79.1447 110.587 79.1447C110.221 79.1447 109.897 79.2261 109.61 79.3881C109.323 79.5492 109.094 79.7769 108.925 80.0694C108.755 80.3619 108.672 80.7043 108.672 81.0986C108.672 81.4856 108.755 81.8271 108.925 82.1224C109.094 82.4176 109.323 82.6472 109.61 82.8092C109.897 82.9712 110.218 83.0517 110.577 83.0517ZM110.577 83.6515C110.082 83.6515 109.637 83.5423 109.243 83.3238C108.848 83.1045 108.538 82.8027 108.309 82.4176C108.081 82.0344 107.967 81.5938 107.967 81.0986C107.967 80.596 108.081 80.1554 108.309 79.7732C108.538 79.3927 108.848 79.0947 109.239 78.8781C109.629 78.6624 110.075 78.5541 110.577 78.5541C111.085 78.5541 111.536 78.6624 111.931 78.8781C112.325 79.0947 112.635 79.3927 112.86 79.7732C113.085 80.1554 113.197 80.596 113.197 81.0986C113.197 81.5938 113.085 82.0344 112.86 82.4176C112.635 82.8027 112.323 83.1045 111.926 83.3238C111.529 83.5423 111.08 83.6515 110.577 83.6515Z" fill="white"/>
<path d="M119.394 83.6519C118.886 83.6519 118.43 83.5426 118.031 83.3242C117.63 83.1039 117.315 82.8031 117.087 82.418C116.859 82.0339 116.745 81.5933 116.745 81.0981C116.745 80.5964 116.859 80.1549 117.087 79.7735C117.315 79.3931 117.63 79.0941 118.031 78.8775C118.43 78.6619 118.886 78.5536 119.394 78.5536C119.83 78.5536 120.225 78.6369 120.577 78.8016C120.928 78.9673 121.206 79.2145 121.408 79.5449L120.889 79.8883C120.714 79.6338 120.495 79.4459 120.234 79.3265C119.974 79.2052 119.69 79.145 119.384 79.145C119.019 79.145 118.691 79.2265 118.396 79.3885C118.104 79.5495 117.872 79.7763 117.703 80.0688C117.533 80.3613 117.449 80.7038 117.449 81.0981C117.449 81.4924 117.533 81.8358 117.703 82.1274C117.872 82.4199 118.104 82.6466 118.396 82.8086C118.691 82.9706 119.019 83.0521 119.384 83.0521C119.69 83.0521 119.974 82.9919 120.234 82.8706C120.495 82.7503 120.714 82.5661 120.889 82.318L121.408 82.6605C121.206 82.9845 120.928 83.2316 120.577 83.4001C120.225 83.5686 119.83 83.6519 119.394 83.6519Z" fill="white"/>
<path d="M124.858 83.6519C124.324 83.6519 123.855 83.5426 123.45 83.3242C123.046 83.1039 122.73 82.8031 122.502 82.418C122.274 82.0339 122.16 81.5933 122.16 81.0981C122.16 80.6029 122.269 80.1641 122.487 79.7837C122.706 79.4024 123.006 79.1015 123.386 78.8822C123.768 78.6637 124.196 78.5536 124.672 78.5536C125.154 78.5536 125.582 78.6609 125.958 78.8729C126.332 79.0867 126.627 79.3848 126.842 79.7689C127.057 80.154 127.165 80.5964 127.165 81.0981C127.165 81.1296 127.162 81.1629 127.159 81.1981C127.156 81.2332 127.155 81.2693 127.155 81.3082H122.688V80.8028H126.784L126.509 81.0027C126.509 80.6408 126.43 80.3187 126.27 80.0355C126.11 79.7532 125.894 79.5319 125.62 79.3737C125.346 79.2145 125.031 79.1349 124.672 79.1349C124.321 79.1349 124.004 79.2145 123.724 79.3737C123.443 79.5319 123.226 79.755 123.069 80.0401C122.913 80.3261 122.835 80.6538 122.835 81.0222V81.1268C122.835 81.5081 122.921 81.8432 123.094 82.1329C123.267 82.4208 123.507 82.6466 123.817 82.8086C124.126 82.9706 124.479 83.0521 124.877 83.0521C125.189 83.0521 125.482 82.9984 125.752 82.8891C126.023 82.7818 126.256 82.617 126.451 82.3939L126.842 82.8327C126.614 83.0993 126.329 83.3029 125.987 83.4427C125.645 83.5824 125.268 83.6519 124.858 83.6519Z" fill="white"/>
<path d="M131.3 83.0517C131.664 83.0517 131.99 82.9711 132.277 82.8092C132.562 82.6472 132.792 82.4176 132.96 82.1224C133.131 81.8271 133.215 81.4855 133.215 81.0986C133.215 80.7108 133.131 80.3711 132.96 80.0786C132.792 79.787 132.562 79.5584 132.277 79.3927C131.99 79.228 131.664 79.1447 131.3 79.1447C130.934 79.1447 130.606 79.228 130.316 79.3927C130.026 79.5584 129.799 79.787 129.632 80.0786C129.466 80.3711 129.384 80.7108 129.384 81.0986C129.384 81.4855 129.466 81.8271 129.632 82.1224C129.799 82.4176 130.026 82.6472 130.316 82.8092C130.606 82.9711 130.934 83.0517 131.3 83.0517ZM131.347 83.6515C130.905 83.6515 130.504 83.5515 130.145 83.3516C129.787 83.1516 129.502 82.8628 129.291 82.4852C129.079 82.1075 128.973 81.6447 128.973 81.0986C128.973 80.5525 129.077 80.0897 129.286 79.7111C129.494 79.3335 129.778 79.0465 130.136 78.8494C130.495 78.6522 130.899 78.5541 131.347 78.5541C131.837 78.5541 132.275 78.6606 132.663 78.8735C133.049 79.0863 133.355 79.3853 133.576 79.7685C133.798 80.1536 133.909 80.596 133.909 81.0986C133.909 81.6068 133.798 82.0511 133.576 82.4324C133.355 82.8138 133.049 83.1118 132.663 83.3284C132.275 83.5441 131.837 83.6515 131.347 83.6515ZM128.699 85.4536V78.6022H129.364V80.1073L129.295 81.1079L129.393 82.1177V85.4536H128.699Z" fill="white"/>
<path d="M136.079 83.071H137.711C138.147 83.071 138.479 83.0025 138.703 82.8665C138.928 82.7295 139.04 82.5092 139.04 82.2037C139.04 81.8983 138.939 81.6771 138.737 81.5373C138.535 81.3966 138.216 81.3272 137.779 81.3272H136.079V83.071ZM136.079 80.8218H137.622C138.02 80.8218 138.325 80.7496 138.537 80.6024C138.749 80.4571 138.855 80.2442 138.855 79.9647C138.855 79.6851 138.749 79.475 138.537 79.3353C138.325 79.1955 138.02 79.1261 137.622 79.1261H136.079V80.8218ZM135.405 83.6042V78.6022H137.672C138.252 78.6022 138.71 78.7095 139.045 78.9261C139.381 79.1418 139.549 79.4593 139.549 79.8786C139.549 80.2859 139.388 80.5978 139.069 80.8172C138.75 81.0365 138.33 81.1467 137.809 81.1467L137.945 80.9458C138.559 80.9458 139.008 81.0569 139.294 81.28C139.581 81.5021 139.724 81.8224 139.724 82.2417C139.724 82.6739 139.564 83.009 139.24 83.2469C138.918 83.4848 138.418 83.6042 137.74 83.6042H135.405Z" fill="white"/>
<path d="M141.347 83.6046V78.6016H142.041V82.5753L145.472 78.6016H146.087V83.6046H145.393V79.6216L141.973 83.6046H141.347Z" fill="white"/>
<path d="M150.222 83.6519C149.714 83.6519 149.259 83.5426 148.858 83.3242C148.458 83.1039 148.143 82.8031 147.915 82.418C147.688 82.0339 147.573 81.5933 147.573 81.0981C147.573 80.5964 147.688 80.1549 147.915 79.7735C148.143 79.3931 148.458 79.0941 148.858 78.8775C149.259 78.6619 149.714 78.5536 150.222 78.5536C150.659 78.5536 151.053 78.6369 151.405 78.8016C151.757 78.9673 152.034 79.2145 152.236 79.5449L151.718 79.8883C151.541 79.6338 151.323 79.4459 151.063 79.3265C150.802 79.2052 150.519 79.145 150.212 79.145C149.847 79.145 149.518 79.2265 149.225 79.3885C148.932 79.5495 148.701 79.7763 148.532 80.0688C148.362 80.3613 148.277 80.7038 148.277 81.0981C148.277 81.4924 148.362 81.8358 148.532 82.1274C148.701 82.4199 148.932 82.6466 149.225 82.8086C149.518 82.9706 149.847 83.0521 150.212 83.0521C150.519 83.0521 150.802 82.9919 151.063 82.8706C151.323 82.7503 151.541 82.5661 151.718 82.318L152.236 82.6605C152.034 82.9845 151.757 83.2316 151.405 83.4001C151.053 83.5686 150.659 83.6519 150.222 83.6519Z" fill="white"/>
<path d="M156.761 83.6046V82.4994L156.732 82.318V80.4695C156.732 80.0446 156.61 79.7161 156.365 79.4884C156.121 79.2597 155.758 79.1449 155.275 79.1449C154.943 79.1449 154.627 79.1986 154.327 79.3069C154.027 79.4152 153.773 79.5578 153.565 79.7355L153.252 79.231C153.512 79.0144 153.826 78.8478 154.19 78.7303C154.556 78.6127 154.939 78.5535 155.344 78.5535C156.008 78.5535 156.522 78.7145 156.884 79.0357C157.244 79.356 157.426 79.8438 157.426 80.4982V83.6046H156.761ZM154.992 83.6518C154.607 83.6518 154.274 83.5907 153.99 83.4666C153.707 83.3426 153.49 83.1714 153.34 82.952C153.19 82.7326 153.115 82.4799 153.115 82.1939C153.115 81.9338 153.178 81.6969 153.305 81.484C153.433 81.272 153.641 81.0998 153.932 80.9693C154.221 80.8397 154.611 80.774 155.1 80.774H156.868V81.2794H155.12C154.624 81.2794 154.28 81.3646 154.088 81.5367C153.895 81.7089 153.8 81.9209 153.8 82.1754C153.8 82.4605 153.914 82.6891 154.142 82.8613C154.37 83.0335 154.689 83.1186 155.1 83.1186C155.491 83.1186 155.827 83.0316 156.111 82.8557C156.395 82.6817 156.602 82.43 156.732 82.0986L156.888 82.566C156.758 82.8965 156.531 83.1603 156.21 83.3574C155.886 83.5546 155.48 83.6518 154.992 83.6518Z" fill="white"/>
<path d="M112.262 11.397H107.94V13.8156L112.262 16.4342V11.397Z" fill="white"/>
<path d="M84.6656 38.2024H88.9893V29.695L84.6656 27.083V38.2024Z" fill="white"/>
<path d="M104.02 0.50039H97.8172L84.8918 10.3822L107.941 24.3322V30.6227L78.5117 12.8536V0.50039H74.1909V38.2025H78.5117V17.0772L112.263 37.4722V22.7179L91.4457 10.112L104.02 0.50039Z" fill="white"/>
</svg>
